<svg width="67" height="96" viewBox="0 0 67 96" fill="none" xmlns="http://www.w3.org/2000/svg">
<path d="M66.9302 81.2502V95.8357H2.36523V83.3894L32.8974 50.6532C35.9658 47.2391 38.3859 44.2356 40.1578 41.6426C41.9296 39.0065 43.2045 36.6512 43.9824 34.5768C44.8035 32.4592 45.214 30.4497 45.214 28.5482C45.214 25.6959 44.7387 23.2542 43.7879 21.223C42.8372 19.1486 41.4326 17.5496 39.5743 16.426C37.7593 15.3024 35.512 14.7406 32.8326 14.7406C29.9804 14.7406 27.517 15.4321 25.4427 16.815C23.4115 18.1979 21.8557 20.121 20.7753 22.5843C19.7381 25.0476 19.2195 27.8351 19.2195 30.9467H0.485332C0.485332 25.3286 1.82503 20.1858 4.50443 15.5185C7.18383 10.8079 10.9652 7.06973 15.8487 4.3039C20.7321 1.49485 26.5231 0.0903262 33.2216 0.0903262C39.8336 0.0903262 45.4085 1.17073 49.9462 3.33154C54.5271 5.44913 57.9844 8.51747 60.3181 12.5366C62.695 16.5125 63.8834 21.2662 63.8834 26.7979C63.8834 29.9095 63.3864 32.9562 62.3925 35.9381C61.3985 38.8768 59.9724 41.8155 58.1141 44.7542C56.299 47.6497 54.095 50.5884 51.502 53.5703C48.909 56.5522 46.0351 59.6422 42.8804 62.8402L26.4798 81.2502H66.9302Z" fill="#66D764" fill-opacity="0.3"/>
</svg>
