<svg width="66" height="98" viewBox="0 0 66 98" fill="none" xmlns="http://www.w3.org/2000/svg">
<path d="M21.5548 40.5406H31.5377C34.7357 40.5406 37.3719 40.0004 39.4463 38.92C41.5206 37.7964 43.0548 36.2406 44.0488 34.2527C45.086 32.2215 45.6046 29.8662 45.6046 27.1868C45.6046 24.7667 45.1292 22.6275 44.1784 20.7693C43.2709 18.8677 41.8664 17.3984 39.9649 16.3612C38.0634 15.2808 35.6649 14.7406 32.7694 14.7406C30.4789 14.7406 28.3613 15.1944 26.4166 16.1019C24.4719 17.0094 22.9161 18.2843 21.7493 19.9265C20.5824 21.5687 19.999 23.5567 19.999 25.8904H1.2648C1.2648 20.7044 2.64772 16.1883 5.41355 12.3421C8.2226 8.49587 11.9824 5.49234 16.693 3.33154C21.4035 1.17073 26.5895 0.0903262 32.2508 0.0903262C38.6468 0.0903262 44.2433 1.12751 49.0403 3.20189C53.8372 5.23305 57.5754 8.23657 60.2548 12.2125C62.9342 16.1883 64.2739 21.115 64.2739 26.9924C64.2739 29.9743 63.5825 32.8698 62.1996 35.6788C60.8167 38.4447 58.8287 40.9512 56.2357 43.1984C53.686 45.4025 50.5744 47.1743 46.9011 48.514C43.2277 49.8105 39.1005 50.4587 34.5196 50.4587H21.5548V40.5406ZM21.5548 54.7371V45.0783H34.5196C39.6623 45.0783 44.1784 45.6618 48.0679 46.8286C51.9573 47.9954 55.2202 49.6809 57.8563 51.8849C60.4925 54.0457 62.4805 56.617 63.8202 59.599C65.1599 62.5377 65.8297 65.8005 65.8297 69.3874C65.8297 73.7955 64.987 77.7281 63.3016 81.1854C61.6161 84.5995 59.2393 87.495 56.1709 89.8719C53.1458 92.2488 49.6021 94.0638 45.5397 95.3171C41.4774 96.5272 37.0478 97.1322 32.2508 97.1322C28.2749 97.1322 24.3638 96.592 20.5176 95.5116C16.7146 94.388 13.2573 92.7241 10.1457 90.5201C7.07738 88.2729 4.61406 85.4638 2.75576 82.093C0.940683 78.6789 0.0331444 74.6382 0.0331444 69.9708H18.7673C18.7673 72.3909 19.3724 74.5517 20.5824 76.4533C21.7925 78.3548 23.4563 79.8457 25.5739 80.9261C27.7347 82.0065 30.1332 82.5467 32.7694 82.5467C35.7513 82.5467 38.301 82.0065 40.4186 80.9261C42.5794 79.8025 44.2217 78.2467 45.3453 76.2588C46.5121 74.2276 47.0955 71.8723 47.0955 69.1929C47.0955 65.7356 46.4689 62.9698 45.2156 60.8954C43.9624 58.7778 42.1689 57.2221 39.8352 56.2281C37.5015 55.2341 34.7357 54.7371 31.5377 54.7371H21.5548Z" fill="#77DBE0" fill-opacity="0.3"/>
</svg>
