<svg width="341" height="73" viewBox="0 0 341 73" fill="none" xmlns="http://www.w3.org/2000/svg">
<path d="M1.11332 0.957916C0.563615 1.0112 0.161187 1.50003 0.214474 2.04974C0.267762 2.59944 0.756586 3.00187 1.30629 2.94858L1.11332 0.957916ZM151.124 42.4743L150.545 43.2895L151.124 42.4743ZM340.195 57.0387C340.404 56.5275 340.159 55.9436 339.648 55.7346L331.318 52.3279C330.806 52.1189 330.223 52.3638 330.013 52.875C329.804 53.3862 330.049 53.9701 330.561 54.1791L337.965 57.2072L334.937 64.612C334.728 65.1232 334.973 65.7071 335.484 65.9161C335.995 66.1252 336.579 65.8802 336.788 65.369L340.195 57.0387ZM5.18757 2.64048C5.73875 2.60555 6.15726 2.13042 6.12233 1.57924C6.0874 1.02806 5.61227 0.609557 5.06109 0.644484L5.18757 2.64048ZM13.0353 0.349275C12.4831 0.356646 12.0414 0.810297 12.0487 1.36253C12.0561 1.91477 12.5097 2.35647 13.062 2.3491L13.0353 0.349275ZM20.9262 2.4026C21.4783 2.41685 21.9374 1.98085 21.9516 1.42875C21.9659 0.876646 21.5299 0.417521 20.9778 0.403263L20.9262 2.4026ZM28.9152 0.746731C28.3639 0.713558 27.8901 1.13357 27.857 1.68486C27.8238 2.23615 28.2438 2.70995 28.7951 2.74312L28.9152 0.746731ZM36.6507 3.34218C37.2007 3.39282 37.6876 2.98804 37.7382 2.43808C37.7889 1.88812 37.3841 1.40125 36.8341 1.35061L36.6507 3.34218ZM44.7168 2.19772C44.1686 2.13043 43.6697 2.52027 43.6024 3.06844C43.5351 3.61661 43.925 4.11554 44.4732 4.18282L44.7168 2.19772ZM52.2804 5.25947C52.8263 5.34303 53.3366 4.9682 53.4202 4.42228C53.5038 3.87635 53.1289 3.36605 52.583 3.28249L52.2804 5.25947ZM60.4173 4.60049C59.874 4.50081 59.3529 4.86037 59.2532 5.40359C59.1535 5.9468 59.5131 6.46797 60.0563 6.56765L60.4173 4.60049ZM67.7776 8.10318C68.3176 8.21896 68.8492 7.87505 68.965 7.33503C69.0808 6.79502 68.7369 6.2634 68.1968 6.14762L67.7776 8.10318ZM75.9401 7.93007C75.4039 7.79804 74.8621 8.12574 74.7301 8.66202C74.598 9.19829 74.9257 9.74005 75.462 9.87208L75.9401 7.93007ZM83.0769 11.8711C83.6089 12.0196 84.1604 11.7087 84.3089 11.1767C84.4574 10.6448 84.1465 10.0932 83.6146 9.94472L83.0769 11.8711ZM91.2295 12.1997C90.7025 12.0345 90.1414 12.3278 89.9762 12.8548C89.811 13.3818 90.1043 13.9429 90.6313 14.1081L91.2295 12.1997ZM98.1101 16.5859C98.6314 16.7682 99.2018 16.4933 99.384 15.9719C99.5663 15.4506 99.2914 14.8802 98.77 14.698L98.1101 16.5859ZM106.219 17.4418C105.704 17.2422 105.125 17.4979 104.925 18.0128C104.725 18.5278 104.981 19.107 105.496 19.3066L106.219 17.4418ZM112.791 22.2801C113.299 22.4975 113.886 22.2621 114.104 21.7544C114.321 21.2467 114.086 20.6589 113.578 20.4415L112.791 22.2801ZM120.823 23.6974C120.324 23.4619 119.728 23.6761 119.493 24.1757C119.257 24.6753 119.471 25.2711 119.971 25.5066L120.823 23.6974ZM127.026 28.9915C127.516 29.2453 128.12 29.0534 128.374 28.5629C128.627 28.0724 128.435 27.469 127.945 27.2152L127.026 28.9915ZM134.934 31.0024C134.454 30.73 133.843 30.8985 133.571 31.3789C133.298 31.8593 133.467 32.4696 133.947 32.7421L134.934 31.0024ZM140.715 36.7592C141.184 37.0505 141.801 36.9063 142.092 36.4371C142.383 35.9679 142.239 35.3514 141.77 35.0601L140.715 36.7592ZM148.433 39.3878C147.976 39.0776 147.354 39.1964 147.044 39.6532C146.734 40.1101 146.853 40.732 147.31 41.0423L148.433 39.3878ZM153.94 45.6285C154.399 45.9353 155.02 45.8117 155.327 45.3524C155.634 44.8932 155.51 44.2722 155.051 43.9654L153.94 45.6285ZM161.912 48.2722C161.436 47.9919 160.823 48.1504 160.543 48.6263C160.263 49.1022 160.421 49.7152 160.897 49.9955L161.912 48.2722ZM168.087 53.9648C168.578 54.2182 169.181 54.0259 169.435 53.5352C169.688 53.0445 169.496 52.4413 169.005 52.1878L168.087 53.9648ZM176.303 55.7093C175.8 55.4827 175.208 55.7074 174.981 56.2111C174.755 56.7148 174.979 57.3068 175.483 57.5333L176.303 55.7093ZM183.057 60.7023C183.571 60.9021 184.151 60.6468 184.351 60.1319C184.551 59.6171 184.295 59.0377 183.78 58.8378L183.057 60.7023ZM191.41 61.5787C190.886 61.405 190.32 61.6893 190.146 62.2135C189.972 62.7378 190.257 63.3036 190.781 63.4772L191.41 61.5787ZM198.632 65.8674C199.164 66.0156 199.716 65.7043 199.864 65.1723C200.012 64.6402 199.701 64.0888 199.169 63.9407L198.632 65.8674ZM207.036 65.935C206.498 65.8116 205.962 66.148 205.838 66.6863C205.715 67.2246 206.051 67.761 206.589 67.8844L207.036 65.935ZM214.627 69.5401C215.17 69.6397 215.691 69.28 215.791 68.7368C215.89 68.1936 215.531 67.6725 214.988 67.5729L214.627 69.5401ZM223.003 68.868C222.456 68.7913 221.951 69.1724 221.874 69.7194C221.797 70.2663 222.178 70.7719 222.725 70.8486L223.003 68.868ZM230.868 71.8246C231.417 71.8795 231.907 71.4785 231.962 70.929C232.017 70.3794 231.616 69.8894 231.066 69.8345L230.868 71.8246ZM239.161 70.4866C238.609 70.4526 238.135 70.8719 238.101 71.4232C238.067 71.9744 238.486 72.4488 239.038 72.4828L239.161 70.4866ZM247.221 72.8372C247.773 72.8512 248.232 72.415 248.246 71.8629C248.26 71.3107 247.824 70.8518 247.272 70.8379L247.221 72.8372ZM255.401 70.9016C254.849 70.9068 254.405 71.3587 254.41 71.9109C254.416 72.4632 254.867 72.9067 255.42 72.9015L255.401 70.9016ZM263.618 72.687C264.17 72.6634 264.598 72.1969 264.574 71.6452C264.551 71.0934 264.084 70.6652 263.532 70.6888L263.618 72.687ZM271.648 70.2104C271.097 70.2517 270.684 70.7316 270.725 71.2824C270.767 71.8331 271.247 72.2461 271.797 72.2048L271.648 70.2104ZM279.944 71.4652C280.494 71.4067 280.891 70.9141 280.833 70.365C280.774 69.8158 280.282 69.418 279.733 69.4764L279.944 71.4652ZM287.814 68.4904C287.267 68.5656 286.884 69.0702 286.959 69.6173C287.035 70.1644 287.539 70.547 288.086 70.4717L287.814 68.4904ZM296.188 69.2315C296.732 69.1397 297.099 68.6237 297.007 68.0791C296.915 67.5345 296.4 67.1675 295.855 67.2594L296.188 69.2315ZM303.839 65.7873C303.297 65.8957 302.946 66.4227 303.055 66.9642C303.163 67.5057 303.69 67.8568 304.232 67.7483L303.839 65.7873ZM312.252 66.01C312.79 65.8844 313.124 65.3466 312.999 64.8088C312.873 64.271 312.335 63.9368 311.797 64.0624L312.252 66.01ZM319.685 62.0802C319.152 62.2241 318.836 62.773 318.98 63.3062C319.124 63.8394 319.673 64.155 320.206 64.0111L319.685 62.0802ZM328.08 61.7242C328.607 61.5594 328.901 60.9984 328.736 60.4713C328.571 59.9442 328.01 59.6505 327.483 59.8153L328.08 61.7242ZM335.166 57.2024C334.648 57.3951 334.385 57.9709 334.578 58.4885C334.77 59.0061 335.346 59.2694 335.864 59.0767L335.166 57.2024ZM1.30629 2.94858C2.51839 2.83109 3.81376 2.72754 5.18757 2.64048L5.06109 0.644484C3.66673 0.732842 2.34912 0.838121 1.11332 0.957916L1.30629 2.94858ZM13.062 2.3491C15.5306 2.31615 18.1577 2.3311 20.9262 2.4026L20.9778 0.403263C18.184 0.331113 15.5308 0.315966 13.0353 0.349275L13.062 2.3491ZM28.7951 2.74312C31.3283 2.89555 33.9502 3.09353 36.6507 3.34218L36.8341 1.35061C34.1125 1.10001 31.4694 0.900424 28.9152 0.746731L28.7951 2.74312ZM44.4732 4.18282C47.0225 4.49576 49.6274 4.85341 52.2804 5.25947L52.583 3.28249C49.9101 2.87338 47.2856 2.51303 44.7168 2.19772L44.4732 4.18282ZM60.0563 6.56765C62.5968 7.03381 65.1725 7.54468 67.7776 8.10318L68.1968 6.14762C65.572 5.58487 62.9768 5.07016 60.4173 4.60049L60.0563 6.56765ZM75.462 9.87208C77.9808 10.4922 80.5208 11.1577 83.0769 11.8711L83.6146 9.94472C81.0382 9.22568 78.4784 8.55498 75.9401 7.93007L75.462 9.87208ZM90.6313 14.1081C93.1154 14.8868 95.6098 15.712 98.1101 16.5859L98.77 14.698C96.2488 13.8167 93.7338 12.9846 91.2295 12.1997L90.6313 14.1081ZM105.496 19.3066C107.928 20.2492 110.361 21.2397 112.791 22.2801L113.578 20.4415C111.126 19.3918 108.671 18.3926 106.219 17.4418L105.496 19.3066ZM119.971 25.5066C122.33 26.6183 124.683 27.7793 127.026 28.9915L127.945 27.2152C125.58 25.9914 123.205 24.8194 120.823 23.6974L119.971 25.5066ZM133.947 32.7421C136.218 34.0297 138.475 35.3682 140.715 36.7592L141.77 35.0601C139.507 33.6548 137.227 32.3028 134.934 31.0024L133.947 32.7421ZM147.31 41.0423C148.393 41.7782 149.472 42.5272 150.545 43.2895L151.703 41.659C150.618 40.8885 149.528 40.1315 148.433 39.3878L147.31 41.0423ZM150.545 43.2895C151.67 44.0885 152.802 44.868 153.94 45.6285L155.051 43.9654C153.928 43.2155 152.812 42.4468 151.703 41.659L150.545 43.2895ZM160.897 49.9955C163.271 51.3938 165.669 52.7159 168.087 53.9648L169.005 52.1878C166.619 50.9556 164.254 49.6514 161.912 48.2722L160.897 49.9955ZM175.483 57.5333C177.992 58.6614 180.517 59.7166 183.057 60.7023L183.78 58.8378C181.273 57.8645 178.779 56.8228 176.303 55.7093L175.483 57.5333ZM190.781 63.4772C193.389 64.3412 196.008 65.1368 198.632 65.8674L199.169 63.9407C196.575 63.2185 193.987 62.4323 191.41 61.5787L190.781 63.4772ZM206.589 67.8844C209.268 68.4984 211.948 69.0491 214.627 69.5401L214.988 67.5729C212.337 67.087 209.685 66.5423 207.036 65.935L206.589 67.8844ZM222.725 70.8486C225.448 71.2306 228.163 71.5546 230.868 71.8246L231.066 69.8345C228.387 69.5671 225.698 69.2462 223.003 68.868L222.725 70.8486ZM239.038 72.4828C241.783 72.6519 244.513 72.7687 247.221 72.8372L247.272 70.8379C244.587 70.7699 241.882 70.6542 239.161 70.4866L239.038 72.4828ZM255.42 72.9015C258.182 72.8755 260.917 72.8024 263.618 72.687L263.532 70.6888C260.853 70.8033 258.14 70.8758 255.401 70.9016L255.42 72.9015ZM271.797 72.2048C274.558 71.9977 277.276 71.7493 279.944 71.4652L279.733 69.4764C277.084 69.7584 274.387 70.0049 271.648 70.2104L271.797 72.2048ZM288.086 70.4717C290.854 70.091 293.557 69.6752 296.188 69.2315L295.855 67.2594C293.244 67.6998 290.561 68.1125 287.814 68.4904L288.086 70.4717ZM304.232 67.7483C307.011 67.1917 309.688 66.6089 312.252 66.01L311.797 64.0624C309.253 64.6566 306.597 65.2348 303.839 65.7873L304.232 67.7483ZM320.206 64.0111C323.023 63.2508 325.655 62.4824 328.08 61.7242L327.483 59.8153C325.084 60.5655 322.478 61.3265 319.685 62.0802L320.206 64.0111ZM335.864 59.0767C337.252 58.56 338.519 58.0595 339.656 57.5823L338.883 55.738C337.773 56.2035 336.532 56.694 335.166 57.2024L335.864 59.0767Z" fill="white"/>
</svg>
