<svg width="180" height="84" viewBox="0 0 180 84" fill="none" xmlns="http://www.w3.org/2000/svg">
<path d="M1.38302 10.3061C0.945868 10.4731 0.727912 10.9632 0.896199 11.4007C1.06449 11.8382 1.55529 12.0575 1.99244 11.8904L1.38302 10.3061ZM107.249 39.7929L108.089 39.6781L107.249 39.7929ZM62.3537 52.5485L63.2014 52.5234L62.3537 52.5485ZM173.413 83.6443C173.769 83.9506 174.304 83.9116 174.609 83.5573L179.585 77.7836C179.89 77.4293 179.85 76.8938 179.495 76.5876C179.14 76.2813 178.604 76.3203 178.299 76.6746L173.876 81.8068L168.73 77.3709C168.375 77.0647 167.839 77.1037 167.534 77.458C167.229 77.8123 167.269 78.3478 167.624 78.654L173.413 83.6443ZM4.90694 10.807C5.34709 10.648 5.57398 10.162 5.41371 9.72154C5.25345 9.28106 4.76671 9.05289 4.32656 9.21191L4.90694 10.807ZM10.2205 7.20759C9.7746 7.34968 9.5293 7.82661 9.67266 8.27284C9.81601 8.71906 10.2937 8.96561 10.7397 8.82352L10.2205 7.20759ZM16.6438 7.07313C17.0952 6.94942 17.3598 6.48298 17.2349 6.03131C17.1099 5.57964 16.6426 5.31378 16.1912 5.4375L16.6438 7.07313ZM22.2322 3.9224C21.7757 4.02614 21.4907 4.48044 21.5958 4.93711C21.7008 5.39378 22.156 5.67988 22.6125 5.57614L22.2322 3.9224ZM28.6362 4.35452C29.0972 4.27249 29.4033 3.83222 29.32 3.37116C29.2367 2.91009 28.7954 2.60283 28.3345 2.68487L28.6362 4.35452ZM34.501 1.74721C34.0364 1.8056 33.7081 2.22962 33.7678 2.69427C33.8275 3.15892 34.2525 3.48825 34.7171 3.42985L34.501 1.74721ZM40.8504 2.82843C41.3176 2.79579 41.6688 2.39063 41.6349 1.92346C41.601 1.45629 41.1948 1.10404 40.7276 1.13667L40.8504 2.82843ZM46.9701 0.885091C46.5017 0.889795 46.1269 1.27323 46.1329 1.74151C46.1389 2.20979 46.5234 2.58559 46.9918 2.58089L46.9701 0.885091ZM53.1217 2.71445C53.5894 2.73996 53.9883 2.38157 54.0126 1.91396C54.0368 1.44636 53.6772 1.0466 53.2094 1.02109L53.1217 2.71445ZM59.4581 1.57973C58.9932 1.52141 58.57 1.8508 58.513 2.31546C58.4559 2.78012 58.7865 3.20408 59.2515 3.26241L59.4581 1.57973ZM65.2923 4.25143C65.7516 4.34492 66.1986 4.04872 66.2909 3.58984C66.3831 3.13097 66.0856 2.68318 65.6264 2.58969L65.2923 4.25143ZM71.7292 4.09492C71.2792 3.96359 70.8089 4.22152 70.6788 4.67103C70.5487 5.12055 70.808 5.59141 71.258 5.72275L71.7292 4.09492ZM77.0543 7.69869C77.4906 7.87017 77.9825 7.65591 78.1528 7.22014C78.3231 6.78436 78.1074 6.29208 77.6711 6.12059L77.0543 7.69869ZM83.3972 8.69921C82.9798 8.48547 82.4691 8.64999 82.2564 9.06667C82.0438 9.48336 82.2097 9.99441 82.6271 10.2082L83.3972 8.69921ZM87.9111 13.2809C88.3029 13.5387 88.8286 13.4307 89.0854 13.0397C89.3421 12.6487 89.2327 12.1228 88.8409 11.8651L87.9111 13.2809ZM93.897 15.6359C93.5388 15.3332 93.0037 15.3774 92.7019 15.7347C92.4001 16.092 92.4458 16.6271 92.804 16.9298L93.897 15.6359ZM97.1885 21.1545C97.5034 21.502 98.0399 21.5291 98.3866 21.2152C98.7333 20.9012 98.759 20.365 98.444 20.0175L97.1885 21.1545ZM102.344 25.0037C102.083 24.6136 101.557 24.5074 101.167 24.7665C100.778 25.0257 100.673 25.5519 100.933 25.942L102.344 25.0037ZM103.877 31.2409C104.069 31.6685 104.571 31.8602 104.999 31.6691C105.426 31.478 105.616 30.9765 105.424 30.549L103.877 31.2409ZM107.493 36.5527C107.382 36.0973 106.924 35.8166 106.469 35.9258C106.013 36.035 105.734 36.4926 105.844 36.948L107.493 36.5527ZM106.682 42.77C106.705 43.2378 107.103 43.5992 107.571 43.5774C108.039 43.5555 108.399 43.1586 108.376 42.6908L106.682 42.77ZM108.045 48.7472C108.123 48.2857 107.811 47.8472 107.35 47.7679C106.888 47.6886 106.45 47.9985 106.372 48.46L108.045 48.7472ZM104.719 53.8673C104.523 54.2921 104.709 54.7963 105.134 54.9934C105.56 55.1906 106.064 55.0061 106.26 54.5813L104.719 53.8673ZM102.949 59.7012C103.255 59.3482 103.217 58.8126 102.863 58.5049C102.509 58.1972 101.973 58.234 101.667 58.587L102.949 59.7012ZM97.4227 62.3126C97.0343 62.5733 96.9317 63.1 97.1935 63.4891C97.4553 63.8781 97.9824 63.9822 98.3708 63.7215L97.4227 62.3126ZM92.9697 66.4888C93.4075 66.3234 93.6273 65.8341 93.4607 65.396C93.294 64.9579 92.804 64.7368 92.3662 64.9022L92.9697 66.4888ZM86.8465 66.3573C86.384 66.4306 86.0696 66.865 86.1443 67.3276C86.2189 67.7901 86.6543 68.1056 87.1167 68.0322L86.8465 66.3573ZM81.0736 68.3897C81.5417 68.4083 81.9353 68.0441 81.9526 67.5762C81.97 67.1082 81.6046 66.7138 81.1365 66.6951L81.0736 68.3897ZM75.4914 65.873C75.0378 65.7546 74.5752 66.026 74.4581 66.4791C74.3409 66.9322 74.6136 67.3954 75.0672 67.5138L75.4914 65.873ZM69.4011 65.2245C69.8069 65.4596 70.3255 65.3218 70.5596 64.9167C70.7936 64.5117 70.6543 63.9928 70.2485 63.7577L69.4011 65.2245ZM65.9944 60.1836C65.7 59.8186 65.166 59.7605 64.8017 60.0539C64.4374 60.3473 64.3807 60.881 64.6752 61.246L65.9944 60.1836ZM61.9197 55.6737C62.0299 56.1292 62.4883 56.4101 62.9436 56.3012C63.3989 56.1923 63.6786 55.7348 63.5684 55.2793L61.9197 55.6737ZM63.2462 49.5894C63.2762 49.1221 62.9215 48.7181 62.454 48.6868C61.9865 48.6556 61.5833 49.0091 61.5534 49.4764L63.2462 49.5894ZM62.5627 43.432C62.4382 43.8831 62.7033 44.3508 63.1548 44.4765C63.6064 44.6023 64.0734 44.3385 64.198 43.8874L62.5627 43.432ZM66.322 38.5005C66.5384 38.0858 66.3772 37.5733 65.9618 37.3557C65.5464 37.1382 65.0341 37.298 64.8177 37.7127L66.322 38.5005ZM68.1918 32.5888C67.8975 32.9523 67.9544 33.4863 68.3189 33.7815C68.6833 34.0767 69.2173 34.0213 69.5116 33.6577L68.1918 32.5888ZM73.5603 29.489C73.9139 29.1827 73.9513 28.6473 73.644 28.293C73.3367 27.9387 72.801 27.8998 72.4475 28.206L73.5603 29.489ZM77.3622 24.5799C76.9661 24.8289 76.8478 25.3522 77.0979 25.7489C77.3481 26.1455 77.8719 26.2652 78.2679 26.0163L77.3622 24.5799ZM83.4263 23.2395C83.8517 23.0446 84.0376 22.5414 83.8415 22.1156C83.6454 21.6898 83.1416 21.5025 82.7162 21.6974L83.4263 23.2395ZM88.3751 19.4986C87.9299 19.6431 87.6872 20.1213 87.833 20.5668C87.9787 21.0122 88.4578 21.2562 88.903 21.1117L88.3751 19.4986ZM94.5999 19.5905C95.0578 19.4931 95.349 19.0428 95.2503 18.5847C95.1516 18.1267 94.7004 17.8343 94.2425 17.9317L94.5999 19.5905ZM100.232 16.9595C99.7667 17.0124 99.4334 17.4326 99.4877 17.8979C99.5419 18.3632 99.963 18.6975 100.428 18.6445L100.232 16.9595ZM106.314 18.247C106.783 18.2366 107.153 17.8486 107.141 17.3804C107.129 16.9122 106.74 16.5411 106.272 16.5515L106.314 18.247ZM112.328 16.6852C111.861 16.6543 111.458 17.008 111.428 17.4753C111.398 17.9426 111.753 18.3464 112.221 18.3774L112.328 16.6852ZM118.097 19.0246C118.561 19.0961 118.993 18.7789 119.063 18.3161C119.133 17.8533 118.815 17.4201 118.352 17.3486L118.097 19.0246ZM124.298 18.5351C123.842 18.4233 123.384 18.7014 123.273 19.1561C123.163 19.6109 123.442 20.0702 123.897 20.1819L124.298 18.5351ZM129.573 21.8454C130.017 21.9971 130.498 21.761 130.649 21.318C130.799 20.875 130.562 20.3928 130.118 20.241L129.573 21.8454ZM135.766 22.4633C135.338 22.2719 134.836 22.4632 134.646 22.8906C134.456 23.318 134.648 23.8197 135.076 24.0111L135.766 22.4633ZM140.351 26.6699C140.76 26.9003 141.277 26.7566 141.506 26.3489C141.736 25.9412 141.59 25.4239 141.182 25.1935L140.351 26.6699ZM146.32 28.4224C145.935 28.1541 145.406 28.2479 145.139 28.6317C144.872 29.0156 144.967 29.5442 145.352 29.8125L146.32 28.4224ZM150.026 33.4198C150.383 33.7241 150.918 33.6821 151.222 33.326C151.525 32.97 151.482 32.4348 151.125 32.1305L150.026 33.4198ZM155.547 36.2885C155.221 35.9509 154.684 35.9404 154.347 36.265C154.011 36.5896 154.002 37.1264 154.327 37.4639L155.547 36.2885ZM158.215 41.9072C158.506 42.2747 159.039 42.3373 159.406 42.047C159.773 41.7567 159.834 41.2235 159.543 40.856L158.215 41.9072ZM163.081 45.7842C162.826 45.3908 162.3 45.2778 161.908 45.5318C161.515 45.7859 161.403 46.3107 161.658 46.7041L163.081 45.7842ZM164.642 51.8039C164.86 52.2189 165.373 52.3795 165.787 52.1626C166.202 51.9457 166.361 51.4334 166.143 51.0184L164.642 51.8039ZM168.725 56.5031C168.543 56.0708 168.046 55.8662 167.614 56.0461C167.182 56.2261 166.979 56.7224 167.16 57.1548L168.725 56.5031ZM169.222 62.7088C169.368 63.1544 169.846 63.399 170.292 63.255C170.737 63.111 170.98 62.633 170.835 62.1874L169.222 62.7088ZM172.493 68.0281C172.382 67.5728 171.923 67.2927 171.468 67.4024C171.013 67.5121 170.734 67.9701 170.845 68.4253L172.493 68.0281ZM172.04 74.2057C172.119 74.6675 172.557 74.9788 173.019 74.9011C173.481 74.8233 173.791 74.3859 173.712 73.9241L172.04 74.2057ZM174.534 79.8799C174.485 79.4141 174.067 79.0755 173.601 79.1237C173.135 79.1719 172.798 79.5886 172.847 80.0544L174.534 79.8799ZM1.99244 11.8904C2.9696 11.517 3.94112 11.156 4.90694 10.807L4.32656 9.21191C3.35095 9.56438 2.36975 9.92904 1.38302 10.3061L1.99244 11.8904ZM10.7397 8.82352C12.7339 8.18809 14.7021 7.60524 16.6438 7.07313L16.1912 5.4375C14.2268 5.97582 12.2364 6.56525 10.2205 7.20759L10.7397 8.82352ZM22.6125 5.57614C24.6523 5.11259 26.6604 4.70616 28.6362 4.35452L28.3345 2.68487C26.3319 3.04127 24.2976 3.45302 22.2322 3.9224L22.6125 5.57614ZM34.7171 3.42985C36.8011 3.1679 38.8459 2.96844 40.8504 2.82843L40.7276 1.13667C38.6913 1.2789 36.6155 1.48143 34.501 1.74721L34.7171 3.42985ZM46.9918 2.58089C49.0842 2.55987 51.1278 2.6057 53.1217 2.71445L53.2094 1.02109C51.1785 0.910319 49.0983 0.863717 46.9701 0.885091L46.9918 2.58089ZM59.2515 3.26241C61.327 3.52278 63.3411 3.8542 65.2923 4.25143L65.6264 2.58969C63.6322 2.18371 61.5756 1.84537 59.4581 1.57973L59.2515 3.26241ZM71.258 5.72275C73.2695 6.30984 75.2022 6.97084 77.0543 7.69869L77.6711 6.12059C75.7703 5.37363 73.789 4.69611 71.7292 4.09492L71.258 5.72275ZM82.6271 10.2082C84.4908 11.1626 86.2529 12.19 87.9111 13.2809L88.8409 11.8651C87.1301 10.7395 85.3145 9.68111 83.3972 8.69921L82.6271 10.2082ZM92.804 16.9298C94.3978 18.2768 95.8603 19.6894 97.1885 21.1545L98.444 20.0175C97.0639 18.4951 95.5468 17.0303 93.897 15.6359L92.804 16.9298ZM100.933 25.942C102.084 27.667 103.067 29.4391 103.877 31.2409L105.424 30.549C104.574 28.6585 103.545 26.8042 102.344 25.0037L100.933 25.942ZM105.844 36.948C106.083 37.932 106.271 38.9194 106.409 39.9077L108.089 39.6781C107.944 38.6333 107.744 37.5906 107.493 36.5527L105.844 36.948ZM106.409 39.9077C106.546 40.8915 106.636 41.8455 106.682 42.77L108.376 42.6908C108.328 41.7142 108.233 40.71 108.089 39.6781L106.409 39.9077ZM106.372 48.46C106.038 50.4324 105.473 52.233 104.719 53.8673L106.26 54.5813C107.078 52.8083 107.687 50.8639 108.045 48.7472L106.372 48.46ZM101.667 58.587C100.421 60.0208 98.9886 61.2617 97.4227 62.3126L98.3708 63.7215C100.052 62.5932 101.598 61.255 102.949 59.7012L101.667 58.587ZM92.3662 64.9022C90.5851 65.5752 88.7266 66.0591 86.8465 66.3573L87.1167 68.0322C89.1056 67.7168 91.0761 67.2042 92.9697 66.4888L92.3662 64.9022ZM81.1365 66.6951C79.1885 66.6175 77.2855 66.3411 75.4914 65.873L75.0672 67.5138C76.9861 68.0145 79.0107 68.3075 81.0736 68.3897L81.1365 66.6951ZM70.2485 63.7577C68.5751 62.7884 67.131 61.5925 65.9944 60.1836L64.6752 61.246C65.9591 62.8377 67.5708 64.1643 69.4011 65.2245L70.2485 63.7577ZM63.5684 55.2793C63.3586 54.4121 63.2327 53.4936 63.2014 52.5234L61.506 52.5735C61.541 53.6563 61.6818 54.6903 61.9197 55.6737L63.5684 55.2793ZM63.2014 52.5234C63.1692 51.5261 63.1848 50.5479 63.2462 49.5894L61.5534 49.4764C61.4884 50.49 61.472 51.5226 61.506 52.5735L63.2014 52.5234ZM64.198 43.8874C64.7193 41.9995 65.4336 40.2025 66.322 38.5005L64.8177 37.7127C63.8751 39.5184 63.1164 41.4267 62.5627 43.432L64.198 43.8874ZM69.5116 33.6577C70.7149 32.171 72.0704 30.7797 73.5603 29.489L72.4475 28.206C70.8867 29.5581 69.4612 31.0204 68.1918 32.5888L69.5116 33.6577ZM78.2679 26.0163C79.8905 24.9963 81.615 24.0692 83.4263 23.2395L82.7162 21.6974C80.841 22.5565 79.0508 23.5184 77.3622 24.5799L78.2679 26.0163ZM88.903 21.1117C90.7437 20.5142 92.6469 20.006 94.5999 19.5905L94.2425 17.9317C92.2337 18.3591 90.2735 18.8823 88.3751 19.4986L88.903 21.1117ZM100.428 18.6445C102.361 18.4246 104.327 18.2912 106.314 18.247L106.272 16.5515C104.233 16.5969 102.216 16.7337 100.232 16.9595L100.428 18.6445ZM112.221 18.3774C114.173 18.5065 116.135 18.7214 118.097 19.0246L118.352 17.3486C116.34 17.0379 114.329 16.8175 112.328 16.6852L112.221 18.3774ZM123.897 20.1819C125.802 20.6496 127.697 21.2034 129.573 21.8454L130.118 20.241C128.194 19.5824 126.25 19.0146 124.298 18.5351L123.897 20.1819ZM135.076 24.0111C136.864 24.8105 138.625 25.6961 140.351 26.6699L141.182 25.1935C139.409 24.1933 137.6 23.2839 135.766 22.4633L135.076 24.0111ZM145.352 29.8125C146.953 30.9292 148.514 32.131 150.026 33.4198L151.125 32.1305C149.57 30.8055 147.966 29.5701 146.32 28.4224L145.352 29.8125ZM154.327 37.4639C155.677 38.8628 156.975 40.3433 158.215 41.9072L159.543 40.856C158.268 39.2487 156.934 37.7267 155.547 36.2885L154.327 37.4639ZM161.658 46.7041C162.712 48.3281 163.708 50.0276 164.642 51.8039L166.143 51.0184C165.185 49.1963 164.163 47.452 163.081 45.7842L161.658 46.7041ZM167.16 57.1548C167.908 58.9383 168.597 60.7893 169.222 62.7088L170.835 62.1874C170.195 60.2244 169.49 58.33 168.725 56.5031L167.16 57.1548ZM170.845 68.4253C171.3 70.2939 171.7 72.2204 172.04 74.2057L173.712 73.9241C173.365 71.9007 172.958 69.9357 172.493 68.0281L170.845 68.4253ZM172.847 80.0544C172.952 81.0444 173.044 82.0477 173.12 83.0643L174.812 82.9412C174.734 81.9076 174.641 80.8872 174.534 79.8799L172.847 80.0544Z" fill="white"/>
</svg>
