<svg width="1440" height="477" viewBox="0 0 1440 477" fill="none" xmlns="http://www.w3.org/2000/svg">
<g clip-path="url(#clip0_2947_43)">
<path d="M1439 39H-1V477H1439V39Z" fill="#0B017F"/>
<path d="M590.998 38.8433H709.295L370.765 476.743H252.469L590.998 38.8433Z" fill="white" fill-opacity="0.1"/>
<path d="M440.686 38.8433H558.983L220.453 476.743H102.156L440.686 38.8433Z" fill="white" fill-opacity="0.1"/>
<path opacity="0.3" d="M1361.76 238.288L1363.42 253.327C1363.86 257.277 1366.98 260.395 1370.93 260.827L1386.09 262.483L1370.93 264.139C1366.98 264.571 1363.86 267.688 1363.42 271.638L1361.76 286.677L1360.1 271.638C1359.66 267.688 1356.54 264.571 1352.59 264.139L1337.44 262.483L1352.59 260.827C1356.54 260.395 1359.66 257.277 1360.1 253.327L1361.76 238.288Z" fill="white"/>
<path opacity="0.3" d="M77.8323 127.532L79.4936 142.572C79.9299 146.522 83.0508 149.639 87.0014 150.071L102.157 151.727L87.0014 153.383C83.0508 153.815 79.9299 156.932 79.4936 160.882L77.8323 175.922L76.171 160.882C75.7347 156.932 72.6138 153.815 68.6632 153.383L53.5078 151.727L68.6632 150.071C72.6138 149.639 75.7347 146.522 76.171 142.572L77.8323 127.532Z" fill="white"/>
<g opacity="0.3">
<path d="M1114.83 124.89L1116.49 139.929C1116.93 143.879 1120.05 146.997 1124 147.428L1139.15 149.085L1124 150.741C1120.05 151.173 1116.93 154.29 1116.49 158.24L1114.83 173.279L1113.17 158.24C1112.73 154.29 1109.61 151.173 1105.66 150.741L1090.5 149.085L1105.66 147.428C1109.61 146.997 1112.73 143.879 1113.17 139.929L1114.83 124.89Z" fill="white"/>
<path d="M1144.14 161.669L1145.19 171.131C1145.41 173.106 1146.97 174.664 1148.94 174.88L1158.47 175.922L1148.94 176.963C1146.97 177.179 1145.41 178.738 1145.19 180.713L1144.14 190.174L1143.1 180.713C1142.88 178.738 1141.32 177.179 1139.34 176.963L1129.81 175.922L1139.34 174.88C1141.32 174.664 1142.88 173.106 1143.1 171.131L1144.14 161.669Z" fill="white"/>
</g>
</g>
<defs>
<clipPath id="clip0_2947_43">
<rect width="1440" height="477" fill="white"/>
</clipPath>
</defs>
</svg>
