<svg width="1440" height="438" viewBox="0 0 1440 438" fill="none" xmlns="http://www.w3.org/2000/svg">
<rect y="0.0358887" width="1440" height="437.906" fill="#0B017F"/>
<path d="M1243.94 0.0358887H1362.23L1023.7 437.936H905.406L1243.94 0.0358887Z" fill="white" fill-opacity="0.1"/>
<path d="M1093.62 0.0358887H1211.92L873.39 437.936H755.094L1093.62 0.0358887Z" fill="white" fill-opacity="0.1"/>
<g opacity="0.14">
<line x1="35.472" y1="0.0358887" x2="35.472" y2="437.936" stroke="white" stroke-width="1.27207"/>
<line x1="81.7884" y1="0.0358887" x2="81.7884" y2="437.936" stroke="white" stroke-width="1.27207"/>
<line x1="128.105" y1="0.0358887" x2="128.105" y2="437.936" stroke="white" stroke-width="1.27207"/>
<line x1="174.421" y1="0.0358887" x2="174.421" y2="437.936" stroke="white" stroke-width="1.27207"/>
<line x1="220.742" y1="0.0358887" x2="220.741" y2="437.936" stroke="white" stroke-width="1.27207"/>
<line x1="267.058" y1="0.0358887" x2="267.058" y2="437.936" stroke="white" stroke-width="1.27207"/>
<line x1="313.378" y1="0.0358887" x2="313.378" y2="437.936" stroke="white" stroke-width="1.27207"/>
<line x1="359.695" y1="0.0358887" x2="359.695" y2="437.936" stroke="white" stroke-width="1.27207"/>
<line x1="406.015" y1="0.0358887" x2="406.015" y2="437.936" stroke="white" stroke-width="1.27207"/>
<line x1="440.25" y1="35.3399" x2="0.00119013" y2="35.3399" stroke="white" stroke-width="1.27207"/>
<line x1="440.25" y1="81.4102" x2="0.00119013" y2="81.4102" stroke="white" stroke-width="1.27207"/>
<line x1="440.25" y1="127.481" x2="0.00119013" y2="127.481" stroke="white" stroke-width="1.27207"/>
<line x1="440.25" y1="173.551" x2="0.00119013" y2="173.551" stroke="white" stroke-width="1.27207"/>
<line x1="440.25" y1="219.622" x2="0.00119013" y2="219.622" stroke="white" stroke-width="1.27207"/>
<line x1="440.25" y1="265.692" x2="0.00119013" y2="265.692" stroke="white" stroke-width="1.27207"/>
<line x1="440.25" y1="311.763" x2="0.00119013" y2="311.763" stroke="white" stroke-width="1.27207"/>
<line x1="440.25" y1="357.833" x2="0.00119013" y2="357.833" stroke="white" stroke-width="1.27207"/>
<line x1="440.25" y1="403.904" x2="0.00119013" y2="403.904" stroke="white" stroke-width="1.27207"/>
</g>
</svg>
