<svg width="1516" height="511" viewBox="0 0 1516 511" fill="none" xmlns="http://www.w3.org/2000/svg">
<rect x="38.043" y="0.363281" width="1440" height="510.165" fill="#F5F8FB"/>
<g opacity="0.7">
<path d="M1377.36 0H1515.28L1120.6 510.529H982.688L1377.36 0Z" fill="white"/>
</g>
<g opacity="0.7">
<path d="M569.919 0H707.836L313.159 510.529H175.242L569.919 0Z" fill="white"/>
<path d="M394.677 0H532.594L137.917 510.529H0L394.677 0Z" fill="white"/>
</g>
<path opacity="0.3" d="M690.282 174.409L691.943 189.448C692.379 193.399 695.5 196.516 699.451 196.948L714.606 198.604L699.451 200.26C695.5 200.692 692.379 203.809 691.943 207.759L690.282 222.799L688.62 207.759C688.184 203.809 685.063 200.692 681.112 200.26L665.957 198.604L681.112 196.948C685.063 196.516 688.184 193.399 688.62 189.448L690.282 174.409Z" fill="white"/>
<g opacity="0.3">
<path d="M491.285 67.9106L492.947 82.9499C493.383 86.9 496.504 90.0173 500.455 90.4491L515.61 92.1053L500.455 93.7616C496.504 94.1933 493.383 97.3107 492.947 101.261L491.285 116.3L489.624 101.261C489.188 97.3107 486.067 94.1933 482.116 93.7616L466.961 92.1053L482.116 90.4491C486.067 90.0173 489.188 86.9 489.624 82.9499L491.285 67.9106Z" fill="white"/>
<path d="M520.599 104.689L521.644 114.151C521.862 116.126 523.423 117.685 525.398 117.901L534.928 118.942L525.398 119.984C523.423 120.2 521.862 121.758 521.644 123.733L520.599 133.195L519.554 123.733C519.335 121.758 517.775 120.2 515.8 119.984L506.27 118.942L515.8 117.901C517.775 117.685 519.335 116.126 519.554 114.151L520.599 104.689Z" fill="white"/>
</g>
<line x1="79.2649" y1="0.36084" x2="79.2649" y2="510.531" stroke="#EBF0F5" stroke-width="1.27207"/>
<line x1="133.226" y1="0.36084" x2="133.226" y2="510.531" stroke="#EBF0F5" stroke-width="1.27207"/>
<line x1="187.187" y1="0.36084" x2="187.187" y2="510.531" stroke="#EBF0F5" stroke-width="1.27207"/>
<line x1="241.148" y1="0.36084" x2="241.148" y2="510.531" stroke="#EBF0F5" stroke-width="1.27207"/>
<line x1="295.113" y1="0.36084" x2="295.113" y2="510.531" stroke="#EBF0F5" stroke-width="1.27207"/>
<line x1="349.074" y1="0.36084" x2="349.074" y2="510.531" stroke="#EBF0F5" stroke-width="1.27207"/>
<line x1="403.038" y1="0.36084" x2="403.038" y2="510.531" stroke="#EBF0F5" stroke-width="1.27207"/>
<line x1="456.999" y1="0.36084" x2="456.999" y2="510.531" stroke="#EBF0F5" stroke-width="1.27207"/>
<line x1="510.96" y1="0.36084" x2="510.96" y2="510.531" stroke="#EBF0F5" stroke-width="1.27207"/>
<line x1="550.953" y1="41.3865" x2="38.0464" y2="41.3865" stroke="#EBF0F5" stroke-width="1.27207"/>
<line x1="550.953" y1="95.0601" x2="38.0464" y2="95.0601" stroke="#EBF0F5" stroke-width="1.27207"/>
<line x1="550.953" y1="148.734" x2="38.0464" y2="148.734" stroke="#EBF0F5" stroke-width="1.27207"/>
<line x1="550.953" y1="202.408" x2="38.0464" y2="202.408" stroke="#EBF0F5" stroke-width="1.27207"/>
<line x1="550.953" y1="256.082" x2="38.0464" y2="256.082" stroke="#EBF0F5" stroke-width="1.27207"/>
<line x1="550.953" y1="309.756" x2="38.0464" y2="309.756" stroke="#EBF0F5" stroke-width="1.27207"/>
<line x1="550.953" y1="363.429" x2="38.0464" y2="363.429" stroke="#EBF0F5" stroke-width="1.27207"/>
<line x1="550.953" y1="417.104" x2="38.0464" y2="417.104" stroke="#EBF0F5" stroke-width="1.27207"/>
<line x1="550.953" y1="470.778" x2="38.0464" y2="470.778" stroke="#EBF0F5" stroke-width="1.27207"/>
</svg>
