<svg width="677" height="438" viewBox="0 0 677 438" fill="none" xmlns="http://www.w3.org/2000/svg">
<g opacity="0.14">
<line x1="35.472" y1="0.0358887" x2="35.472" y2="437.936" stroke="white" stroke-width="1.27207"/>
<line x1="81.7884" y1="0.0358887" x2="81.7884" y2="437.936" stroke="white" stroke-width="1.27207"/>
<line x1="128.105" y1="0.0358887" x2="128.105" y2="437.936" stroke="white" stroke-width="1.27207"/>
<line x1="174.421" y1="0.0358887" x2="174.421" y2="437.936" stroke="white" stroke-width="1.27207"/>
<line x1="220.742" y1="0.0358887" x2="220.741" y2="437.936" stroke="white" stroke-width="1.27207"/>
<line x1="267.058" y1="0.0358887" x2="267.058" y2="437.936" stroke="white" stroke-width="1.27207"/>
<line x1="313.378" y1="0.0358887" x2="313.378" y2="437.936" stroke="white" stroke-width="1.27207"/>
<line x1="359.695" y1="0.0358887" x2="359.695" y2="437.936" stroke="white" stroke-width="1.27207"/>
<line x1="406.015" y1="0.0358887" x2="406.015" y2="437.936" stroke="white" stroke-width="1.27207"/>
<line x1="440.25" y1="35.3399" x2="0.00119013" y2="35.3399" stroke="white" stroke-width="1.27207"/>
<line x1="440.25" y1="81.4102" x2="0.00119013" y2="81.4102" stroke="white" stroke-width="1.27207"/>
<line x1="440.25" y1="127.481" x2="0.00119013" y2="127.481" stroke="white" stroke-width="1.27207"/>
<line x1="440.25" y1="173.551" x2="0.00119013" y2="173.551" stroke="white" stroke-width="1.27207"/>
<line x1="440.25" y1="219.622" x2="0.00119013" y2="219.622" stroke="white" stroke-width="1.27207"/>
<line x1="440.25" y1="265.692" x2="0.00119013" y2="265.692" stroke="white" stroke-width="1.27207"/>
<line x1="440.25" y1="311.763" x2="0.00119013" y2="311.763" stroke="white" stroke-width="1.27207"/>
<line x1="440.25" y1="357.833" x2="0.00119013" y2="357.833" stroke="white" stroke-width="1.27207"/>
<line x1="440.25" y1="403.904" x2="0.00119013" y2="403.904" stroke="white" stroke-width="1.27207"/>
</g>
<path d="M413.798 181.335C413.402 181.584 413.284 182.107 413.534 182.503C413.785 182.899 414.309 183.019 414.705 182.77L413.798 181.335ZM559.298 178.615L558.505 178.914L559.298 178.615ZM620.984 103.698C621.21 103.289 621.061 102.773 620.65 102.547L613.96 98.8515C613.549 98.6248 613.033 98.7729 612.807 99.1823C612.581 99.5918 612.73 100.108 613.141 100.334L619.088 103.619L615.813 109.55C615.587 109.959 615.736 110.475 616.147 110.701C616.557 110.928 617.073 110.78 617.3 110.371L620.984 103.698ZM417.226 181.282C417.635 181.055 417.781 180.539 417.552 180.13C417.323 179.721 416.806 179.574 416.397 179.801L417.226 181.282ZM421.764 177.081C421.34 177.279 421.157 177.783 421.356 178.207C421.555 178.631 422.06 178.815 422.485 178.617L421.764 177.081ZM427.955 176.237C428.389 176.061 428.596 175.566 428.418 175.133C428.239 174.699 427.744 174.491 427.31 174.668L427.955 176.237ZM432.917 172.506C432.478 172.667 432.252 173.154 432.414 173.593C432.576 174.033 433.064 174.259 433.504 174.098L432.917 172.506ZM439.123 172.146C439.568 171.999 439.808 171.52 439.659 171.075C439.511 170.631 439.03 170.39 438.586 170.537L439.123 172.146ZM444.315 168.728C443.866 168.863 443.614 169.336 443.75 169.784C443.886 170.232 444.36 170.486 444.809 170.351L444.315 168.728ZM450.543 168.7C450.995 168.575 451.259 168.109 451.134 167.658C451.009 167.206 450.541 166.941 450.089 167.065L450.543 168.7ZM455.9 165.539C455.446 165.653 455.171 166.114 455.286 166.568C455.401 167.022 455.862 167.297 456.317 167.183L455.9 165.539ZM462.123 165.798C462.58 165.694 462.865 165.24 462.76 164.783C462.655 164.327 462.2 164.041 461.743 164.145L462.123 165.798ZM467.614 162.879C467.155 162.973 466.86 163.421 466.955 163.879C467.05 164.338 467.499 164.634 467.958 164.54L467.614 162.879ZM473.818 163.412C474.279 163.328 474.585 162.887 474.5 162.427C474.415 161.966 473.973 161.66 473.512 161.744L473.818 163.412ZM479.434 160.741C478.972 160.814 478.656 161.248 478.73 161.71C478.805 162.173 479.24 162.489 479.703 162.416L479.434 160.741ZM485.607 161.558C486.072 161.497 486.397 161.071 486.335 160.607C486.272 160.143 485.844 159.817 485.38 159.878L485.607 161.558ZM491.346 159.163C490.88 159.213 490.544 159.63 490.595 160.096C490.646 160.561 491.064 160.898 491.53 160.848L491.346 159.163ZM497.468 160.298C497.935 160.262 498.283 159.854 498.246 159.387C498.208 158.92 497.799 158.572 497.331 158.608L497.468 160.298ZM503.332 158.23C502.864 158.252 502.503 158.649 502.526 159.117C502.549 159.584 502.948 159.945 503.416 159.923L503.332 158.23ZM509.368 159.745C509.836 159.739 510.211 159.355 510.204 158.887C510.197 158.419 509.812 158.045 509.343 158.05L509.368 159.745ZM515.372 158.097C514.904 158.083 514.514 158.452 514.502 158.919C514.49 159.387 514.86 159.777 515.328 159.791L515.372 158.097ZM521.277 160.098C521.744 160.134 522.151 159.784 522.186 159.318C522.221 158.851 521.87 158.444 521.402 158.408L521.277 160.098ZM527.415 159.036C526.951 158.973 526.524 159.299 526.462 159.762C526.401 160.226 526.728 160.653 527.192 160.716L527.415 159.036ZM533.036 161.709C533.495 161.804 533.944 161.511 534.039 161.052C534.134 160.594 533.838 160.145 533.379 160.05L533.036 161.709ZM539.239 161.542C538.791 161.405 538.317 161.656 538.18 162.104C538.044 162.551 538.297 163.025 538.745 163.163L539.239 161.542ZM544.282 165.217C544.71 165.408 545.212 165.217 545.402 164.79C545.592 164.362 545.399 163.861 544.971 163.67L544.282 165.217ZM550.342 166.588C549.951 166.33 549.424 166.436 549.166 166.826C548.908 167.217 549.016 167.742 549.408 168.001L550.342 166.588ZM553.884 171.687C554.209 172.024 554.747 172.035 555.084 171.711C555.421 171.386 555.431 170.85 555.105 170.512L553.884 171.687ZM558.785 175.486C558.56 175.075 558.044 174.924 557.633 175.148C557.222 175.372 557.071 175.887 557.297 176.298L558.785 175.486ZM559.428 181.555C559.569 182.002 560.046 182.25 560.493 182.109C560.94 181.969 561.187 181.493 561.045 181.047L559.428 181.555ZM562.424 186.562C562.341 186.101 561.9 185.794 561.438 185.876C560.977 185.958 560.67 186.397 560.753 186.858L562.424 186.562ZM561.312 192.322C561.322 192.79 561.709 193.163 562.178 193.154C562.647 193.145 563.019 192.759 563.009 192.291L561.312 192.322ZM562.615 198.011C562.69 197.549 562.376 197.113 561.914 197.037C561.451 196.96 561.015 197.272 560.94 197.734L562.615 198.011ZM559.531 202.981C559.365 203.418 559.585 203.908 560.023 204.076C560.461 204.243 560.951 204.025 561.118 203.588L559.531 202.981ZM558.523 208.736C558.774 208.342 558.658 207.818 558.263 207.565C557.868 207.313 557.343 207.427 557.091 207.822L558.523 208.736ZM553.732 212.089C553.409 212.428 553.423 212.964 553.762 213.287C554.102 213.611 554.639 213.598 554.962 213.26L553.732 212.089ZM550.642 217.049C551.019 216.772 551.098 216.241 550.82 215.864C550.541 215.487 550.01 215.407 549.633 215.684L550.642 217.049ZM544.982 218.567C544.566 218.783 544.405 219.294 544.622 219.71C544.838 220.125 545.351 220.287 545.767 220.072L544.982 218.567ZM540.507 222.335C540.949 222.181 541.181 221.697 541.025 221.255C540.87 220.814 540.385 220.581 539.943 220.735L540.507 222.335ZM534.644 222.192C534.185 222.285 533.889 222.733 533.984 223.191C534.079 223.65 534.528 223.946 534.987 223.852L534.644 222.192ZM529.312 224.618C529.779 224.587 530.132 224.183 530.1 223.716C530.068 223.249 529.662 222.896 529.195 222.927L529.312 224.618ZM523.703 222.907C523.236 222.872 522.829 223.222 522.795 223.688C522.76 224.155 523.111 224.562 523.579 224.597L523.703 222.907ZM517.9 223.72C518.356 223.829 518.813 223.548 518.921 223.093C519.029 222.638 518.747 222.181 518.291 222.072L517.9 223.72ZM513.124 220.331C512.696 220.14 512.194 220.33 512.003 220.757C511.812 221.184 512.004 221.686 512.432 221.877L513.124 220.331ZM507.427 218.948C507.802 219.229 508.334 219.155 508.615 218.781C508.897 218.408 508.821 217.876 508.446 217.594L507.427 218.948ZM504.586 213.84C504.295 213.472 503.762 213.408 503.394 213.697C503.026 213.986 502.963 214.519 503.253 214.887L504.586 213.84ZM500.294 209.866C500.476 210.297 500.973 210.501 501.405 210.32C501.837 210.14 502.04 209.643 501.858 209.211L500.294 209.866ZM500.313 203.92C500.22 203.461 499.773 203.163 499.313 203.254C498.854 203.345 498.556 203.792 498.649 204.251L500.313 203.92ZM497.924 198.434C497.947 198.901 498.345 199.263 498.813 199.241C499.281 199.219 499.642 198.822 499.619 198.355L497.924 198.434ZM499.76 192.745C499.806 192.279 499.465 191.864 498.999 191.817C498.532 191.77 498.117 192.11 498.071 192.575L499.76 192.745ZM499.045 186.812C498.936 187.267 499.218 187.725 499.674 187.834C500.13 187.944 500.587 187.664 500.696 187.209L499.045 186.812ZM502.346 181.819C502.51 181.381 502.286 180.892 501.847 180.728C501.408 180.564 500.919 180.786 500.756 181.224L502.346 181.819ZM503.082 175.892C502.873 176.31 503.043 176.819 503.463 177.029C503.882 177.239 504.392 177.069 504.601 176.651L503.082 175.892ZM507.364 171.713C507.61 171.316 507.487 170.793 507.088 170.546C506.689 170.299 506.166 170.421 505.92 170.819L507.364 171.713ZM509.184 166.001C508.907 166.378 508.988 166.909 509.366 167.186C509.745 167.464 510.276 167.383 510.553 167.006L509.184 166.001ZM514.065 162.561C514.367 162.204 514.321 161.669 513.963 161.367C513.604 161.064 513.069 161.109 512.767 161.466L514.065 162.561ZM516.632 157.165C516.31 157.503 516.324 158.04 516.664 158.363C517.004 158.686 517.541 158.673 517.863 158.334L516.632 157.165ZM521.899 154.315C522.239 153.994 522.253 153.457 521.93 153.117C521.607 152.777 521.07 152.762 520.73 153.084L521.899 154.315ZM525.021 149.209C524.667 149.515 524.628 150.05 524.935 150.404C525.242 150.759 525.778 150.798 526.132 150.493L525.021 149.209ZM530.531 146.855C530.898 146.564 530.958 146.031 530.666 145.664C530.374 145.298 529.84 145.236 529.473 145.527L530.531 146.855ZM534.063 142.024C533.686 142.301 533.606 142.831 533.884 143.208C534.163 143.586 534.694 143.667 535.071 143.39L534.063 142.024ZM539.732 140.086C540.118 139.821 540.216 139.294 539.95 138.908C539.684 138.522 539.156 138.423 538.77 138.687L539.732 140.086ZM543.579 135.505C543.184 135.757 543.071 136.281 543.324 136.676C543.578 137.07 544.103 137.185 544.497 136.933L543.579 135.505ZM549.354 133.921C549.756 133.68 549.884 133.159 549.642 132.758C549.4 132.357 548.878 132.227 548.477 132.468L549.354 133.921ZM553.455 129.567C553.048 129.798 552.905 130.315 553.137 130.722C553.368 131.129 553.887 131.273 554.294 131.043L553.455 129.567ZM559.307 128.289C559.72 128.069 559.875 127.556 559.654 127.143C559.432 126.73 558.917 126.574 558.504 126.794L559.307 128.289ZM563.619 124.142C563.201 124.353 563.034 124.862 563.246 125.28C563.458 125.698 563.969 125.866 564.387 125.655L563.619 124.142ZM569.527 123.134C569.95 122.932 570.128 122.426 569.925 122.004C569.722 121.582 569.215 121.403 568.793 121.604L569.527 123.134ZM574.021 119.176C573.595 119.369 573.406 119.871 573.6 120.297C573.794 120.724 574.298 120.913 574.724 120.72L574.021 119.176ZM579.973 118.41C580.403 118.225 580.601 117.727 580.416 117.297C580.23 116.867 579.731 116.668 579.3 116.852L579.973 118.41ZM584.615 114.633C584.182 114.809 583.974 115.304 584.152 115.737C584.329 116.171 584.825 116.379 585.259 116.203L584.615 114.633ZM590.578 114.096C591.014 113.928 591.231 113.437 591.061 113.001C590.891 112.564 590.4 112.347 589.963 112.515L590.578 114.096ZM595.351 110.49C594.911 110.651 594.686 111.138 594.848 111.577C595.011 112.017 595.499 112.243 595.938 112.082L595.351 110.49ZM601.338 110.156C601.781 110.003 602.014 109.52 601.859 109.078C601.704 108.636 601.22 108.402 600.778 108.555L601.338 110.156ZM606.241 106.708C605.796 106.855 605.555 107.334 605.703 107.778C605.85 108.223 606.331 108.465 606.776 108.318L606.241 106.708ZM612.232 106.57C612.679 106.43 612.928 105.955 612.787 105.508C612.646 105.062 612.17 104.812 611.723 104.952L612.232 106.57ZM617.227 103.282C616.778 103.414 616.522 103.886 616.656 104.335C616.79 104.783 617.262 105.04 617.711 104.907L617.227 103.282ZM414.705 182.77C415.487 182.278 416.329 181.782 417.226 181.282L416.397 179.801C415.477 180.314 414.609 180.825 413.798 181.335L414.705 182.77ZM422.485 178.617C424.192 177.822 426.02 177.027 427.955 176.237L427.31 174.668C425.352 175.467 423.499 176.273 421.764 177.081L422.485 178.617ZM433.504 174.098C435.311 173.438 437.187 172.786 439.123 172.146L438.586 170.537C436.635 171.183 434.742 171.84 432.917 172.506L433.504 174.098ZM444.809 170.351C446.68 169.787 448.593 169.236 450.543 168.7L450.089 167.065C448.126 167.605 446.199 168.16 444.315 168.728L444.809 170.351ZM456.317 167.183C458.227 166.705 460.165 166.242 462.123 165.798L461.743 164.145C459.772 164.592 457.823 165.058 455.9 165.539L456.317 167.183ZM467.958 164.54C469.899 164.144 471.854 163.767 473.818 163.412L473.512 161.744C471.535 162.102 469.567 162.481 467.614 162.879L467.958 164.54ZM479.703 162.416C481.669 162.106 483.639 161.82 485.607 161.558L485.38 159.878C483.397 160.141 481.414 160.43 479.434 160.741L479.703 162.416ZM491.53 160.848C493.519 160.636 495.5 160.452 497.468 160.298L497.331 158.608C495.346 158.764 493.35 158.95 491.346 159.163L491.53 160.848ZM503.416 159.923C505.421 159.829 507.407 159.769 509.368 159.745L509.343 158.05C507.362 158.074 505.356 158.135 503.332 158.23L503.416 159.923ZM515.328 159.791C517.35 159.848 519.335 159.95 521.277 160.098L521.402 158.408C519.432 158.258 517.419 158.155 515.372 158.097L515.328 159.791ZM527.192 160.716C529.205 160.987 531.156 161.317 533.036 161.709L533.379 160.05C531.456 159.648 529.465 159.312 527.415 159.036L527.192 160.716ZM538.745 163.163C540.701 163.762 542.551 164.445 544.282 165.217L544.971 163.67C543.17 162.867 541.254 162.16 539.239 161.542L538.745 163.163ZM549.408 168.001C551.081 169.107 552.579 170.333 553.884 171.687L555.105 170.512C553.705 169.06 552.109 167.756 550.342 166.588L549.408 168.001ZM557.297 176.298C557.755 177.132 558.159 178.004 558.505 178.914L560.091 178.315C559.717 177.332 559.281 176.389 558.785 175.486L557.297 176.298ZM558.505 178.914C558.845 179.808 559.152 180.688 559.428 181.555L561.045 181.047C560.76 180.148 560.443 179.238 560.091 178.315L558.505 178.914ZM560.753 186.858C561.095 188.753 561.276 190.574 561.312 192.322L563.009 192.291C562.971 190.45 562.78 188.54 562.424 186.562L560.753 186.858ZM560.94 197.734C560.637 199.581 560.16 201.331 559.531 202.981L561.118 203.588C561.788 201.83 562.294 199.971 562.615 198.011L560.94 197.734ZM557.091 207.822C556.111 209.355 554.983 210.778 553.732 212.089L554.962 213.26C556.285 211.874 557.481 210.365 558.523 208.736L557.091 207.822ZM549.633 215.684C548.17 216.76 546.612 217.722 544.982 218.567L545.767 220.072C547.471 219.188 549.105 218.18 550.642 217.049L549.633 215.684ZM539.943 220.735C538.212 221.34 536.437 221.826 534.644 222.192L534.987 223.852C536.854 223.472 538.703 222.965 540.507 222.335L539.943 220.735ZM529.195 222.927C527.347 223.05 525.507 223.044 523.703 222.907L523.579 224.597C525.466 224.74 527.386 224.746 529.312 224.618L529.195 222.927ZM518.291 222.072C516.486 221.641 514.753 221.061 513.124 220.331L512.432 221.877C514.165 222.653 515.999 223.266 517.9 223.72L518.291 222.072ZM508.446 217.594C507.001 216.509 505.704 215.258 504.586 213.84L503.253 214.887C504.467 216.426 505.872 217.779 507.427 218.948L508.446 217.594ZM501.858 209.211C501.516 208.399 501.218 207.548 500.97 206.659L499.335 207.11C499.603 208.068 499.923 208.986 500.294 209.866L501.858 209.211ZM500.97 206.659C500.716 205.747 500.497 204.834 500.313 203.92L498.649 204.251C498.841 205.206 499.07 206.159 499.335 207.11L500.97 206.659ZM499.619 198.355C499.528 196.488 499.576 194.618 499.76 192.745L498.071 192.575C497.879 194.529 497.828 196.483 497.924 198.434L499.619 198.355ZM500.696 187.209C501.126 185.412 501.677 183.615 502.346 181.819L500.756 181.224C500.063 183.081 499.491 184.945 499.045 186.812L500.696 187.209ZM504.601 176.651C505.425 175.001 506.347 173.355 507.364 171.713L505.92 170.819C504.877 172.502 503.93 174.193 503.082 175.892L504.601 176.651ZM510.553 167.006C511.647 165.518 512.818 164.036 514.065 162.561L512.767 161.466C511.497 162.968 510.301 164.481 509.184 166.001L510.553 167.006ZM517.863 158.334C519.147 156.986 520.493 155.646 521.899 154.315L520.73 153.084C519.303 154.434 517.937 155.795 516.632 157.165L517.863 158.334ZM526.132 150.493C527.548 149.271 529.015 148.058 530.531 146.855L529.473 145.527C527.94 146.744 526.455 147.972 525.021 149.209L526.132 150.493ZM535.071 143.39C536.583 142.279 538.136 141.177 539.732 140.086L538.77 138.687C537.159 139.789 535.59 140.901 534.063 142.024L535.071 143.39ZM544.497 136.933C546.081 135.919 547.7 134.915 549.354 133.921L548.477 132.468C546.809 133.47 545.176 134.483 543.579 135.505L544.497 136.933ZM554.294 131.043C555.934 130.115 557.606 129.197 559.307 128.289L558.504 126.794C556.791 127.708 555.108 128.633 553.455 129.567L554.294 131.043ZM564.387 125.655C566.074 124.805 567.788 123.964 569.527 123.134L568.793 121.604C567.042 122.44 565.317 123.286 563.619 124.142L564.387 125.655ZM574.724 120.72C576.45 119.94 578.2 119.169 579.973 118.41L579.3 116.852C577.518 117.616 575.758 118.391 574.021 119.176L574.724 120.72ZM585.259 116.203C587.011 115.49 588.784 114.788 590.578 114.096L589.963 112.515C588.16 113.211 586.378 113.917 584.615 114.633L585.259 116.203ZM595.938 112.082C597.72 111.429 599.52 110.788 601.338 110.156L600.778 108.555C598.951 109.19 597.142 109.835 595.351 110.49L595.938 112.082ZM606.776 108.318C608.578 107.725 610.397 107.142 612.232 106.57L611.723 104.952C609.88 105.527 608.052 106.112 606.241 106.708L606.776 108.318ZM617.711 104.907C618.629 104.636 619.551 104.368 620.477 104.102L620.004 102.473C619.075 102.74 618.149 103.01 617.227 103.282L617.711 104.907Z" fill="white"/>
<path opacity="0.3" d="M652.239 153.037L653.9 168.077C654.336 172.027 657.457 175.144 661.408 175.576L676.563 177.232L661.408 178.888C657.457 179.32 654.336 182.437 653.9 186.387L652.239 201.427L650.577 186.387C650.141 182.437 647.02 179.32 643.069 178.888L627.914 177.232L643.069 175.576C647.02 175.144 650.141 172.027 650.577 168.077L652.239 153.037Z" fill="white"/>
<g opacity="0.3">
<path d="M453.242 46.5388L454.904 61.5781C455.34 65.5282 458.461 68.6455 462.412 69.0773L477.567 70.7335L462.412 72.3898C458.461 72.8215 455.34 75.9388 454.904 79.8889L453.242 94.9282L451.581 79.889C451.145 75.9388 448.024 72.8215 444.073 72.3898L428.918 70.7335L444.073 69.0773C448.024 68.6455 451.145 65.5282 451.581 61.5781L453.242 46.5388Z" fill="white"/>
<path d="M482.556 83.3176L483.601 92.7793C483.819 94.7544 485.38 96.3131 487.355 96.5289L496.885 97.5704L487.355 98.6119C485.38 98.8278 483.819 100.386 483.601 102.362L482.556 111.823L481.511 102.362C481.293 100.386 479.732 98.8278 477.757 98.6119L468.227 97.5704L477.757 96.5289C479.732 96.3131 481.293 94.7544 481.511 92.7793L482.556 83.3176Z" fill="white"/>
</g>
</svg>
