<svg width="20" height="19" viewBox="0 0 20 19" fill="none" xmlns="http://www.w3.org/2000/svg">
<path opacity="0.4" d="M9.78094 3.17076V18.4238C9.61919 18.4238 9.44789 18.3953 9.3147 18.3191L9.27664 18.3001C7.4497 17.301 4.26206 16.2543 2.19725 15.9784L1.92129 15.9403C1.00782 15.8261 0.265625 14.9698 0.265625 14.0563V2.56178C0.265625 1.42944 1.18861 0.573081 2.32093 0.668234C4.31915 0.829994 7.34502 1.83862 9.03874 2.8948L9.27664 3.03755C9.41936 3.12317 9.60013 3.17076 9.78094 3.17076Z" fill="#0B017F"/>
<path d="M19.2966 2.57162V14.0566C19.2966 14.9701 18.5544 15.8264 17.6409 15.9406L17.3269 15.9787C15.2526 16.2546 12.0554 17.3108 10.2285 18.3195C10.1048 18.3956 9.95253 18.4241 9.78125 18.4241V3.17107C9.96206 3.17107 10.1428 3.12351 10.2855 3.03786L10.4473 2.93321C12.141 1.86749 15.1764 0.849346 17.1747 0.67807H17.2318C18.3641 0.582917 19.2966 1.42979 19.2966 2.57162Z" fill="#0B017F"/>
<path d="M5.73748 6.92026H3.59647C3.20631 6.92026 2.88281 6.59673 2.88281 6.20657C2.88281 5.81645 3.20631 5.49292 3.59647 5.49292H5.73748C6.12761 5.49292 6.45114 5.81645 6.45114 6.20657C6.45114 6.59673 6.12761 6.92026 5.73748 6.92026Z" fill="#0B017F"/>
<path d="M6.45104 9.77501H3.59645C3.2063 9.77501 2.88281 9.45149 2.88281 9.06135C2.88281 8.67124 3.2063 8.34772 3.59645 8.34772H6.45104C6.84118 8.34772 7.16467 8.67124 7.16467 9.06135C7.16467 9.45149 6.84118 9.77501 6.45104 9.77501Z" fill="#0B017F"/>
</svg>
