<svg width="1441" height="511" viewBox="0 0 1441 511" fill="none" xmlns="http://www.w3.org/2000/svg">
<rect x="0.0429688" y="0.363281" width="1440" height="510.165" fill="#F5F8FB"/>
<g opacity="0.7">
<path d="M1308.94 0H1440L1064.93 511H933.867L1308.94 0Z" fill="white"/>
</g>
<g opacity="0.7">
<path d="M541.604 0H672.669L297.6 511H166.535L541.604 0Z" fill="white"/>
<path d="M375.069 0H506.134L131.065 511H0L375.069 0Z" fill="white"/>
</g>
<path opacity="0.3" d="M652.282 174.409L653.943 189.448C654.379 193.399 657.5 196.516 661.451 196.948L676.606 198.604L661.451 200.26C657.5 200.692 654.379 203.809 653.943 207.759L652.282 222.799L650.62 207.759C650.184 203.809 647.063 200.692 643.112 200.26L627.957 198.604L643.112 196.948C647.063 196.516 650.184 193.399 650.62 189.448L652.282 174.409Z" fill="white"/>
<g opacity="0.3">
<path d="M453.285 67.9106L454.947 82.9499C455.383 86.9 458.504 90.0173 462.455 90.4491L477.61 92.1053L462.455 93.7616C458.504 94.1933 455.383 97.3107 454.947 101.261L453.285 116.3L451.624 101.261C451.188 97.3107 448.067 94.1933 444.116 93.7616L428.961 92.1053L444.116 90.4491C448.067 90.0173 451.188 86.9 451.624 82.9499L453.285 67.9106Z" fill="white"/>
<path d="M482.599 104.689L483.644 114.151C483.862 116.126 485.423 117.685 487.398 117.901L496.928 118.942L487.398 119.984C485.423 120.2 483.862 121.758 483.644 123.733L482.599 133.195L481.554 123.733C481.335 121.758 479.775 120.2 477.8 119.984L468.27 118.942L477.8 117.901C479.775 117.685 481.335 116.126 481.554 114.151L482.599 104.689Z" fill="white"/>
</g>
<line x1="41.2649" y1="0.36084" x2="41.2649" y2="510.531" stroke="#EBF0F5" stroke-width="1.27207"/>
<line x1="95.2259" y1="0.36084" x2="95.2259" y2="510.531" stroke="#EBF0F5" stroke-width="1.27207"/>
<line x1="149.187" y1="0.36084" x2="149.187" y2="510.531" stroke="#EBF0F5" stroke-width="1.27207"/>
<line x1="203.148" y1="0.36084" x2="203.148" y2="510.531" stroke="#EBF0F5" stroke-width="1.27207"/>
<line x1="257.113" y1="0.36084" x2="257.113" y2="510.531" stroke="#EBF0F5" stroke-width="1.27207"/>
<line x1="311.074" y1="0.36084" x2="311.074" y2="510.531" stroke="#EBF0F5" stroke-width="1.27207"/>
<line x1="365.038" y1="0.36084" x2="365.038" y2="510.531" stroke="#EBF0F5" stroke-width="1.27207"/>
<line x1="418.999" y1="0.36084" x2="418.999" y2="510.531" stroke="#EBF0F5" stroke-width="1.27207"/>
<line x1="472.96" y1="0.36084" x2="472.96" y2="510.531" stroke="#EBF0F5" stroke-width="1.27207"/>
<line x1="512.953" y1="41.3865" x2="0.0463867" y2="41.3865" stroke="#EBF0F5" stroke-width="1.27207"/>
<line x1="512.953" y1="95.0601" x2="0.0463867" y2="95.0601" stroke="#EBF0F5" stroke-width="1.27207"/>
<line x1="512.953" y1="148.734" x2="0.0463867" y2="148.734" stroke="#EBF0F5" stroke-width="1.27207"/>
<line x1="512.953" y1="202.408" x2="0.0463867" y2="202.408" stroke="#EBF0F5" stroke-width="1.27207"/>
<line x1="512.953" y1="256.082" x2="0.0463867" y2="256.082" stroke="#EBF0F5" stroke-width="1.27207"/>
<line x1="512.953" y1="309.756" x2="0.0463867" y2="309.756" stroke="#EBF0F5" stroke-width="1.27207"/>
<line x1="512.953" y1="363.429" x2="0.0463867" y2="363.429" stroke="#EBF0F5" stroke-width="1.27207"/>
<line x1="512.953" y1="417.104" x2="0.0463867" y2="417.104" stroke="#EBF0F5" stroke-width="1.27207"/>
<line x1="512.953" y1="470.778" x2="0.0463867" y2="470.778" stroke="#EBF0F5" stroke-width="1.27207"/>
</svg>
