<svg width="62" height="60" viewBox="0 0 62 60" fill="none" xmlns="http://www.w3.org/2000/svg">
<path d="M22.4277 15.7118L23.7222 27.4931C24.234 32.1513 27.912 35.8293 32.5702 36.3412L44.3516 37.6356L32.5702 38.93C27.912 39.4418 24.234 43.1198 23.7222 47.7781L22.4277 59.5594L21.1333 47.7781C20.6215 43.1198 16.9435 39.4418 12.2853 38.93L0.503906 37.6356L12.2853 36.3412C16.9435 35.8293 20.6215 32.1513 21.1333 27.4931L22.4277 15.7118Z" fill="#66D764"/>
<path d="M48.7447 0L49.5239 7.09221C49.7798 9.42132 51.6188 11.2603 53.9479 11.5162L61.0401 12.2955L53.9479 13.0747C51.6188 13.3306 49.7798 15.1696 49.5239 17.4987L48.7447 24.5909L47.9654 17.4987C47.7095 15.1696 45.8705 13.3306 43.5414 13.0747L36.4492 12.2955L43.5414 11.5162C45.8705 11.2603 47.7095 9.42132 47.9654 7.09221L48.7447 0Z" fill="#77DBE0"/>
</svg>
