<svg width="34" height="34" viewBox="0 0 34 34" fill="none" xmlns="http://www.w3.org/2000/svg">
<rect x="0.964844" y="0.727051" width="32.3062" height="32.3062" rx="16.1531" stroke="#1877F2"/>
<path d="M26.5198 16.88C26.5198 11.6872 22.3101 7.47754 17.1173 7.47754C11.9245 7.47754 7.71484 11.6872 7.71484 16.88C7.71484 21.573 11.1532 25.4629 15.6482 26.1682V19.5979H13.2608V16.88H15.6482V14.8085C15.6482 12.452 17.0519 11.1504 19.1997 11.1504C20.2283 11.1504 21.3043 11.334 21.3043 11.334V13.6479H20.1187C18.9507 13.6479 18.5864 14.3727 18.5864 15.1163V16.88H21.1941L20.7773 19.5979H18.5864V26.1682C23.0814 25.4629 26.5198 21.5731 26.5198 16.88Z" fill="#1877F2"/>
<path d="M20.7743 19.5979L21.1911 16.88H18.5834V15.1163C18.5834 14.3726 18.9477 13.6479 20.1157 13.6479H21.3013V11.334C21.3013 11.334 20.2253 11.1504 19.1966 11.1504C17.0489 11.1504 15.6452 12.452 15.6452 14.8085V16.88H13.2578V19.5979H15.6452V26.1682C16.1312 26.2444 16.6224 26.2826 17.1143 26.2825C17.6062 26.2826 18.0974 26.2444 18.5834 26.1682V19.5979H20.7743Z" fill="white"/>
</svg>
