<svg width="1728" height="1117" viewBox="0 0 1728 1117" fill="none" xmlns="http://www.w3.org/2000/svg">
<rect width="1728" height="1117" fill="white" fill-opacity="0.79"/>
<circle cx="858" cy="558" r="500" fill="#EEEEEE" fill-opacity="0.2"/>
<circle cx="858" cy="558" r="500" fill="#F5F5F5" fill-opacity="0.31"/>
<circle cx="856" cy="549" r="425" fill="#EEEEEE" fill-opacity="0.2"/>
<circle cx="856" cy="549" r="425" fill="white"/>
<circle cx="856" cy="549" r="425" fill="white"/>
<circle cx="856" cy="548" r="400" fill="#EEEEEE" fill-opacity="0.2"/>
<circle cx="856" cy="548" r="400" fill="#EEEEEE" fill-opacity="0.2"/>
<circle cx="856" cy="548" r="400" fill="#EEEEEE" fill-opacity="0.2"/>
<g opacity="0.2" clip-path="url(#clip0_1_2)" filter="url(#filter0_i_1_2)">
<path d="M732.1 527C714.375 527 700 545.137 700 567.5C700 577.243 702.698 586.165 707.257 593.15L757.408 542.496C751.546 533.046 742.382 527 732.1 527Z" fill="#0B017F"/>
<path d="M707.257 593.15C713.166 602.248 722.098 608 732.147 608C749.872 608 764.247 589.863 764.247 567.5C764.247 558.05 761.688 549.363 757.408 542.496L707.257 593.15Z" fill="#F79838"/>
<path d="M749.918 558.754H722.005C719.121 558.754 716.748 555.761 716.748 552.122V542.085H744.708C747.592 542.085 749.965 545.078 749.965 548.717L749.918 558.754Z" fill="white"/>
<path d="M736.566 563.039H735.217C724.889 563.039 716.515 573.604 716.515 586.635V588.865V597.728C716.515 598.902 717.26 599.841 718.19 599.841H728.053C728.983 599.841 729.728 598.902 729.728 597.728V586.283C729.728 582.643 732.054 579.65 734.985 579.65H743.405C747.034 579.65 749.918 575.952 749.918 571.433V563.039H736.566Z" fill="white"/>
<path d="M778.622 531.05C778.622 528.996 779.832 528.878 781.507 528.878C786.764 528.878 791.881 529.289 797.091 529.289C797.836 529.289 798.534 530.052 798.534 530.991V538.387C798.534 539.561 797.929 540.441 796.905 540.441H788.997C788.392 540.441 787.043 540.852 787.043 541.967V568.263C787.043 568.791 787.647 569.32 787.973 569.437H789.741C793.137 569.437 794.579 569.554 794.579 573.193C794.579 574.367 794.672 575.541 794.672 576.715C794.672 578.946 794.44 580.765 793.044 580.765C791.602 580.765 790.16 580.12 788.81 580.12C787.554 580.12 787.461 580.883 787.461 582.291C787.461 587.75 787.368 593.15 787.368 598.491C787.368 600.663 785.833 600.957 784.391 600.957H781.507C779.971 600.957 778.11 600.663 778.11 598.726L778.622 531.05Z" fill="black"/>
<path d="M806.582 539.209V537.448C806.768 536.333 808.024 536.274 808.955 536.274H810.211C811.746 536.274 812.49 536.567 814.444 536.567C815.654 536.567 815.654 540.617 815.654 543.376L816.165 589.687L816.863 590.45H824.958C825.702 590.45 826.493 591.33 826.493 592.152V598.491C826.493 600.076 825.377 600.37 824.26 600.487C823.423 600.604 821.283 600.663 818.91 600.663C815.747 600.663 812.025 600.546 810.815 600.546H808.443C807.931 600.252 807.698 599.43 807.698 598.843C807.466 577.302 806.582 560.867 806.582 539.209Z" fill="black"/>
<path d="M831.843 543.083C831.936 540.911 832.029 537.859 834.216 537.859H834.309L839.333 538.152C839.845 538.152 840.683 538.622 840.776 539.267V544.726C840.776 546.604 840.683 548.483 840.683 552.533V561.807C840.683 575.072 841.008 591.096 845.288 591.096C847.056 591.096 848.684 589.1 849.01 586.928C850.22 581.998 849.94 577.948 850.638 540.911C850.638 539.62 851.569 539.15 852.499 538.915H856.5C858.035 538.915 859.57 539.209 859.57 541.498C859.384 543.493 859.384 546.37 859.384 549.598V556.7C859.198 582.115 858.64 601.896 846.126 601.896C832.588 601.896 831.843 585.754 831.843 571.315V543.435V543.083Z" fill="black"/>
<path d="M871.201 535.57H878.086C879.528 535.57 886.414 535.687 887.763 535.746C888.368 535.922 888.6 536.215 888.786 536.861C888.879 539.15 888.879 541.322 888.879 543.904C888.786 544.902 888.693 545.783 887.251 545.783H878.086L877.342 546.663L877.854 562.98L885.018 563.274C886.041 563.391 886.274 565.328 886.274 567.441V568.263L886.041 570.611C886.041 571.433 885.855 572.665 884.832 572.665H878.365C878.272 572.665 878.133 572.841 877.947 572.959L877.714 573.252L878.133 588.513C878.319 589.628 878.738 590.391 879.854 590.391H888.972C890.415 590.391 890.694 591.683 890.694 593.091L890.275 598.726C890.182 599.43 889.577 600.135 889.019 600.311L871.061 601.074C870.131 601.074 869.107 599.665 869.107 576.128C869.107 569.789 869.014 563.45 869.014 556.935C869.014 550.42 869.107 543.787 869.247 536.861C869.526 535.863 870.364 535.57 871.201 535.57Z" fill="black"/>
<path d="M907.535 553.941C907.349 553.941 907.302 555.937 907.302 559.165C907.302 567.559 907.721 584.698 907.721 600.311C907.721 602.483 906.279 602.776 904.836 602.776C904.325 602.776 903.813 602.659 903.301 602.659C902.975 602.659 902.278 602.776 901.673 602.776C900.463 602.776 899.207 602.483 898.975 601.367L898.882 572.959C898.882 564.741 898.649 556.407 898.649 548.248C898.649 546.78 898.742 540.03 898.742 538.563C898.835 537.8 899.254 537.096 900.091 537.096H910.047C910.745 537.096 911.582 537.389 911.582 538.211L923.306 583.7L921.352 538.27C921.584 537.565 922.189 536.978 922.887 536.978H928.842C929.26 536.978 929.958 537.272 930.098 537.8V538.387C930.098 541.85 930.61 552.063 930.61 558.872C930.61 562.041 931.028 579.18 931.028 590.802C931.028 597.141 930.842 601.954 930.517 601.954H921.863C921.119 601.954 920.514 601.25 920.142 600.487L907.535 553.941Z" fill="black"/>
<path d="M948.427 551.359V548.717C948.427 548.541 948.009 547.015 947.497 547.015L941.868 547.133C940.333 547.133 940.333 546.017 940.333 544.374V543.493C940.333 539.561 940.426 537.154 943.403 537.154H944.659C947.73 537.154 958.197 537.272 961.175 537.33C961.593 537.33 963.221 537.507 963.547 537.624C964.478 537.741 964.757 539.326 964.757 540.793C964.757 541.498 964.664 542.202 964.664 542.672V544.139C964.664 545.9 963.919 547.485 962.803 547.485L956.755 547.896L956.848 599.137C956.848 600.252 956.615 601.896 955.592 601.896H949.916C949.172 601.896 948.381 601.309 948.381 600.017C948.381 583.817 948.427 567.617 948.427 551.359Z" fill="black"/>
<path d="M993.507 535.57H1000.39C1001.83 535.57 1008.72 535.687 1010.07 535.746C1010.67 535.922 1010.91 536.215 1011.09 536.861C1011.19 539.15 1011.19 541.322 1011.19 543.904C1011.09 544.902 1011 545.783 1009.56 545.783H1000.39L999.648 546.663L1000.16 562.98L1007.32 563.274C1008.35 563.391 1008.58 565.328 1008.58 567.441V568.263L1008.35 570.611C1008.35 571.433 1008.16 572.665 1007.14 572.665H1000.67C1000.58 572.665 1000.44 572.841 1000.25 572.959L1000.02 573.252L1000.44 588.513C1000.63 589.628 1001.04 590.391 1002.16 590.391H1011.28C1012.72 590.391 1013 591.683 1013 593.091L1012.58 598.726C1012.49 599.43 1011.88 600.135 1011.33 600.311L993.368 601.074C992.437 601.074 991.414 599.665 991.414 576.128C991.414 569.789 991.321 563.45 991.321 556.935C991.321 550.42 991.414 543.787 991.553 536.861C991.832 535.863 992.67 535.57 993.507 535.57Z" fill="black"/>
<path d="M972.107 585.696C972.107 591.037 972.293 595.498 972.526 600.135C972.526 600.898 973.038 601.837 973.782 601.837L979.039 600.957C980.388 600.78 980.667 599.665 980.667 598.491L981.319 567.324C978.667 567.852 975.41 569.32 972.386 570.963C972.2 576.657 972.107 581.47 972.107 585.696Z" fill="#0B017F"/>
<path d="M980.528 537.33H974.992C974.294 537.33 973.735 538.035 973.735 538.739C973.317 546.663 973.038 553.354 972.805 559.341C972.665 563.626 972.526 567.5 972.386 571.022C975.41 569.378 978.667 567.911 981.319 567.383L981.877 539.561C981.877 538.446 981.598 537.33 980.528 537.33Z" fill="#F79838"/>
</g>
<defs>
<filter id="filter0_i_1_2" x="700" y="527" width="313" height="85" filterUnits="userSpaceOnUse" color-interpolation-filters="sRGB">
<feFlood flood-opacity="0" result="BackgroundImageFix"/>
<feBlend mode="normal" in="SourceGraphic" in2="BackgroundImageFix" result="shape"/>
<feColorMatrix in="SourceAlpha" type="matrix" values="0 0 0 0 0 0 0 0 0 0 0 0 0 0 0 0 0 0 127 0" result="hardAlpha"/>
<feOffset dy="4"/>
<feGaussianBlur stdDeviation="2"/>
<feComposite in2="hardAlpha" operator="arithmetic" k2="-1" k3="1"/>
<feColorMatrix type="matrix" values="0 0 0 0 0 0 0 0 0 0 0 0 0 0 0 0 0 0 0.25 0"/>
<feBlend mode="normal" in2="shape" result="effect1_innerShadow_1_2"/>
</filter>
<clipPath id="clip0_1_2">
<rect width="313" height="81" fill="white" transform="translate(700 527)"/>
</clipPath>
</defs>
</svg>
