<svg width="26" height="26" viewBox="0 0 26 26" fill="none" xmlns="http://www.w3.org/2000/svg">
<path d="M11.5562 2.3436C12.1943 1.3292 13.6729 1.3292 14.311 2.3436C14.7776 3.08525 15.7476 3.32434 16.5054 2.88447C17.5419 2.28283 18.8511 2.96996 18.9448 4.16473C19.0132 5.03826 19.761 5.70076 20.6365 5.66343C21.8338 5.61238 22.6737 6.82922 22.2014 7.93066C21.8561 8.73595 22.2104 9.67009 23.0028 10.0439C24.0868 10.5551 24.265 12.0229 23.3349 12.7787C22.6549 13.3312 22.5345 14.323 23.0625 15.0223C23.7847 15.9787 23.2604 17.3611 22.0856 17.5981C21.2267 17.7714 20.6591 18.5936 20.8017 19.4581C20.9967 20.6406 19.89 21.6211 18.7397 21.285C17.8986 21.0392 17.014 21.5035 16.7385 22.3353C16.3616 23.4729 14.926 23.8267 14.0636 22.9945C13.4331 22.3861 12.4341 22.3861 11.8036 22.9945C10.9412 23.8267 9.50558 23.4729 9.12872 22.3353C8.8532 21.5035 7.96857 21.0392 7.12753 21.285C5.97719 21.6211 4.87046 20.6406 5.06547 19.4581C5.20804 18.5936 4.64051 17.7714 3.7816 17.5981C2.60683 17.3611 2.08252 15.9787 2.8047 15.0223C3.33271 14.323 3.21229 13.3312 2.53228 12.7787C1.6022 12.0229 1.78042 10.5551 2.86434 10.0439C3.65683 9.67009 4.0111 8.73595 3.66578 7.93066C3.19346 6.82922 4.03339 5.61238 5.23073 5.66343C6.10615 5.70076 6.85395 5.03826 6.92242 4.16473C7.01607 2.96996 8.32528 2.28283 9.36175 2.88447C10.1195 3.32434 11.0896 3.08525 11.5562 2.3436Z" fill="#66D764"/>
<path d="M8.25391 12.877L11.3756 15.9987L17.619 9.30933" stroke="white" stroke-width="1.6" stroke-linecap="round" stroke-linejoin="round"/>
</svg>
