<svg width="800" height="800" viewBox="0 0 800 800" fill="none" xmlns="http://www.w3.org/2000/svg">
<circle cx="400" cy="400" r="400" fill="#EEEEEE" fill-opacity="0.14"/>
<circle cx="400" cy="400" r="400" fill="#C1C1C1" fill-opacity="0.19"/>
<ellipse cx="398.126" cy="397.193" rx="389.696" ry="389.708" fill="#EEEEEE" fill-opacity="0.14"/>
<ellipse cx="398.126" cy="397.193" rx="389.696" ry="389.708" fill="#F9F9F9" fill-opacity="0.34"/>
<ellipse cx="398.595" cy="397.661" rx="325.527" ry="325.614" fill="#EEEEEE" fill-opacity="0.18"/>
<ellipse cx="398.595" cy="397.661" rx="325.527" ry="325.614" fill="#F5F5F5" fill-opacity="0.43"/>
<ellipse cx="397.658" cy="392.515" rx="276.815" ry="276.491" fill="#EEEEEE" fill-opacity="0.14"/>
<ellipse cx="397.658" cy="392.515" rx="276.815" ry="276.491" fill="white"/>
<ellipse cx="397.658" cy="392.515" rx="276.815" ry="276.491" fill="white"/>
<ellipse cx="397.658" cy="391.111" rx="259.953" ry="260.117" fill="#EEEEEE" fill-opacity="0.14"/>
<ellipse cx="397.658" cy="391.111" rx="259.953" ry="260.117" fill="#EEEEEE" fill-opacity="0.14"/>
<ellipse cx="397.658" cy="391.111" rx="259.953" ry="260.117" fill="#EEEEEE" fill-opacity="0.14"/>
<g opacity="0.79" clip-path="url(#clip0_2_33)" filter="url(#filter0_i_2_33)">
<path d="M316.866 377.076C305.355 377.076 296.019 389.018 296.019 403.743C296.019 410.158 297.771 416.033 300.732 420.632L333.303 387.279C329.496 381.057 323.544 377.076 316.866 377.076Z" fill="#0B017F"/>
<path d="M300.732 420.632C304.569 426.622 310.37 430.409 316.897 430.409C328.408 430.409 337.744 418.467 337.744 403.743C337.744 397.52 336.082 391.801 333.303 387.279L300.732 420.632Z" fill="#F79838"/>
<path d="M328.438 397.984H310.31C308.437 397.984 306.896 396.013 306.896 393.617V387.008H325.054C326.928 387.008 328.468 388.979 328.468 391.376L328.438 397.984Z" fill="white"/>
<path d="M319.767 400.806H318.891C312.183 400.806 306.745 407.762 306.745 416.342V417.81V423.646C306.745 424.419 307.228 425.037 307.832 425.037H314.238C314.842 425.037 315.325 424.419 315.325 423.646V416.11C315.325 413.714 316.836 411.743 318.74 411.743H324.208C326.565 411.743 328.438 409.308 328.438 406.332V400.806H319.767Z" fill="white"/>
<path d="M347.08 379.743C347.08 378.39 347.866 378.313 348.953 378.313C352.368 378.313 355.691 378.583 359.075 378.583C359.558 378.583 360.012 379.086 360.012 379.704V384.574C360.012 385.347 359.619 385.926 358.954 385.926H353.818C353.425 385.926 352.549 386.197 352.549 386.931V404.245C352.549 404.593 352.942 404.941 353.153 405.018H354.301C356.507 405.018 357.443 405.095 357.443 407.492C357.443 408.264 357.504 409.037 357.504 409.81C357.504 411.279 357.353 412.477 356.446 412.477C355.51 412.477 354.573 412.052 353.697 412.052C352.881 412.052 352.821 412.554 352.821 413.482C352.821 417.076 352.76 420.632 352.76 424.149C352.76 425.578 351.763 425.772 350.827 425.772H348.953C347.956 425.772 346.748 425.578 346.748 424.303L347.08 379.743Z" fill="black"/>
<path d="M365.239 385.115V383.955C365.36 383.221 366.175 383.182 366.78 383.182H367.595C368.592 383.182 369.076 383.376 370.345 383.376C371.13 383.376 371.13 386.042 371.13 387.859L371.463 418.351L371.916 418.854H377.173C377.657 418.854 378.17 419.434 378.17 419.975V424.149C378.17 425.192 377.445 425.385 376.72 425.463C376.176 425.54 374.786 425.578 373.245 425.578C371.191 425.578 368.774 425.501 367.988 425.501H366.447C366.115 425.308 365.964 424.767 365.964 424.38C365.813 410.197 365.239 399.376 365.239 385.115Z" fill="black"/>
<path d="M381.645 387.665C381.705 386.235 381.766 384.226 383.186 384.226H383.246L386.509 384.419C386.842 384.419 387.385 384.728 387.446 385.153V388.748C387.446 389.984 387.385 391.221 387.385 393.888V399.994C387.385 408.728 387.597 419.279 390.377 419.279C391.525 419.279 392.582 417.965 392.794 416.535C393.579 413.289 393.398 410.622 393.851 386.235C393.851 385.385 394.455 385.076 395.06 384.921H397.658C398.655 384.921 399.652 385.115 399.652 386.622C399.531 387.936 399.531 389.83 399.531 391.955V396.632C399.411 413.366 399.048 426.39 390.92 426.39C382.128 426.39 381.645 415.762 381.645 406.255V387.897V387.665Z" fill="black"/>
<path d="M407.206 382.719H411.677C412.614 382.719 417.086 382.796 417.962 382.835C418.355 382.95 418.506 383.144 418.627 383.569C418.687 385.076 418.687 386.506 418.687 388.206C418.627 388.863 418.566 389.443 417.629 389.443H411.677L411.194 390.023L411.526 400.767L416.179 400.96C416.844 401.037 416.995 402.313 416.995 403.704V404.245L416.844 405.791C416.844 406.332 416.723 407.144 416.058 407.144H411.859C411.798 407.144 411.708 407.26 411.587 407.337L411.436 407.53L411.708 417.578C411.828 418.313 412.1 418.815 412.825 418.815H418.747C419.684 418.815 419.865 419.665 419.865 420.593L419.593 424.303C419.533 424.767 419.14 425.231 418.778 425.347L407.115 425.849C406.511 425.849 405.846 424.921 405.846 409.424C405.846 405.25 405.786 401.076 405.786 396.786C405.786 392.496 405.846 388.129 405.937 383.569C406.118 382.912 406.662 382.719 407.206 382.719Z" fill="black"/>
<path d="M430.803 394.815C430.682 394.815 430.652 396.129 430.652 398.255C430.652 403.781 430.924 415.066 430.924 425.347C430.924 426.777 429.987 426.97 429.05 426.97C428.718 426.97 428.386 426.892 428.053 426.892C427.842 426.892 427.389 426.97 426.996 426.97C426.21 426.97 425.394 426.777 425.243 426.042L425.183 407.337C425.183 401.926 425.032 396.438 425.032 391.066C425.032 390.1 425.092 385.656 425.092 384.69C425.153 384.187 425.425 383.723 425.968 383.723H432.434C432.887 383.723 433.431 383.917 433.431 384.458L441.045 414.409L439.776 384.496C439.927 384.033 440.32 383.646 440.773 383.646H444.641C444.913 383.646 445.366 383.839 445.456 384.187V384.574C445.456 386.854 445.789 393.578 445.789 398.062C445.789 400.149 446.061 411.434 446.061 419.086C446.061 423.26 445.94 426.429 445.728 426.429H440.109C439.625 426.429 439.232 425.965 438.991 425.463L430.803 394.815Z" fill="black"/>
<path d="M457.361 393.115V391.376C457.361 391.26 457.089 390.255 456.756 390.255L453.101 390.332C452.103 390.332 452.103 389.598 452.103 388.516V387.936C452.103 385.347 452.164 383.762 454.098 383.762H454.913C456.907 383.762 463.706 383.839 465.639 383.878C465.911 383.878 466.969 383.994 467.18 384.071C467.784 384.149 467.966 385.192 467.966 386.158C467.966 386.622 467.905 387.086 467.905 387.395V388.361C467.905 389.52 467.422 390.564 466.697 390.564L462.769 390.835L462.829 424.574C462.829 425.308 462.678 426.39 462.014 426.39H458.328C457.844 426.39 457.33 426.004 457.33 425.153C457.33 414.487 457.361 403.82 457.361 393.115Z" fill="black"/>
<path d="M486.638 382.719H491.11C492.046 382.719 496.518 382.796 497.394 382.835C497.787 382.95 497.938 383.144 498.059 383.569C498.119 385.076 498.119 386.506 498.119 388.206C498.059 388.863 497.998 389.443 497.062 389.443H491.11L490.626 390.023L490.958 400.767L495.611 400.96C496.276 401.037 496.427 402.313 496.427 403.704V404.245L496.276 405.791C496.276 406.332 496.155 407.144 495.491 407.144H491.291C491.23 407.144 491.14 407.26 491.019 407.337L490.868 407.53L491.14 417.578C491.261 418.313 491.532 418.815 492.258 418.815H498.18C499.116 418.815 499.297 419.665 499.297 420.593L499.026 424.303C498.965 424.767 498.572 425.231 498.21 425.347L486.547 425.849C485.943 425.849 485.278 424.921 485.278 409.424C485.278 405.25 485.218 401.076 485.218 396.786C485.218 392.496 485.278 388.129 485.369 383.569C485.55 382.912 486.094 382.719 486.638 382.719Z" fill="black"/>
<path d="M472.74 415.723C472.74 419.24 472.86 422.178 473.011 425.231C473.011 425.733 473.344 426.351 473.827 426.351L477.241 425.772C478.118 425.656 478.299 424.921 478.299 424.149L478.722 403.627C477 403.975 474.885 404.941 472.921 406.023C472.8 409.772 472.74 412.941 472.74 415.723Z" fill="#0B017F"/>
<path d="M478.208 383.878H474.613C474.16 383.878 473.797 384.342 473.797 384.806C473.525 390.023 473.344 394.429 473.193 398.371C473.102 401.192 473.011 403.743 472.921 406.062C474.885 404.979 477 404.013 478.722 403.665L479.084 385.347C479.084 384.612 478.903 383.878 478.208 383.878Z" fill="#F79838"/>
</g>
<defs>
<filter id="filter0_i_2_33" x="296.019" y="377.076" width="203.279" height="57.3333" filterUnits="userSpaceOnUse" color-interpolation-filters="sRGB">
<feFlood flood-opacity="0" result="BackgroundImageFix"/>
<feBlend mode="normal" in="SourceGraphic" in2="BackgroundImageFix" result="shape"/>
<feColorMatrix in="SourceAlpha" type="matrix" values="0 0 0 0 0 0 0 0 0 0 0 0 0 0 0 0 0 0 127 0" result="hardAlpha"/>
<feOffset dy="4"/>
<feGaussianBlur stdDeviation="2"/>
<feComposite in2="hardAlpha" operator="arithmetic" k2="-1" k3="1"/>
<feColorMatrix type="matrix" values="0 0 0 0 0 0 0 0 0 0 0 0 0 0 0 0 0 0 0.25 0"/>
<feBlend mode="normal" in2="shape" result="effect1_innerShadow_2_33"/>
</filter>
<clipPath id="clip0_2_33">
<rect width="203.279" height="53.3333" fill="white" transform="translate(296.019 377.076)"/>
</clipPath>
</defs>
</svg>
