<svg width="204" height="54" viewBox="0 0 204 54" fill="none" xmlns="http://www.w3.org/2000/svg">
<g opacity="0.79" clip-path="url(#clip0_1_3)" filter="url(#filter0_i_1_3)">
<path d="M20.8663 0.0760498C9.35484 0.0760498 0.0187683 12.0181 0.0187683 26.7427C0.0187683 33.1582 1.77117 39.0326 4.73213 43.6316L37.3026 10.2789C33.4957 4.05673 27.5436 0.0760498 20.8663 0.0760498Z" fill="#0B017F"/>
<path d="M4.73213 43.6316C8.56929 49.6219 14.3703 53.4094 20.8965 53.4094C32.408 53.4094 41.7441 41.4673 41.7441 26.7427C41.7441 20.5205 40.0823 14.8007 37.3026 10.2789L4.73213 43.6316Z" fill="#F79838"/>
<path d="M32.4382 20.9843H14.3099C12.4367 20.9843 10.8958 19.0132 10.8958 16.6171V10.0084H29.0543C30.9275 10.0084 32.4684 11.9794 32.4684 14.3756L32.4382 20.9843Z" fill="white"/>
<path d="M23.7668 23.8055H22.8906C16.1832 23.8055 10.7447 30.762 10.7447 39.3417V40.8103V46.6461C10.7447 47.419 11.2281 48.0374 11.8324 48.0374H18.2377C18.842 48.0374 19.3254 47.419 19.3254 46.6461V39.1099C19.3254 36.7137 20.8361 34.7427 22.7396 34.7427H28.2083C30.565 34.7427 32.4382 32.3079 32.4382 29.3321V23.8055H23.7668Z" fill="white"/>
<path d="M51.0801 2.74271C51.0801 1.39006 51.8657 1.31276 52.9534 1.31276C56.3676 1.31276 59.6911 1.58329 63.075 1.58329C63.5585 1.58329 64.0117 2.08571 64.0117 2.70407V7.57363C64.0117 8.34658 63.6189 8.92629 62.9542 8.92629H57.8178C57.425 8.92629 56.5488 9.19682 56.5488 9.93112V27.2451C56.5488 27.593 56.9416 27.9408 57.1531 28.0181H58.3012C60.5069 28.0181 61.4435 28.0954 61.4435 30.4915C61.4435 31.2645 61.5039 32.0374 61.5039 32.8103C61.5039 34.2789 61.3528 35.477 60.4464 35.477C59.5098 35.477 58.5732 35.0519 57.697 35.0519C56.8812 35.0519 56.8208 35.5543 56.8208 36.4818C56.8208 40.076 56.7603 43.6316 56.7603 47.1485C56.7603 48.5785 55.7633 48.7717 54.8267 48.7717H52.9534C51.9563 48.7717 50.7478 48.5785 50.7478 47.3031L51.0801 2.74271Z" fill="black"/>
<path d="M69.2387 8.1147V6.95528C69.3595 6.22098 70.1753 6.18233 70.7796 6.18233H71.5953C72.5924 6.18233 73.0758 6.37557 74.3448 6.37557C75.1304 6.37557 75.1304 9.04223 75.1304 10.8587L75.4627 41.3514L75.9159 41.8538H81.1731C81.6565 41.8538 82.1702 42.4335 82.1702 42.9746V47.1485C82.1702 48.192 81.4451 48.3852 80.7199 48.4625C80.1761 48.5398 78.7862 48.5785 77.2453 48.5785C75.1908 48.5785 72.7737 48.5012 71.9881 48.5012H70.4472C70.1149 48.3079 69.9638 47.7669 69.9638 47.3804C69.8127 33.1968 69.2387 22.3756 69.2387 8.1147Z" fill="black"/>
<path d="M85.6448 10.6654C85.7052 9.23547 85.7656 7.22581 87.1857 7.22581H87.2461L90.5092 7.41904C90.8416 7.41904 91.3854 7.72822 91.4458 8.15334V11.7475C91.4458 12.9843 91.3854 14.221 91.3854 16.8876V22.9939C91.3854 31.7282 91.5969 42.2789 94.3766 42.2789C95.5247 42.2789 96.5822 40.9649 96.7937 39.535C97.5792 36.2886 97.398 33.6219 97.8512 9.23547C97.8512 8.38523 98.4554 8.07605 99.0597 7.92146H101.658C102.655 7.92146 103.652 8.1147 103.652 9.62194C103.531 10.936 103.531 12.8297 103.531 14.9553V19.6316C103.411 36.3659 103.048 49.3901 94.9204 49.3901C86.1282 49.3901 85.6448 38.762 85.6448 29.2548V10.8973V10.6654Z" fill="black"/>
<path d="M111.206 5.71856H115.677C116.614 5.71856 121.086 5.79586 121.962 5.8345C122.355 5.95045 122.506 6.14368 122.627 6.5688C122.687 8.07605 122.687 9.506 122.687 11.2065C122.627 11.8635 122.566 12.4432 121.629 12.4432H115.677L115.194 13.0229L115.526 23.7669L120.179 23.9601C120.844 24.0374 120.995 25.3128 120.995 26.7041V27.2451L120.844 28.791C120.844 29.3321 120.723 30.1437 120.058 30.1437H115.859C115.798 30.1437 115.708 30.2596 115.587 30.3369L115.436 30.5302L115.708 40.5785C115.828 41.3128 116.1 41.8152 116.825 41.8152H122.747C123.684 41.8152 123.865 42.6654 123.865 43.593L123.593 47.3031C123.533 47.7669 123.14 48.2306 122.778 48.3466L111.115 48.849C110.511 48.849 109.846 47.9215 109.846 32.4239C109.846 28.25 109.786 24.0761 109.786 19.7862C109.786 15.4963 109.846 11.1292 109.937 6.5688C110.118 5.9118 110.662 5.71856 111.206 5.71856Z" fill="black"/>
<path d="M134.803 17.8152C134.682 17.8152 134.652 19.1292 134.652 21.2548C134.652 26.7814 134.924 38.0664 134.924 48.3466C134.924 49.7765 133.987 49.9698 133.05 49.9698C132.718 49.9698 132.386 49.8925 132.053 49.8925C131.842 49.8925 131.389 49.9698 130.996 49.9698C130.21 49.9698 129.394 49.7765 129.243 49.0422L129.183 30.3369C129.183 24.9263 129.032 19.4384 129.032 14.0664C129.032 13.1002 129.092 8.65576 129.092 7.68958C129.153 7.18716 129.425 6.72339 129.968 6.72339H136.434C136.887 6.72339 137.431 6.91663 137.431 7.45769L145.045 37.4094L143.776 7.49634C143.927 7.03257 144.32 6.6461 144.773 6.6461H148.641C148.913 6.6461 149.366 6.83934 149.456 7.18716V7.57364C149.456 9.85383 149.789 16.5785 149.789 21.0616C149.789 23.1485 150.061 34.4335 150.061 42.0857C150.061 46.2596 149.94 49.4287 149.728 49.4287H144.109C143.625 49.4287 143.232 48.9649 142.991 48.4625L134.803 17.8152Z" fill="black"/>
<path d="M161.361 16.1147V14.3756C161.361 14.2596 161.089 13.2548 160.756 13.2548L157.101 13.3321C156.103 13.3321 156.103 12.5978 156.103 11.5157V10.936C156.103 8.34658 156.164 6.76204 158.098 6.76204H158.913C160.907 6.76204 167.706 6.83933 169.639 6.87798C169.911 6.87798 170.969 6.99392 171.18 7.07122C171.784 7.14851 171.966 8.19199 171.966 9.15817C171.966 9.62194 171.905 10.0857 171.905 10.3949V11.3611C171.905 12.5205 171.422 13.564 170.697 13.564L166.769 13.8345L166.829 47.5736C166.829 48.3079 166.678 49.3901 166.014 49.3901H162.328C161.844 49.3901 161.33 49.0036 161.33 48.1533C161.33 37.4867 161.361 26.82 161.361 16.1147Z" fill="black"/>
<path d="M190.638 5.71856H195.11C196.046 5.71856 200.518 5.79586 201.394 5.8345C201.787 5.95045 201.938 6.14368 202.059 6.5688C202.119 8.07605 202.119 9.506 202.119 11.2065C202.059 11.8635 201.998 12.4432 201.062 12.4432H195.11L194.626 13.0229L194.958 23.7669L199.611 23.9601C200.276 24.0374 200.427 25.3128 200.427 26.7041V27.2451L200.276 28.791C200.276 29.3321 200.155 30.1437 199.491 30.1437H195.291C195.23 30.1437 195.14 30.2596 195.019 30.3369L194.868 30.5302L195.14 40.5785C195.261 41.3128 195.532 41.8152 196.258 41.8152H202.18C203.116 41.8152 203.297 42.6654 203.297 43.593L203.026 47.3031C202.965 47.7669 202.572 48.2306 202.21 48.3466L190.547 48.849C189.943 48.849 189.278 47.9215 189.278 32.4239C189.278 28.25 189.218 24.0761 189.218 19.7862C189.218 15.4963 189.278 11.1292 189.369 6.5688C189.55 5.9118 190.094 5.71856 190.638 5.71856Z" fill="black"/>
<path d="M176.74 38.7234C176.74 42.2403 176.86 45.1775 177.011 48.2306C177.011 48.7331 177.344 49.3514 177.827 49.3514L181.241 48.7717C182.118 48.6558 182.299 47.9215 182.299 47.1485L182.722 26.6268C181 26.9746 178.885 27.9408 176.921 29.0229C176.8 32.7717 176.74 35.9408 176.74 38.7234Z" fill="#0B017F"/>
<path d="M182.208 6.87798H178.613C178.16 6.87798 177.797 7.34175 177.797 7.80552C177.525 13.0229 177.344 17.4287 177.193 21.3707C177.102 24.192 177.011 26.7427 176.921 29.0616C178.885 27.9794 181 27.0132 182.722 26.6654L183.084 8.34658C183.084 7.61228 182.903 6.87798 182.208 6.87798Z" fill="#F79838"/>
</g>
<defs>
<filter id="filter0_i_1_3" x="0.0187683" y="0.0760498" width="203.279" height="57.3333" filterUnits="userSpaceOnUse" color-interpolation-filters="sRGB">
<feFlood flood-opacity="0" result="BackgroundImageFix"/>
<feBlend mode="normal" in="SourceGraphic" in2="BackgroundImageFix" result="shape"/>
<feColorMatrix in="SourceAlpha" type="matrix" values="0 0 0 0 0 0 0 0 0 0 0 0 0 0 0 0 0 0 127 0" result="hardAlpha"/>
<feOffset dy="4"/>
<feGaussianBlur stdDeviation="2"/>
<feComposite in2="hardAlpha" operator="arithmetic" k2="-1" k3="1"/>
<feColorMatrix type="matrix" values="0 0 0 0 0 0 0 0 0 0 0 0 0 0 0 0 0 0 0.25 0"/>
<feBlend mode="normal" in2="shape" result="effect1_innerShadow_1_3"/>
</filter>
<clipPath id="clip0_1_3">
<rect width="203.279" height="53.3333" fill="white" transform="translate(0.0187683 0.0760498)"/>
</clipPath>
</defs>
</svg>
