<svg width="34" height="34" viewBox="0 0 34 34" fill="none" xmlns="http://www.w3.org/2000/svg">
<rect x="0.5" y="0.726562" width="32.3062" height="32.3062" rx="16.1531" stroke="url(#paint0_linear_690_2)"/>
<g clip-path="url(#clip0_690_2)">
<path d="M20.997 8.69824H12.3039C10.1858 8.69824 8.46875 10.4153 8.46875 12.5334V21.2265C8.46875 23.3446 10.1858 25.0617 12.3039 25.0617H20.997C23.1151 25.0617 24.8322 23.3446 24.8322 21.2265V12.5334C24.8322 10.4153 23.1151 8.69824 20.997 8.69824Z" fill="url(#paint1_radial_690_2)"/>
<path d="M20.997 8.69824H12.3039C10.1858 8.69824 8.46875 10.4153 8.46875 12.5334V21.2265C8.46875 23.3446 10.1858 25.0617 12.3039 25.0617H20.997C23.1151 25.0617 24.8322 23.3446 24.8322 21.2265V12.5334C24.8322 10.4153 23.1151 8.69824 20.997 8.69824Z" fill="url(#paint2_radial_690_2)"/>
<path d="M16.6504 10.488C14.9144 10.488 14.6965 10.4956 14.0148 10.5266C13.3343 10.5578 12.8698 10.6655 12.4634 10.8236C12.0429 10.9869 11.6863 11.2053 11.331 11.5607C10.9754 11.916 10.757 12.2726 10.5933 12.6929C10.4347 13.0994 10.3269 13.5641 10.2963 14.2443C10.2658 14.9261 10.2578 15.1441 10.2578 16.8801C10.2578 18.6161 10.2655 18.8333 10.2964 19.515C10.3277 20.1955 10.4354 20.66 10.5934 21.0664C10.7568 21.4869 10.9752 21.8435 11.3306 22.1988C11.6858 22.5544 12.0424 22.7733 12.4625 22.9365C12.8693 23.0946 13.3338 23.2023 14.0142 23.2335C14.696 23.2645 14.9137 23.2721 16.6496 23.2721C18.3857 23.2721 18.6029 23.2645 19.2847 23.2335C19.9652 23.2023 20.4302 23.0946 20.8369 22.9365C21.2572 22.7733 21.6133 22.5544 21.9684 22.1988C22.324 21.8435 22.5424 21.4869 22.7062 21.0666C22.8633 20.66 22.9712 20.1954 23.0031 19.5152C23.0338 18.8334 23.0418 18.6161 23.0418 16.8801C23.0418 15.1441 23.0338 14.9262 23.0031 14.2444C22.9712 13.5639 22.8633 13.0995 22.7062 12.6931C22.5424 12.2726 22.324 11.916 21.9684 11.5607C21.6129 11.2052 21.2573 10.9867 20.8365 10.8237C20.429 10.6655 19.9643 10.5578 19.2838 10.5266C18.602 10.4956 18.3849 10.488 16.6484 10.488H16.6504ZM16.0769 11.6399C16.2472 11.6397 16.4371 11.6399 16.6504 11.6399C18.3571 11.6399 18.5593 11.6461 19.2333 11.6767C19.8565 11.7052 20.1948 11.8093 20.4201 11.8968C20.7184 12.0127 20.9311 12.1512 21.1547 12.3749C21.3784 12.5987 21.5168 12.8117 21.633 13.11C21.7205 13.335 21.8247 13.6733 21.8531 14.2965C21.8837 14.9703 21.8904 15.1727 21.8904 16.8786C21.8904 18.5845 21.8837 18.7869 21.8531 19.4607C21.8246 20.0839 21.7205 20.4222 21.633 20.6472C21.5171 20.9456 21.3784 21.158 21.1547 21.3816C20.9309 21.6053 20.7185 21.7437 20.4201 21.8596C20.195 21.9475 19.8565 22.0514 19.2333 22.0799C18.5595 22.1105 18.3571 22.1171 16.6504 22.1171C14.9436 22.1171 14.7413 22.1105 14.0675 22.0799C13.4443 22.0511 13.106 21.947 12.8805 21.8595C12.5823 21.7436 12.3691 21.6051 12.1454 21.3814C11.9217 21.1577 11.7833 20.9452 11.6671 20.6467C11.5796 20.4217 11.4754 20.0834 11.447 19.4602C11.4164 18.7864 11.4102 18.584 11.4102 16.877C11.4102 15.1701 11.4164 14.9687 11.447 14.2949C11.4755 13.6717 11.5796 13.3334 11.6671 13.1081C11.783 12.8098 11.9217 12.5967 12.1455 12.373C12.3692 12.1493 12.5823 12.0108 12.8806 11.8947C13.1059 11.8068 13.4443 11.703 14.0675 11.6743C14.6572 11.6477 14.8857 11.6397 16.0769 11.6383V11.6399ZM20.0624 12.7013C19.6389 12.7013 19.2954 13.0445 19.2954 13.468C19.2954 13.8915 19.6389 14.2351 20.0624 14.2351C20.4859 14.2351 20.8294 13.8915 20.8294 13.468C20.8294 13.0446 20.4859 12.701 20.0624 12.701V12.7013ZM16.6504 13.5975C14.8376 13.5975 13.3678 15.0672 13.3678 16.8801C13.3678 18.6929 14.8376 20.162 16.6504 20.162C18.4632 20.162 19.9324 18.6929 19.9324 16.8801C19.9324 15.0673 18.4631 13.5975 16.6502 13.5975H16.6504ZM16.6504 14.7494C17.8271 14.7494 18.7811 15.7032 18.7811 16.8801C18.7811 18.0568 17.8271 19.0108 16.6504 19.0108C15.4736 19.0108 14.5197 18.0568 14.5197 16.8801C14.5197 15.7032 15.4736 14.7494 16.6504 14.7494Z" fill="white"/>
</g>
<defs>
<linearGradient id="paint0_linear_690_2" x1="30.0496" y1="7.17697" x2="4.27713" y2="27.7391" gradientUnits="userSpaceOnUse">
<stop stop-color="#A731BF"/>
<stop offset="1" stop-color="#FFA84C"/>
</linearGradient>
<radialGradient id="paint1_radial_690_2" cx="0" cy="0" r="1" gradientUnits="userSpaceOnUse" gradientTransform="translate(12.8153 26.322) rotate(-90) scale(16.2174 15.0835)">
<stop stop-color="#FFDD55"/>
<stop offset="0.1" stop-color="#FFDD55"/>
<stop offset="0.5" stop-color="#FF543E"/>
<stop offset="1" stop-color="#C837AB"/>
</radialGradient>
<radialGradient id="paint2_radial_690_2" cx="0" cy="0" r="1" gradientUnits="userSpaceOnUse" gradientTransform="translate(5.72781 9.87699) rotate(78.681) scale(7.24926 29.8817)">
<stop stop-color="#3771C8"/>
<stop offset="0.128" stop-color="#3771C8"/>
<stop offset="1" stop-color="#6600FF" stop-opacity="0"/>
</radialGradient>
<clipPath id="clip0_690_2">
<rect width="16.3634" height="16.3634" fill="white" transform="translate(8.46875 8.69824)"/>
</clipPath>
</defs>
</svg>
