<?xml version="1.0" encoding="utf-8"?>
<!-- Generator: Adobe Illustrator 25.2.1, SVG Export Plug-In . SVG Version: 6.00 Build 0)  -->
<svg version="1.1" id="Layer_1" xmlns="http://www.w3.org/2000/svg" xmlns:xlink="http://www.w3.org/1999/xlink" x="0px" y="0px"
	 viewBox="0 0 672.8 138" style="enable-background:new 0 0 672.8 138;" xml:space="preserve">
<style type="text/css">
	.st0{fill:#0B017F;}
	.st1{fill:#F79838;}
	.st2{fill:#FFFFFF;}
</style>
<g>
	<g>
		<g>
			<g>
				<g>
					<path class="st0" d="M69,0C30.9,0,0,30.9,0,69c0,16.6,5.8,31.8,15.6,43.7l107.8-86.3C110.8,10.3,91.1,0,69,0z"/>
					<path class="st1" d="M15.6,112.7C28.3,128.2,47.5,138,69.1,138c38.1,0,69-30.9,69-69c0-16.1-5.5-30.9-14.7-42.6L15.6,112.7z"/>
				</g>
				<g>
					<path class="st2" d="M107.3,54.1h-60C41.1,54.1,36,49,36,42.8V25.7h60.1c6.2,0,11.3,5.1,11.3,11.3L107.3,54.1L107.3,54.1z"/>
					<path class="st2" d="M78.6,61.4h-2.9c-22.2,0-40.2,18-40.2,40.2v3.8v15.1c0,2,1.6,3.6,3.6,3.6h21.2c2,0,3.6-1.6,3.6-3.6V101
						c0-6.2,5-11.3,11.3-11.3h18.1c7.8,0,14-6.3,14-14V61.4L78.6,61.4L78.6,61.4z"/>
				</g>
			</g>
			<path d="M169,6.9c0-3.5,2.6-3.7,6.2-3.7c11.3,0,22.3,0.7,33.5,0.7c1.6,0,3.1,1.3,3.1,2.9v12.6c0,2-1.3,3.5-3.5,3.5h-17
				c-1.3,0-4.2,0.7-4.2,2.6v44.8c0,0.9,1.3,1.8,2,2h3.8c7.3,0,10.4,0.2,10.4,6.4c0,2,0.2,4,0.2,6c0,3.8-0.5,6.9-3.5,6.9
				c-3.1,0-6.2-1.1-9.1-1.1c-2.7,0-2.9,1.3-2.9,3.7c0,9.3-0.2,18.5-0.2,27.6c0,3.7-3.3,4.2-6.4,4.2h-6.2c-3.3,0-7.3-0.5-7.3-3.8
				L169,6.9z"/>
			<g>
				<path d="M229.1,20.8v-3c0.4-1.9,3.1-2,5.1-2h2.7c3.3,0,4.9,0.5,9.1,0.5c2.6,0,2.6,6.9,2.6,11.6l1.1,78.9l1.5,1.3h17.4
					c1.6,0,3.3,1.5,3.3,2.9v10.8c0,2.7-2.4,3.2-4.8,3.4c-1.8,0.2-6.4,0.3-11.5,0.3c-6.8,0-14.8-0.2-17.4-0.2h-5.1
					c-1.1-0.5-1.6-1.9-1.6-2.9C231,85.7,229.1,57.7,229.1,20.8z"/>
				<path d="M283.4,27.4c0.2-3.7,0.4-8.9,5.1-8.9h0.2l10.8,0.5c1.1,0,2.9,0.8,3.1,1.9v9.3c0,3.2-0.2,6.4-0.2,13.3v15.8
					c0,22.6,0.7,49.9,9.9,49.9c3.8,0,7.3-3.4,8-7.1c2.6-8.4,2-15.3,3.5-78.4c0-2.2,2-3,4-3.4h8.6c3.3,0,6.6,0.5,6.6,4.4
					c-0.4,3.4-0.4,8.3-0.4,13.8v12.1c-0.4,43.3-1.6,77-28.5,77c-29.1,0-30.7-27.5-30.7-52.1V28V27.4z"/>
				<path d="M368,14.6h14.8c3.1,0,17.9,0.2,20.8,0.3c1.3,0.3,1.8,0.8,2.2,1.9c0.2,3.9,0.2,7.6,0.2,12c-0.2,1.7-0.4,3.2-3.5,3.2
					h-19.7l-1.6,1.5l1.1,27.8l15.4,0.5c2.2,0.2,2.7,3.5,2.7,7.1v1.4l-0.5,4c0,1.4-0.4,3.5-2.6,3.5h-13.9c-0.2,0-0.5,0.3-0.9,0.5
					l-0.5,0.5l0.9,26c0.4,1.9,1.3,3.2,3.7,3.2h19.6c3.1,0,3.7,2.2,3.7,4.6l-0.9,9.6c-0.2,1.2-1.5,2.4-2.7,2.7l-38.6,1.3
					c-2,0-4.2-2.4-4.2-42.5c0-10.8-0.2-21.6-0.2-32.7s0.2-22.4,0.5-34.2C364.4,15.1,366.2,14.6,368,14.6z"/>
				<path d="M446.1,45.9c-0.4,0-0.5,3.4-0.5,8.9c0,14.3,0.9,43.5,0.9,70.1c0,3.7-3.1,4.2-6.2,4.2c-1.1,0-2.2-0.2-3.3-0.2
					c-0.7,0-2.2,0.2-3.5,0.2c-2.6,0-5.3-0.5-5.8-2.4l-0.2-48.4c0-14-0.5-28.2-0.5-42.1c0-2.5,0.2-14,0.2-16.5
					c0.2-1.3,1.1-2.5,2.9-2.5h21.4c1.5,0,3.3,0.5,3.3,1.9L480,96.6l-4.2-77.4c0.5-1.2,1.8-2.2,3.3-2.2h12.8c0.9,0,2.4,0.5,2.7,1.4v1
					c0,5.9,1.1,23.3,1.1,34.9c0,5.4,0.9,34.6,0.9,54.4c0,10.8-0.4,19-1.1,19h-18.6c-1.6,0-2.9-1.2-3.7-2.5L446.1,45.9z"/>
				<path d="M534,41.5V37c0-0.3-0.9-2.9-2-2.9l-12.1,0.2c-3.3,0-3.3-1.9-3.3-4.7v-1.5c0-6.7,0.2-10.8,6.6-10.8h2.7
					c6.6,0,29.1,0.2,35.5,0.3c0.9,0,4.4,0.3,5.1,0.5c2,0.2,2.6,2.9,2.6,5.4c0,1.2-0.2,2.4-0.2,3.2v2.5c0,3-1.6,5.7-4,5.7l-13,0.7
					l0.2,87.3c0,1.9-0.5,4.7-2.7,4.7h-12.2c-1.6,0-3.3-1-3.3-3.2C533.9,96.8,534,69.2,534,41.5z"/>
				<path d="M630.9,14.6h14.8c3.1,0,17.9,0.2,20.8,0.3c1.3,0.3,1.8,0.8,2.2,1.9c0.2,3.9,0.2,7.6,0.2,12c-0.2,1.7-0.4,3.2-3.5,3.2
					h-19.7l-1.6,1.5l1.1,27.8l15.4,0.5c2.2,0.2,2.7,3.5,2.7,7.1v1.4l-0.5,4c0,1.4-0.4,3.5-2.6,3.5h-13.9c-0.2,0-0.5,0.3-0.9,0.5
					l-0.5,0.5l0.9,26c0.4,1.9,1.3,3.2,3.7,3.2h19.6c3.1,0,3.7,2.2,3.7,4.6l-0.9,9.6c-0.2,1.2-1.5,2.4-2.7,2.7l-38.6,1.3
					c-2,0-4.2-2.4-4.2-42.5c0-10.8-0.2-21.6-0.2-32.7s0.2-22.4,0.5-34.2C627.3,15.1,629.1,14.6,630.9,14.6z"/>
			</g>
		</g>
		<g>
			<path class="st0" d="M584.9,100c0,9.1,0.4,16.7,0.9,24.6c0,1.3,1.1,2.9,2.7,2.9l11.3-1.5c2.9-0.3,3.5-2.2,3.5-4.2l1.4-53.1
				c-5.7,0.9-12.7,3.4-19.2,6.2C585.1,84.6,584.9,92.8,584.9,100z"/>
			<path class="st1" d="M603,17.6h-11.9c-1.5,0-2.7,1.2-2.7,2.4c-0.9,13.5-1.5,24.9-2,35.1c-0.3,7.3-0.6,13.9-0.9,19.9
				c6.5-2.8,13.5-5.3,19.2-6.2l1.2-47.4C605.9,19.5,605.3,17.6,603,17.6z"/>
		</g>
	</g>
</g>
</svg>
