<svg width="171" height="216" viewBox="0 0 171 216" fill="none" xmlns="http://www.w3.org/2000/svg">
<g clip-path="url(#clip0_1_1422)">
<path d="M170.38 0.480011H0.97998V214.91H170.38V0.480011Z" fill="white" stroke="#BABABA" stroke-width="0.95" stroke-miterlimit="10"/>
<path d="M106.16 72.17C97.7899 72.17 89.27 71.83 81.2999 69.61C73.4799 67.44 66.2999 63.23 59.8999 58.36C55.7099 55.19 51.8999 52.67 46.4599 53.05C41.1369 53.3331 36.0462 55.321 31.9399 58.72C25.0199 64.78 26.0599 76 28.8299 83.87C32.9899 95.74 45.6499 104 56.4099 109.36C68.84 115.57 82.5 119.17 96.1899 121.25C108.19 123.07 123.61 124.4 134.01 116.56C143.56 109.36 146.18 92.92 143.84 81.82C143.273 78.5379 141.527 75.5758 138.93 73.49C132.22 68.59 122.21 71.86 114.67 72.03C111.87 72.09 109.02 72.15 106.16 72.17Z" fill="#F2F2F2"/>
<path d="M85.68 140.7C105.954 140.7 122.39 139.675 122.39 138.41C122.39 137.145 105.954 136.12 85.68 136.12C65.4056 136.12 48.97 137.145 48.97 138.41C48.97 139.675 65.4056 140.7 85.68 140.7Z" fill="#F2F2F2"/>
<path d="M131.49 40.98C132.031 40.98 132.47 40.5412 132.47 40C132.47 39.4587 132.031 39.02 131.49 39.02C130.949 39.02 130.51 39.4587 130.51 40C130.51 40.5412 130.949 40.98 131.49 40.98Z" fill="#CFCFCF"/>
<path d="M66.3001 32.77C66.8413 32.77 67.2801 32.3312 67.2801 31.79C67.2801 31.2488 66.8413 30.81 66.3001 30.81C65.7588 30.81 65.3201 31.2488 65.3201 31.79C65.3201 32.3312 65.7588 32.77 66.3001 32.77Z" fill="#CFCFCF"/>
<path d="M78.1499 126.08C78.6912 126.08 79.1299 125.641 79.1299 125.1C79.1299 124.559 78.6912 124.12 78.1499 124.12C77.6087 124.12 77.1699 124.559 77.1699 125.1C77.1699 125.641 77.6087 126.08 78.1499 126.08Z" fill="#CFCFCF"/>
<path d="M104.31 28.11V32.41" stroke="#BABABA" stroke-linecap="round" stroke-linejoin="round"/>
<path d="M102.16 30.26H106.46" stroke="#BABABA" stroke-linecap="round" stroke-linejoin="round"/>
<path d="M34.25 46.21V50.51" stroke="#BABABA" stroke-linecap="round" stroke-linejoin="round"/>
<path d="M32.0901 48.36H36.4001" stroke="#BABABA" stroke-linecap="round" stroke-linejoin="round"/>
<path d="M37.49 106.12V110.43" stroke="#BABABA" stroke-linecap="round" stroke-linejoin="round"/>
<path d="M35.3301 108.27H39.6401" stroke="#BABABA" stroke-linecap="round" stroke-linejoin="round"/>
<path d="M126.34 62.03V66.33" stroke="#BABABA" stroke-linecap="round" stroke-linejoin="round"/>
<path d="M124.19 64.18H128.49" stroke="#BABABA" stroke-linecap="round" stroke-linejoin="round"/>
<path d="M96.3694 36.9425L46.1764 43.5335C42.9232 43.9607 40.6322 46.9443 41.0594 50.1975L48.7099 108.459C49.1371 111.712 52.1207 114.003 55.3739 113.576L105.567 106.985C108.82 106.558 111.111 103.574 110.684 100.321L103.033 42.0595C102.606 38.8063 99.6226 36.5153 96.3694 36.9425Z" fill="#D2D2D2"/>
<path d="M110.99 45.49H60.2901C57.004 45.49 54.3401 48.1539 54.3401 51.44V110.29C54.3401 113.576 57.004 116.24 60.2901 116.24H110.99C114.276 116.24 116.94 113.576 116.94 110.29V51.44C116.94 48.1539 114.276 45.49 110.99 45.49Z" fill="white" stroke="#BABABA" stroke-linecap="round" stroke-linejoin="round"/>
<path d="M61.9099 92.05L72.0499 75.52C72.1497 75.2785 72.3189 75.0721 72.536 74.9268C72.7532 74.7815 73.0086 74.704 73.2699 74.704C73.5312 74.704 73.7866 74.7815 74.0038 74.9268C74.221 75.0721 74.3902 75.2785 74.4899 75.52L80.2399 84.89C80.3376 85.1323 80.5054 85.3398 80.7219 85.486C80.9384 85.6321 81.1937 85.7102 81.4549 85.7102C81.7161 85.7102 81.9714 85.6321 82.1879 85.486C82.4044 85.3398 82.5722 85.1323 82.6699 84.89L92.5099 68.89C92.6076 68.6477 92.7754 68.4402 92.9919 68.294C93.2084 68.1479 93.4637 68.0698 93.7249 68.0698C93.9861 68.0698 94.2414 68.1479 94.4579 68.294C94.6744 68.4402 94.8423 68.6477 94.9399 68.89L109.38 92.42L61.9099 92.05Z" fill="white" stroke="#BABABA" stroke-linecap="round" stroke-linejoin="round"/>
<path d="M82.1299 73.3C83.8917 73.3 85.3199 71.8718 85.3199 70.11C85.3199 68.3482 83.8917 66.92 82.1299 66.92C80.3681 66.92 78.9399 68.3482 78.9399 70.11C78.9399 71.8718 80.3681 73.3 82.1299 73.3Z" fill="white" stroke="#BABABA" stroke-linecap="round" stroke-linejoin="round"/>
<path d="M70.37 160.32V167.55H69.68C69.5733 167.55 69.4833 167.533 69.41 167.5C69.34 167.463 69.2716 167.403 69.205 167.32L65.43 162.5C65.45 162.72 65.46 162.923 65.46 163.11V167.55H64.275V160.32H64.98C65.0366 160.32 65.085 160.323 65.125 160.33C65.1683 160.333 65.205 160.343 65.235 160.36C65.2683 160.373 65.3 160.395 65.33 160.425C65.36 160.452 65.3933 160.488 65.43 160.535L69.22 165.375C69.21 165.258 69.2016 165.143 69.195 165.03C69.1883 164.917 69.185 164.812 69.185 164.715V160.32H70.37ZM73.8988 162.34C74.2788 162.34 74.6238 162.402 74.9338 162.525C75.2471 162.648 75.5138 162.823 75.7338 163.05C75.9571 163.277 76.1288 163.553 76.2488 163.88C76.3688 164.207 76.4288 164.572 76.4288 164.975C76.4288 165.382 76.3688 165.748 76.2488 166.075C76.1288 166.402 75.9571 166.68 75.7338 166.91C75.5138 167.14 75.2471 167.317 74.9338 167.44C74.6238 167.563 74.2788 167.625 73.8988 167.625C73.5155 167.625 73.1671 167.563 72.8538 167.44C72.5405 167.317 72.2721 167.14 72.0488 166.91C71.8288 166.68 71.6571 166.402 71.5338 166.075C71.4138 165.748 71.3538 165.382 71.3538 164.975C71.3538 164.572 71.4138 164.207 71.5338 163.88C71.6571 163.553 71.8288 163.277 72.0488 163.05C72.2721 162.823 72.5405 162.648 72.8538 162.525C73.1671 162.402 73.5155 162.34 73.8988 162.34ZM73.8988 166.675C74.3255 166.675 74.6405 166.532 74.8438 166.245C75.0505 165.958 75.1538 165.538 75.1538 164.985C75.1538 164.432 75.0505 164.01 74.8438 163.72C74.6405 163.43 74.3255 163.285 73.8988 163.285C73.4655 163.285 73.1438 163.432 72.9338 163.725C72.7271 164.015 72.6238 164.435 72.6238 164.985C72.6238 165.535 72.7271 165.955 72.9338 166.245C73.1438 166.532 73.4655 166.675 73.8988 166.675ZM81.3476 167.55H79.9976V160.32H81.3476V167.55ZM82.6933 167.55V162.42H83.4483C83.6083 162.42 83.7133 162.495 83.7633 162.645L83.8433 163.025C83.9333 162.925 84.0266 162.833 84.1233 162.75C84.2233 162.667 84.3283 162.595 84.4383 162.535C84.5516 162.475 84.6716 162.428 84.7983 162.395C84.9283 162.358 85.0699 162.34 85.2233 162.34C85.5466 162.34 85.8116 162.428 86.0183 162.605C86.2283 162.778 86.3849 163.01 86.4883 163.3C86.5683 163.13 86.6683 162.985 86.7883 162.865C86.9083 162.742 87.0399 162.642 87.1833 162.565C87.3266 162.488 87.4783 162.432 87.6383 162.395C87.8016 162.358 87.9649 162.34 88.1283 162.34C88.4116 162.34 88.6633 162.383 88.8833 162.47C89.1033 162.557 89.2883 162.683 89.4383 162.85C89.5883 163.017 89.7016 163.22 89.7783 163.46C89.8583 163.7 89.8983 163.975 89.8983 164.285V167.55H88.6633V164.285C88.6633 163.958 88.5916 163.713 88.4483 163.55C88.3049 163.383 88.0949 163.3 87.8183 163.3C87.6916 163.3 87.5733 163.322 87.4633 163.365C87.3566 163.408 87.2616 163.472 87.1783 163.555C87.0983 163.635 87.0349 163.737 86.9883 163.86C86.9416 163.983 86.9183 164.125 86.9183 164.285V167.55H85.6783V164.285C85.6783 163.942 85.6083 163.692 85.4683 163.535C85.3316 163.378 85.1299 163.3 84.8633 163.3C84.6833 163.3 84.5149 163.345 84.3583 163.435C84.2049 163.522 84.0616 163.642 83.9283 163.795V167.55H82.6933ZM93.7822 165.36C93.4255 165.377 93.1255 165.408 92.8822 165.455C92.6388 165.498 92.4438 165.555 92.2972 165.625C92.1505 165.695 92.0455 165.777 91.9822 165.87C91.9188 165.963 91.8872 166.065 91.8872 166.175C91.8872 166.392 91.9505 166.547 92.0772 166.64C92.2072 166.733 92.3755 166.78 92.5822 166.78C92.8355 166.78 93.0538 166.735 93.2372 166.645C93.4238 166.552 93.6055 166.412 93.7822 166.225V165.36ZM90.9522 163.135C91.5422 162.595 92.2522 162.325 93.0822 162.325C93.3822 162.325 93.6505 162.375 93.8872 162.475C94.1238 162.572 94.3238 162.708 94.4872 162.885C94.6505 163.058 94.7738 163.267 94.8572 163.51C94.9438 163.753 94.9872 164.02 94.9872 164.31V167.55H94.4272C94.3105 167.55 94.2205 167.533 94.1572 167.5C94.0938 167.463 94.0438 167.392 94.0072 167.285L93.8972 166.915C93.7672 167.032 93.6405 167.135 93.5172 167.225C93.3938 167.312 93.2655 167.385 93.1322 167.445C92.9988 167.505 92.8555 167.55 92.7022 167.58C92.5522 167.613 92.3855 167.63 92.2022 167.63C91.9855 167.63 91.7855 167.602 91.6022 167.545C91.4188 167.485 91.2605 167.397 91.1272 167.28C90.9938 167.163 90.8905 167.018 90.8172 166.845C90.7438 166.672 90.7072 166.47 90.7072 166.24C90.7072 166.11 90.7288 165.982 90.7722 165.855C90.8155 165.725 90.8855 165.602 90.9822 165.485C91.0822 165.368 91.2105 165.258 91.3672 165.155C91.5238 165.052 91.7155 164.962 91.9422 164.885C92.1722 164.808 92.4388 164.747 92.7422 164.7C93.0455 164.65 93.3922 164.62 93.7822 164.61V164.31C93.7822 163.967 93.7088 163.713 93.5622 163.55C93.4155 163.383 93.2038 163.3 92.9272 163.3C92.7272 163.3 92.5605 163.323 92.4272 163.37C92.2972 163.417 92.1822 163.47 92.0822 163.53C91.9822 163.587 91.8905 163.638 91.8072 163.685C91.7272 163.732 91.6372 163.755 91.5372 163.755C91.4505 163.755 91.3772 163.733 91.3172 163.69C91.2572 163.643 91.2088 163.59 91.1722 163.53L90.9522 163.135ZM98.0253 164.86C98.1786 164.86 98.312 164.84 98.4253 164.8C98.5386 164.757 98.6319 164.698 98.7053 164.625C98.7819 164.552 98.8386 164.463 98.8753 164.36C98.9153 164.257 98.9353 164.143 98.9353 164.02C98.9353 163.767 98.8586 163.567 98.7053 163.42C98.5553 163.27 98.3286 163.195 98.0253 163.195C97.7219 163.195 97.4936 163.27 97.3403 163.42C97.1903 163.567 97.1153 163.767 97.1153 164.02C97.1153 164.14 97.1336 164.252 97.1703 164.355C97.2103 164.458 97.2669 164.548 97.3403 164.625C97.4169 164.698 97.5119 164.757 97.6253 164.8C97.7419 164.84 97.8753 164.86 98.0253 164.86ZM99.4203 167.78C99.4203 167.68 99.3903 167.598 99.3303 167.535C99.2703 167.472 99.1886 167.423 99.0853 167.39C98.982 167.353 98.8603 167.327 98.7203 167.31C98.5836 167.293 98.437 167.282 98.2803 167.275C98.127 167.265 97.967 167.257 97.8003 167.25C97.6369 167.243 97.4769 167.23 97.3203 167.21C97.1836 167.287 97.0719 167.377 96.9853 167.48C96.9019 167.583 96.8603 167.703 96.8603 167.84C96.8603 167.93 96.8819 168.013 96.9253 168.09C96.9719 168.17 97.0436 168.238 97.1403 168.295C97.2403 168.352 97.3686 168.395 97.5253 168.425C97.682 168.458 97.8736 168.475 98.1003 168.475C98.3303 168.475 98.5286 168.457 98.6953 168.42C98.862 168.387 98.9986 168.338 99.1053 168.275C99.2153 168.215 99.2953 168.142 99.3453 168.055C99.3953 167.972 99.4203 167.88 99.4203 167.78ZM100.65 162.595V163.055C100.65 163.202 100.562 163.292 100.385 163.325L99.9253 163.41C99.9953 163.587 100.03 163.78 100.03 163.99C100.03 164.243 99.9786 164.473 99.8753 164.68C99.7753 164.883 99.6353 165.057 99.4553 165.2C99.2753 165.343 99.062 165.455 98.8153 165.535C98.5719 165.612 98.3086 165.65 98.0253 165.65C97.9253 165.65 97.8286 165.645 97.7353 165.635C97.6419 165.625 97.5503 165.612 97.4603 165.595C97.3003 165.692 97.2203 165.8 97.2203 165.92C97.2203 166.023 97.2669 166.1 97.3603 166.15C97.4569 166.197 97.5836 166.23 97.7403 166.25C97.8969 166.27 98.0753 166.283 98.2753 166.29C98.4753 166.293 98.6803 166.303 98.8903 166.32C99.1003 166.337 99.3053 166.367 99.5053 166.41C99.7053 166.45 99.8836 166.515 100.04 166.605C100.197 166.695 100.322 166.818 100.415 166.975C100.512 167.128 100.56 167.327 100.56 167.57C100.56 167.797 100.504 168.017 100.39 168.23C100.28 168.443 100.119 168.633 99.9053 168.8C99.6953 168.967 99.4353 169.1 99.1253 169.2C98.8186 169.303 98.4686 169.355 98.0753 169.355C97.6886 169.355 97.3519 169.317 97.0653 169.24C96.7786 169.167 96.5403 169.067 96.3503 168.94C96.1603 168.817 96.0186 168.673 95.9253 168.51C95.8319 168.347 95.7853 168.177 95.7853 168C95.7853 167.76 95.8569 167.56 96.0003 167.4C96.1469 167.237 96.3469 167.107 96.6003 167.01C96.4636 166.94 96.3553 166.847 96.2753 166.73C96.1953 166.613 96.1553 166.46 96.1553 166.27C96.1553 166.193 96.1686 166.115 96.1953 166.035C96.2253 165.952 96.2669 165.87 96.3203 165.79C96.3769 165.71 96.4469 165.635 96.5303 165.565C96.6136 165.492 96.7119 165.427 96.8253 165.37C96.5653 165.23 96.3603 165.043 96.2103 164.81C96.0636 164.577 95.9903 164.303 95.9903 163.99C95.9903 163.737 96.0403 163.508 96.1403 163.305C96.2436 163.098 96.3853 162.923 96.5653 162.78C96.7486 162.633 96.9636 162.522 97.2103 162.445C97.4603 162.368 97.7319 162.33 98.0253 162.33C98.2453 162.33 98.452 162.353 98.6453 162.4C98.8386 162.443 99.0153 162.508 99.1753 162.595H100.65ZM104.651 164.395C104.651 164.235 104.627 164.085 104.581 163.945C104.537 163.802 104.471 163.677 104.381 163.57C104.291 163.463 104.176 163.38 104.036 163.32C103.899 163.257 103.739 163.225 103.556 163.225C103.199 163.225 102.917 163.327 102.711 163.53C102.507 163.733 102.377 164.022 102.321 164.395H104.651ZM102.296 165.14C102.316 165.403 102.362 165.632 102.436 165.825C102.509 166.015 102.606 166.173 102.726 166.3C102.846 166.423 102.987 166.517 103.151 166.58C103.317 166.64 103.501 166.67 103.701 166.67C103.901 166.67 104.072 166.647 104.216 166.6C104.362 166.553 104.489 166.502 104.596 166.445C104.706 166.388 104.801 166.337 104.881 166.29C104.964 166.243 105.044 166.22 105.121 166.22C105.224 166.22 105.301 166.258 105.351 166.335L105.706 166.785C105.569 166.945 105.416 167.08 105.246 167.19C105.076 167.297 104.897 167.383 104.711 167.45C104.527 167.513 104.339 167.558 104.146 167.585C103.956 167.612 103.771 167.625 103.591 167.625C103.234 167.625 102.902 167.567 102.596 167.45C102.289 167.33 102.022 167.155 101.796 166.925C101.569 166.692 101.391 166.405 101.261 166.065C101.131 165.722 101.066 165.325 101.066 164.875C101.066 164.525 101.122 164.197 101.236 163.89C101.349 163.58 101.511 163.312 101.721 163.085C101.934 162.855 102.192 162.673 102.496 162.54C102.802 162.407 103.147 162.34 103.531 162.34C103.854 162.34 104.152 162.392 104.426 162.495C104.699 162.598 104.934 162.75 105.131 162.95C105.327 163.147 105.481 163.39 105.591 163.68C105.704 163.967 105.761 164.295 105.761 164.665C105.761 164.852 105.741 164.978 105.701 165.045C105.661 165.108 105.584 165.14 105.471 165.14H102.296Z" fill="#939090"/>
<path d="M47.0589 175.639H47.7648L49.1768 178.016H49.2364L50.6483 175.639H51.3543L49.5148 178.632V180.73H48.8983V178.632L47.0589 175.639ZM53.0832 180.81C52.7385 180.81 52.4361 180.728 52.1759 180.563C51.9173 180.399 51.7152 180.17 51.5693 179.875C51.4252 179.58 51.3531 179.235 51.3531 178.841C51.3531 178.443 51.4252 178.096 51.5693 177.799C51.7152 177.503 51.9173 177.272 52.1759 177.108C52.4361 176.944 52.7385 176.862 53.0832 176.862C53.4279 176.862 53.7295 176.944 53.988 177.108C54.2482 177.272 54.4504 177.503 54.5945 177.799C54.7404 178.096 54.8133 178.443 54.8133 178.841C54.8133 179.235 54.7404 179.58 54.5945 179.875C54.4504 180.17 54.2482 180.399 53.988 180.563C53.7295 180.728 53.4279 180.81 53.0832 180.81ZM53.0832 180.283C53.345 180.283 53.5605 180.215 53.7295 180.081C53.8985 179.947 54.0236 179.77 54.1048 179.552C54.1861 179.333 54.2267 179.096 54.2267 178.841C54.2267 178.586 54.1861 178.348 54.1048 178.127C54.0236 177.907 53.8985 177.729 53.7295 177.593C53.5605 177.457 53.345 177.389 53.0832 177.389C52.8213 177.389 52.6059 177.457 52.4369 177.593C52.2678 177.729 52.1427 177.907 52.0615 178.127C51.9803 178.348 51.9397 178.586 51.9397 178.841C51.9397 179.096 51.9803 179.333 52.0615 179.552C52.1427 179.77 52.2678 179.947 52.4369 180.081C52.6059 180.215 52.8213 180.283 53.0832 180.283ZM58.1151 179.169V176.912H58.7017V180.73H58.1151V180.084H58.0753C57.9858 180.278 57.8466 180.442 57.6577 180.578C57.4688 180.713 57.2301 180.78 56.9418 180.78C56.7031 180.78 56.491 180.728 56.3054 180.623C56.1198 180.517 55.974 180.358 55.8679 180.146C55.7618 179.932 55.7088 179.663 55.7088 179.338V176.912H56.2955V179.298C56.2955 179.577 56.3733 179.799 56.5291 179.964C56.6866 180.13 56.8871 180.213 57.1307 180.213C57.2765 180.213 57.4248 180.176 57.5756 180.101C57.7281 180.027 57.8557 179.912 57.9585 179.758C58.0629 179.604 58.1151 179.408 58.1151 179.169ZM62.3316 178.433V180.73H61.7449V175.639H62.3316V177.508H62.3813C62.4708 177.311 62.605 177.155 62.784 177.039C62.9646 176.921 63.2049 176.862 63.5049 176.862C63.7651 176.862 63.9929 176.914 64.1885 177.019C64.384 177.121 64.5357 177.28 64.6434 177.493C64.7528 177.706 64.8074 177.976 64.8074 178.304V180.73H64.2208V178.344C64.2208 178.04 64.1421 177.806 63.9846 177.64C63.8289 177.473 63.6126 177.389 63.3358 177.389C63.1436 177.389 62.9713 177.43 62.8188 177.511C62.668 177.592 62.5487 177.711 62.4608 177.866C62.3747 178.022 62.3316 178.211 62.3316 178.433ZM67.0043 180.819C66.7623 180.819 66.5427 180.774 66.3455 180.683C66.1483 180.59 65.9917 180.457 65.8757 180.283C65.7597 180.107 65.7017 179.895 65.7017 179.646C65.7017 179.427 65.7448 179.25 65.831 179.114C65.9171 178.977 66.0323 178.869 66.1765 178.791C66.3207 178.713 66.4798 178.655 66.6538 178.617C66.8294 178.577 67.0059 178.546 67.1832 178.523C67.4152 178.493 67.6033 178.47 67.7475 178.455C67.8933 178.439 67.9994 178.412 68.0657 178.373C68.1336 178.335 68.1676 178.269 68.1676 178.175V178.155C68.1676 177.909 68.1005 177.719 67.9663 177.583C67.8337 177.447 67.6323 177.379 67.3622 177.379C67.0821 177.379 66.8626 177.44 66.7035 177.563C66.5444 177.686 66.4325 177.817 66.3679 177.956L65.8111 177.757C65.9105 177.525 66.0431 177.344 66.2088 177.215C66.3762 177.084 66.5585 176.993 66.7557 176.942C66.9545 176.889 67.1501 176.862 67.3423 176.862C67.465 176.862 67.6058 176.877 67.7649 176.907C67.9257 176.935 68.0806 176.994 68.2298 177.083C68.3806 177.173 68.5057 177.308 68.6051 177.489C68.7045 177.669 68.7543 177.911 68.7543 178.214V180.73H68.1676V180.213H68.1378C68.098 180.296 68.0317 180.384 67.9389 180.479C67.8461 180.573 67.7227 180.654 67.5685 180.72C67.4144 180.786 67.2263 180.819 67.0043 180.819ZM67.0938 180.292C67.3258 180.292 67.5213 180.247 67.6804 180.156C67.8411 180.065 67.9621 179.947 68.0433 179.803C68.1262 179.659 68.1676 179.507 68.1676 179.348V178.811C68.1428 178.841 68.0881 178.868 68.0036 178.893C67.9207 178.916 67.8246 178.937 67.7152 178.955C67.6075 178.972 67.5022 178.987 67.3995 179C67.2984 179.011 67.2164 179.021 67.1534 179.03C67.0009 179.05 66.8584 179.082 66.7259 179.127C66.5949 179.17 66.4889 179.235 66.4077 179.323C66.3281 179.409 66.2884 179.527 66.2884 179.676C66.2884 179.88 66.3638 180.034 66.5146 180.138C66.667 180.241 66.8601 180.292 67.0938 180.292ZM72.8105 176.912L71.3985 180.73H70.8019L69.39 176.912H70.0264L71.0803 179.954H71.1201L72.1741 176.912H72.8105ZM75.0489 180.81C74.681 180.81 74.3637 180.728 74.0969 180.566C73.8317 180.402 73.627 180.173 73.4829 179.88C73.3403 179.585 73.2691 179.242 73.2691 178.851C73.2691 178.46 73.3403 178.115 73.4829 177.817C73.627 177.517 73.8276 177.283 74.0844 177.116C74.343 176.947 74.6446 176.862 74.9893 176.862C75.1881 176.862 75.3845 176.895 75.5784 176.962C75.7723 177.028 75.9488 177.136 76.1079 177.285C76.267 177.432 76.3937 177.628 76.4882 177.871C76.5827 178.115 76.6299 178.415 76.6299 178.771V179.02H73.6867V178.513H76.0333C76.0333 178.297 75.9902 178.105 75.904 177.936C75.8195 177.767 75.6985 177.634 75.5411 177.536C75.3853 177.438 75.2014 177.389 74.9893 177.389C74.7556 177.389 74.5534 177.447 74.3827 177.563C74.2137 177.677 74.0836 177.827 73.9925 178.011C73.9013 178.194 73.8557 178.392 73.8557 178.602V178.94C73.8557 179.229 73.9055 179.473 74.0049 179.674C74.106 179.872 74.246 180.024 74.425 180.128C74.604 180.231 74.8119 180.283 75.0489 180.283C75.203 180.283 75.3422 180.261 75.4665 180.218C75.5925 180.173 75.701 180.107 75.7922 180.019C75.8833 179.93 75.9537 179.819 76.0035 179.686L76.5702 179.845C76.5106 180.037 76.4103 180.206 76.2694 180.352C76.1286 180.496 75.9546 180.609 75.7474 180.69C75.5403 180.77 75.3074 180.81 75.0489 180.81ZM80.0777 178.433V180.73H79.491V176.912H80.0578V177.508H80.1075C80.197 177.315 80.3329 177.159 80.5152 177.041C80.6975 176.922 80.9328 176.862 81.2211 176.862C81.4797 176.862 81.7059 176.915 81.8998 177.021C82.0937 177.126 82.2445 177.285 82.3522 177.498C82.4599 177.711 82.5138 177.979 82.5138 178.304V180.73H81.9271V178.344C81.9271 178.044 81.8492 177.81 81.6934 177.643C81.5377 177.474 81.3239 177.389 81.0521 177.389C80.8648 177.389 80.6975 177.43 80.55 177.511C80.4041 177.592 80.289 177.711 80.2045 177.866C80.1199 178.022 80.0777 178.211 80.0777 178.433ZM85.1369 180.81C84.7922 180.81 84.4898 180.728 84.2296 180.563C83.9711 180.399 83.7689 180.17 83.623 179.875C83.4789 179.58 83.4068 179.235 83.4068 178.841C83.4068 178.443 83.4789 178.096 83.623 177.799C83.7689 177.503 83.9711 177.272 84.2296 177.108C84.4898 176.944 84.7922 176.862 85.1369 176.862C85.4816 176.862 85.7832 176.944 86.0417 177.108C86.3019 177.272 86.5041 177.503 86.6483 177.799C86.7941 178.096 86.867 178.443 86.867 178.841C86.867 179.235 86.7941 179.58 86.6483 179.875C86.5041 180.17 86.3019 180.399 86.0417 180.563C85.7832 180.728 85.4816 180.81 85.1369 180.81ZM85.1369 180.283C85.3987 180.283 85.6142 180.215 85.7832 180.081C85.9522 179.947 86.0774 179.77 86.1586 179.552C86.2398 179.333 86.2804 179.096 86.2804 178.841C86.2804 178.586 86.2398 178.348 86.1586 178.127C86.0774 177.907 85.9522 177.729 85.7832 177.593C85.6142 177.457 85.3987 177.389 85.1369 177.389C84.8751 177.389 84.6596 177.457 84.4906 177.593C84.3216 177.729 84.1964 177.907 84.1152 178.127C84.034 178.348 83.9934 178.586 83.9934 178.841C83.9934 179.096 84.034 179.333 84.1152 179.552C84.1964 179.77 84.3216 179.947 84.4906 180.081C84.6596 180.215 84.8751 180.283 85.1369 180.283ZM89.7313 182.162V176.912H90.298V177.518H90.3676C90.4107 177.452 90.4704 177.368 90.5466 177.265C90.6245 177.16 90.7355 177.068 90.8797 176.986C91.0255 176.904 91.2227 176.862 91.4713 176.862C91.7928 176.862 92.0762 176.942 92.3215 177.103C92.5667 177.264 92.7581 177.492 92.8957 177.787C93.0332 178.082 93.102 178.43 93.102 178.831C93.102 179.235 93.0332 179.586 92.8957 179.882C92.7581 180.177 92.5676 180.406 92.324 180.568C92.0803 180.729 91.7994 180.81 91.4813 180.81C91.236 180.81 91.0396 180.769 90.8921 180.688C90.7446 180.605 90.6311 180.511 90.5516 180.407C90.472 180.301 90.4107 180.213 90.3676 180.143H90.3179V182.162H89.7313ZM90.308 178.821C90.308 179.109 90.3502 179.364 90.4347 179.584C90.5193 179.803 90.6427 179.974 90.8051 180.099C90.9675 180.221 91.1664 180.283 91.4017 180.283C91.647 180.283 91.8517 180.218 92.0157 180.089C92.1814 179.958 92.3057 179.782 92.3886 179.562C92.4731 179.34 92.5154 179.093 92.5154 178.821C92.5154 178.552 92.4739 178.31 92.3911 178.095C92.3099 177.878 92.1864 177.706 92.0207 177.58C91.8566 177.453 91.6503 177.389 91.4017 177.389C91.1631 177.389 90.9626 177.45 90.8002 177.571C90.6378 177.69 90.5151 177.857 90.4323 178.073C90.3494 178.286 90.308 178.536 90.308 178.821ZM94.5835 178.433V180.73H93.9969V175.639H94.5835V177.508H94.6333C94.7227 177.311 94.857 177.155 95.036 177.039C95.2166 176.921 95.4569 176.862 95.7568 176.862C96.017 176.862 96.2449 176.914 96.4404 177.019C96.636 177.121 96.7876 177.28 96.8953 177.493C97.0047 177.706 97.0594 177.976 97.0594 178.304V180.73H96.4727V178.344C96.4727 178.04 96.394 177.806 96.2366 177.64C96.0808 177.473 95.8646 177.389 95.5878 177.389C95.3956 177.389 95.2232 177.43 95.0708 177.511C94.92 177.592 94.8006 177.711 94.7128 177.866C94.6266 178.022 94.5835 178.211 94.5835 178.433ZM99.6838 180.81C99.3391 180.81 99.0366 180.728 98.7765 180.563C98.5179 180.399 98.3158 180.17 98.1699 179.875C98.0257 179.58 97.9537 179.235 97.9537 178.841C97.9537 178.443 98.0257 178.096 98.1699 177.799C98.3158 177.503 98.5179 177.272 98.7765 177.108C99.0366 176.944 99.3391 176.862 99.6838 176.862C100.028 176.862 100.33 176.944 100.589 177.108C100.849 177.272 101.051 177.503 101.195 177.799C101.341 178.096 101.414 178.443 101.414 178.841C101.414 179.235 101.341 179.58 101.195 179.875C101.051 180.17 100.849 180.399 100.589 180.563C100.33 180.728 100.028 180.81 99.6838 180.81ZM99.6838 180.283C99.9456 180.283 100.161 180.215 100.33 180.081C100.499 179.947 100.624 179.77 100.705 179.552C100.787 179.333 100.827 179.096 100.827 178.841C100.827 178.586 100.787 178.348 100.705 178.127C100.624 177.907 100.499 177.729 100.33 177.593C100.161 177.457 99.9456 177.389 99.6838 177.389C99.4219 177.389 99.2065 177.457 99.0375 177.593C98.8684 177.729 98.7433 177.907 98.6621 178.127C98.5809 178.348 98.5403 178.586 98.5403 178.841C98.5403 179.096 98.5809 179.333 98.6621 179.552C98.7433 179.77 98.8684 179.947 99.0375 180.081C99.2065 180.215 99.4219 180.283 99.6838 180.283ZM103.97 176.912V177.409H101.991V176.912H103.97ZM102.568 175.997H103.155V179.636C103.155 179.802 103.179 179.926 103.227 180.009C103.276 180.09 103.339 180.145 103.416 180.173C103.493 180.2 103.575 180.213 103.662 180.213C103.726 180.213 103.779 180.21 103.821 180.203C103.862 180.195 103.895 180.188 103.92 180.183L104.04 180.71C104 180.725 103.944 180.74 103.873 180.755C103.802 180.771 103.711 180.78 103.602 180.78C103.436 180.78 103.274 180.744 103.115 180.673C102.957 180.602 102.826 180.493 102.722 180.347C102.619 180.201 102.568 180.017 102.568 179.795V175.997ZM106.362 180.81C106.018 180.81 105.715 180.728 105.455 180.563C105.197 180.399 104.994 180.17 104.849 179.875C104.704 179.58 104.632 179.235 104.632 178.841C104.632 178.443 104.704 178.096 104.849 177.799C104.994 177.503 105.197 177.272 105.455 177.108C105.715 176.944 106.018 176.862 106.362 176.862C106.707 176.862 107.009 176.944 107.267 177.108C107.527 177.272 107.73 177.503 107.874 177.799C108.02 178.096 108.093 178.443 108.093 178.841C108.093 179.235 108.02 179.58 107.874 179.875C107.73 180.17 107.527 180.399 107.267 180.563C107.009 180.728 106.707 180.81 106.362 180.81ZM106.362 180.283C106.624 180.283 106.84 180.215 107.009 180.081C107.178 179.947 107.303 179.77 107.384 179.552C107.465 179.333 107.506 179.096 107.506 178.841C107.506 178.586 107.465 178.348 107.384 178.127C107.303 177.907 107.178 177.729 107.009 177.593C106.84 177.457 106.624 177.389 106.362 177.389C106.101 177.389 105.885 177.457 105.716 177.593C105.547 177.729 105.422 177.907 105.341 178.127C105.26 178.348 105.219 178.586 105.219 178.841C105.219 179.096 105.26 179.333 105.341 179.552C105.422 179.77 105.547 179.947 105.716 180.081C105.885 180.215 106.101 180.283 106.362 180.283ZM111.693 177.767L111.166 177.916C111.133 177.828 111.084 177.743 111.019 177.66C110.956 177.576 110.87 177.506 110.76 177.451C110.651 177.397 110.511 177.369 110.34 177.369C110.107 177.369 109.912 177.423 109.756 177.531C109.602 177.637 109.525 177.772 109.525 177.936C109.525 178.082 109.578 178.197 109.684 178.281C109.79 178.366 109.956 178.436 110.181 178.493L110.748 178.632C111.089 178.715 111.344 178.842 111.511 179.012C111.679 179.181 111.762 179.399 111.762 179.666C111.762 179.885 111.699 180.08 111.573 180.253C111.449 180.425 111.275 180.561 111.051 180.66C110.828 180.76 110.567 180.81 110.271 180.81C109.881 180.81 109.559 180.725 109.304 180.556C109.049 180.387 108.887 180.14 108.819 179.815L109.376 179.676C109.429 179.882 109.529 180.036 109.677 180.138C109.826 180.241 110.021 180.292 110.261 180.292C110.534 180.292 110.751 180.234 110.912 180.118C111.075 180.001 111.156 179.86 111.156 179.696C111.156 179.563 111.109 179.452 111.017 179.363C110.924 179.272 110.781 179.204 110.589 179.159L109.953 179.01C109.603 178.927 109.346 178.799 109.182 178.625C109.02 178.449 108.938 178.229 108.938 177.966C108.938 177.75 108.999 177.56 109.12 177.394C109.242 177.228 109.409 177.098 109.619 177.004C109.832 176.909 110.072 176.862 110.34 176.862C110.718 176.862 111.015 176.945 111.23 177.111C111.447 177.276 111.602 177.495 111.693 177.767ZM114.992 182.162C114.892 182.162 114.804 182.154 114.726 182.137C114.648 182.122 114.594 182.107 114.564 182.092L114.714 181.575C114.856 181.612 114.982 181.625 115.091 181.615C115.201 181.605 115.298 181.556 115.382 181.468C115.468 181.382 115.547 181.242 115.618 181.048L115.728 180.75L114.316 176.912H114.952L116.006 179.954H116.046L117.1 176.912H117.736L116.116 181.287C116.043 181.484 115.952 181.647 115.845 181.777C115.737 181.907 115.612 182.004 115.469 182.067C115.328 182.13 115.169 182.162 114.992 182.162ZM119.975 180.81C119.607 180.81 119.289 180.728 119.023 180.566C118.757 180.402 118.553 180.173 118.409 179.88C118.266 179.585 118.195 179.242 118.195 178.851C118.195 178.46 118.266 178.115 118.409 177.817C118.553 177.517 118.753 177.283 119.01 177.116C119.269 176.947 119.57 176.862 119.915 176.862C120.114 176.862 120.31 176.895 120.504 176.962C120.698 177.028 120.875 177.136 121.034 177.285C121.193 177.432 121.32 177.628 121.414 177.871C121.508 178.115 121.556 178.415 121.556 178.771V179.02H118.612V178.513H120.959C120.959 178.297 120.916 178.105 120.83 177.936C120.745 177.767 120.624 177.634 120.467 177.536C120.311 177.438 120.127 177.389 119.915 177.389C119.681 177.389 119.479 177.447 119.309 177.563C119.139 177.677 119.009 177.827 118.918 178.011C118.827 178.194 118.782 178.392 118.782 178.602V178.94C118.782 179.229 118.831 179.473 118.931 179.674C119.032 179.872 119.172 180.024 119.351 180.128C119.53 180.231 119.738 180.283 119.975 180.283C120.129 180.283 120.268 180.261 120.392 180.218C120.518 180.173 120.627 180.107 120.718 180.019C120.809 179.93 120.88 179.819 120.929 179.686L121.496 179.845C121.436 180.037 121.336 180.206 121.195 180.352C121.054 180.496 120.88 180.609 120.673 180.69C120.466 180.77 120.233 180.81 119.975 180.81ZM124.109 176.912V177.409H122.13V176.912H124.109ZM122.707 175.997H123.293V179.636C123.293 179.802 123.317 179.926 123.365 180.009C123.415 180.09 123.478 180.145 123.554 180.173C123.632 180.2 123.714 180.213 123.8 180.213C123.865 180.213 123.918 180.21 123.959 180.203C124.001 180.195 124.034 180.188 124.059 180.183L124.178 180.71C124.138 180.725 124.083 180.74 124.012 180.755C123.94 180.771 123.85 180.78 123.741 180.78C123.575 180.78 123.413 180.744 123.253 180.673C123.096 180.602 122.965 180.493 122.861 180.347C122.758 180.201 122.707 180.017 122.707 179.795V175.997Z" fill="#A0A0A0"/>
</g>
<defs>
<clipPath id="clip0_1_1422">
<rect width="170.35" height="215.38" fill="white" transform="translate(0.5)"/>
</clipPath>
</defs>
</svg>
