<svg width="118" height="118" viewBox="0 0 118 118" fill="none" xmlns="http://www.w3.org/2000/svg">
<path opacity="0.5" d="M0 6C0 2.68629 2.68629 0 6 0H111.659C114.972 0 117.659 2.68629 117.659 6V111.659C117.659 114.972 114.972 117.659 111.659 117.659H6C2.68629 117.659 0 114.972 0 111.659V6Z" fill="#BEBEBE"/>
<path d="M35.5833 89C35.5833 89 31 89 31 83.9167C31 78.8333 35.5833 63.5833 58.5 63.5833C81.4167 63.5833 86 78.8333 86 83.9167C86 89 81.4167 89 81.4167 89H35.5833ZM58.5 58.5C62.1467 58.5 65.6441 56.8933 68.2227 54.0334C70.8013 51.1734 72.25 47.2946 72.25 43.25C72.25 39.2054 70.8013 35.3266 68.2227 32.4666C65.6441 29.6067 62.1467 28 58.5 28C54.8533 28 51.3559 29.6067 48.7773 32.4666C46.1987 35.3266 44.75 39.2054 44.75 43.25C44.75 47.2946 46.1987 51.1734 48.7773 54.0334C51.3559 56.8933 54.8533 58.5 58.5 58.5Z" fill="#5A5A5A"/>
</svg>
