<svg width="61" height="60" viewBox="0 0 61 60" fill="none" xmlns="http://www.w3.org/2000/svg">
<path d="M22.0645 15.8125L23.3589 27.5939C23.8707 32.2521 27.5487 35.9301 32.2069 36.4419L43.9883 37.7363L32.2069 39.0308C27.5487 39.5426 23.8707 43.2206 23.3589 47.8788L22.0645 59.6602L20.77 47.8788C20.2582 43.2206 16.5802 39.5426 11.922 39.0308L0.140625 37.7363L11.922 36.4419C16.5802 35.9301 20.2582 32.2521 20.77 27.5939L22.0645 15.8125Z" fill="#F66A61"/>
<path d="M48.3814 0.100769L49.1606 7.19298C49.4165 9.52208 51.2555 11.3611 53.5846 11.617L60.6769 12.3962L53.5847 13.1755C51.2555 13.4314 49.4165 15.2704 49.1606 17.5995L48.3814 24.6917L47.6022 17.5995C47.3463 15.2704 45.5073 13.4314 43.1781 13.1755L36.0859 12.3962L43.1781 11.617C45.5073 11.3611 47.3463 9.52209 47.6022 7.19298L48.3814 0.100769Z" fill="#FFB54A"/>
</svg>
