<svg width="61" height="61" viewBox="0 0 61 61" fill="none" xmlns="http://www.w3.org/2000/svg">
<path d="M21.9395 16.2455L23.2339 28.0268C23.7457 32.6851 27.4237 36.3631 32.0819 36.8749L43.8633 38.1693L32.0819 39.4638C27.4237 39.9756 23.7457 43.6536 23.2339 48.3118L21.9395 60.0931L20.645 48.3118C20.1332 43.6536 16.4552 39.9756 11.797 39.4637L0.015625 38.1693L11.797 36.8749C16.4552 36.3631 20.1332 32.6851 20.645 28.0268L21.9395 16.2455Z" fill="#77DBE0"/>
<path d="M48.2564 0.533691L49.0356 7.6259C49.2915 9.95501 51.1305 11.794 53.4596 12.0499L60.5519 12.8292L53.4597 13.6084C51.1305 13.8643 49.2915 15.7033 49.0356 18.0324L48.2564 25.1246L47.4772 18.0324C47.2213 15.7033 45.3823 13.8643 43.0531 13.6084L35.9609 12.8292L43.0531 12.0499C45.3823 11.794 47.2213 9.95501 47.4772 7.6259L48.2564 0.533691Z" fill="#FFCC01"/>
</svg>
