<svg width="67" height="55" viewBox="0 0 67 55" fill="none" xmlns="http://www.w3.org/2000/svg">
<path d="M54.165 42.1612C54.1726 39.9835 54.0344 37.8252 53.9869 35.6054C53.9391 34.1277 53.8491 32.7051 53.704 31.2403C53.6558 30.5046 53.4841 30.3295 52.7356 30.2805C52.2366 30.2479 51.7504 30.3124 51.2514 30.2798C50.7038 30.2536 50.1334 30.4283 49.5177 30.2627C49.3104 30.1913 49.2067 30.1556 49.1809 29.9611C49.204 29.0181 49.13 28.0881 49.1596 27.1937C49.1862 25.904 48.8433 24.8117 47.9364 23.9428C47.4829 23.5083 46.9744 23.0317 46.5209 22.5972C46.129 22.2535 45.9832 22.2729 45.5779 22.5741C45.1727 22.8752 44.8355 23.3158 44.4238 23.5683C44.2586 23.4418 44.2878 23.2896 44.2685 23.1437C44.2882 22.5475 44.2658 22.0063 44.2856 21.41C44.3543 20.0652 44.0406 18.8207 43.5811 17.5955C42.8367 15.7156 41.5056 14.2599 39.9022 12.9888C39.2349 12.4343 38.519 11.8863 37.8518 11.3318C37.1294 10.7352 36.5822 9.9669 36.2229 9.12417C36.074 8.74819 35.9251 8.3722 36.2689 7.98027C36.3953 7.81507 36.4603 7.55909 36.2951 7.43262C35.9517 7.08247 35.9909 6.63205 36.0364 6.23025C36.0463 5.93212 35.9654 5.69553 35.6251 5.74072C35.2784 5.7373 35.2685 6.03543 35.3494 6.27203C35.5047 6.69662 35.4527 7.04981 35.1512 7.38667C35.0669 7.49681 34.9955 7.70416 35.0634 7.84354C35.3969 8.49182 35.079 9.0782 34.7547 9.61597C34.1482 10.6364 33.4315 11.5726 32.4331 12.2493C32.0279 12.5505 31.6777 12.8938 31.2725 13.195C28.9383 14.9891 27.6182 17.341 27.4158 20.2866C27.3733 21.0837 27.3793 21.8744 27.3854 22.6651C27.3562 22.8174 27.4857 23.0476 27.2004 23.1349C26.9866 23.0149 26.9122 22.8269 26.7405 22.6518C26.5624 22.4282 26.3129 22.4118 26.1443 22.6321C25.5898 23.2994 24.8021 23.7008 24.1311 24.2351C23.1877 24.9541 22.6784 25.9616 22.6811 27.099C22.6644 28.0906 22.5018 29.1016 22.6795 30.0674C22.7441 30.5535 22.6955 30.56 22.1608 30.631C21.2858 30.7472 20.4107 30.8634 19.5357 30.9796C18.7093 31.0894 18.5829 31.2546 18.4431 32.0646C18.2221 33.3802 18.2019 34.7185 18.1267 36.0147C18.0124 37.7613 18.0439 39.4885 17.9782 41.2287C17.9482 42.8652 17.9182 44.5016 17.9854 46.1252C18.0044 47.0131 18.2311 47.2303 19.0898 47.3636C20.2466 47.5068 21.4198 47.4005 22.5507 47.3492C24.2229 47.2755 25.8886 47.1533 27.5801 47.2254C29.9101 47.2623 32.24 47.2991 34.5764 47.3846C37.5641 47.5319 40.5067 47.339 43.4556 47.1947C45.4259 47.1309 47.3476 47.0736 49.3179 47.0098C50.6012 46.9878 51.878 46.9171 53.1613 46.8951C53.8483 46.8533 54.2892 46.4485 54.2053 45.8165C54.1962 44.6305 54.1806 43.3958 54.165 42.1612Z" fill="#FE9939"/>
<path d="M63.9915 45.7536C63.8981 44.6777 63.8533 43.5953 63.7599 42.5194C63.7052 41.7351 63.5403 40.8666 63.7416 40.1473C64.0079 39.172 63.8852 38.2484 63.7075 37.2826C63.4264 35.539 63.3885 33.7632 63.3505 31.9874C63.3247 31.7929 63.3961 31.5855 63.5225 31.4203C63.9441 30.8697 63.8245 30.3414 63.4132 29.8519C63.235 29.6282 63.1542 29.3916 63.164 29.0934C63.1709 28.4 63.0869 27.768 63.0938 27.0745C63.0748 26.1866 63.1109 25.3408 63.0433 24.4594C62.9951 23.7237 62.8918 22.946 63.2939 22.2494C63.414 22.0356 63.3752 21.744 63.1971 21.5203C62.9575 21.2058 62.9058 20.8169 62.9578 20.4637C63.1367 19.2032 62.5993 18.1368 61.9712 17.1319C61.5956 16.5387 61.3461 16.5224 60.9245 17.0731C60.3408 17.8926 59.8543 18.6993 59.8991 19.7816C59.9021 20.177 59.8566 20.5788 59.8596 20.9741C59.8368 21.175 59.759 21.3338 59.6325 21.499C59.2823 21.8423 59.2432 22.2927 59.4536 22.7595C59.5216 22.8989 59.6446 23.0804 59.6154 23.2327C59.6435 25.3067 59.6716 27.3806 59.7483 29.4481C59.732 29.6977 59.6963 29.8013 59.5212 29.973C59.1224 30.3228 59.1319 30.7667 59.3845 31.1784C59.5075 31.3599 59.582 31.5479 59.5656 31.7974C59.4999 33.5376 59.6837 35.2941 59.5759 37.0893C59.5724 37.436 59.5626 37.7341 59.3518 38.0095C59.0567 38.395 59.0597 38.7903 59.3609 39.1955C59.4904 39.4257 59.6134 39.6072 59.6036 39.9053C59.5477 41.3474 59.6928 42.8122 59.637 44.2542C59.6172 44.8504 59.5975 45.4467 59.6814 46.0786C59.7425 46.9115 59.8462 46.9472 60.7892 46.9704C61.6156 46.8606 62.6072 46.8773 63.5988 46.894C63.9456 46.8975 64.1206 46.7258 64.1241 46.3791C63.9945 46.1489 64.0173 45.948 63.9915 45.7536Z" fill="#FE9939"/>
<path d="M13.508 38.1123C13.2262 37.8529 13.181 37.5126 13.1844 37.1659C13.1719 36.3265 13.1658 35.5358 13.1533 34.6965C13.1377 33.4619 12.9763 32.2466 13.4598 31.0446C13.609 30.6785 13.5152 30.3446 13.2756 30.0302C12.9809 29.6736 12.9357 29.3333 12.9813 28.9315C12.9949 27.5445 13.0572 26.1511 13.0709 24.7642C13.0842 24.1193 13.1461 23.468 13.3603 22.8459C13.4674 22.5349 13.4708 22.1881 13.2862 21.9158C12.7648 21.342 12.9726 20.6713 13.0895 20.0621C13.1902 19.7025 13.2 19.4044 13.1484 19.0155C12.9836 18.1469 12.4978 17.4694 11.9635 16.7983C11.7239 16.4839 11.4257 16.474 11.2214 16.7979C10.6798 17.5624 10.1383 18.3269 9.9142 19.2471C9.81356 19.6068 9.81014 19.9535 10.1892 20.2C10.2928 20.2357 10.3544 20.3265 10.3187 20.4301C10.2374 20.9356 10.4056 21.4574 9.90963 21.8201C9.59517 22.0598 9.54314 22.413 9.78924 22.776C10.1098 23.3271 10.1386 23.9169 10.0703 24.5196C9.91076 25.9259 9.89708 27.3129 9.83479 28.7063C9.80858 29.2539 9.73377 29.808 9.40298 30.2971C9.1208 30.7798 9.03953 31.2853 9.40221 31.7813C9.58033 32.005 9.61261 32.2481 9.64489 32.4911C9.7835 33.9073 9.67906 35.3558 9.62323 36.7978C9.59057 37.2969 9.56436 37.8445 9.12343 38.2493C8.81543 38.5376 8.99659 39.1566 9.37561 39.4031C9.65095 39.6139 9.77399 39.7954 9.72196 40.1486C9.53321 41.7072 9.39306 43.2594 9.35014 44.7986C9.33039 45.3949 9.31064 45.9911 9.29089 46.5874C9.29393 46.9827 9.36836 47.1707 9.82523 47.2585C10.6353 47.3982 11.4746 47.3857 12.3075 47.3245C13.62 47.1502 13.62 47.1502 13.5494 45.8734C13.4757 44.2012 13.3534 42.5355 13.2797 40.8634C13.2638 40.3708 13.358 39.9625 13.5429 39.4927C13.7214 38.9744 13.9064 38.5046 13.508 38.1123Z" fill="#FE9939"/>
<path d="M57.9908 31.8581C57.9171 30.1859 57.8985 28.5559 57.9285 26.9194C57.9323 25.8306 57.3657 24.9165 56.9871 23.9279C56.8382 23.5519 56.5952 23.5842 56.2872 23.8725C55.9856 24.2093 55.752 24.6856 55.5056 25.0646C55.2591 25.4436 55.1649 25.8519 55.1809 26.3444C55.19 27.5305 55.1569 28.7716 55.1174 29.9641C55.1235 30.7548 55.0809 31.552 55.087 32.3427C55.2066 32.8709 55.0638 33.2856 55.0733 33.7296C55.0787 36.0045 55.0289 38.2372 55.0342 40.5121C55.0627 41.844 55.1462 43.218 55.1747 44.5499C55.2036 45.1397 55.2746 45.6744 55.4007 46.2513C55.4652 46.7374 55.5754 46.8217 56.0744 46.8544C56.3725 46.8642 56.6642 46.8255 56.9623 46.8354C58.1905 46.7712 58.2748 46.6611 58.3143 45.4686C58.3705 43.2845 58.1772 41.084 58.1784 38.8578C58.1666 36.5343 58.1062 34.2173 57.9908 31.8581Z" fill="#FE9939"/>
<path d="M17.378 43.0398C17.282 40.8264 17.3868 38.6359 17.3879 36.4096C17.4153 33.6357 17.339 30.8261 17.3663 28.0522C17.3731 27.3587 17.38 26.6653 17.429 25.9167C17.4715 25.1196 17.1381 24.4713 16.6588 23.8424C16.3641 23.4857 16.1632 23.463 15.8681 23.8484C15.2293 24.6258 14.7493 25.4811 14.6418 26.5342C14.5115 27.7882 14.4363 29.0844 14.4583 30.3677C14.3881 34.6808 14.2206 39.0069 14.3447 43.2942C14.3895 44.3766 14.3857 45.4654 14.4305 46.5478C14.4594 47.1376 14.576 47.2705 15.1593 47.193C15.6941 47.122 16.1996 47.2033 16.7343 47.1323C17.457 46.9868 17.4635 47.0354 17.4638 46.2933C17.3769 45.266 17.3807 44.1772 17.378 43.0398Z" fill="#FE9939"/>
<path d="M40.4424 22.2666C40.9026 22.0076 41.1913 21.5735 41.5965 21.2724C41.9953 20.9226 42.1411 20.9032 42.5395 21.2955C43.0416 21.7235 43.495 22.158 43.9549 22.6411C44.8683 23.5586 45.2112 24.6509 45.1782 25.892C45.155 26.835 45.2777 27.7586 45.1994 28.6594C45.1831 28.909 45.3354 28.9382 45.5363 28.961C46.0969 29.0844 46.6737 28.9583 47.27 28.9781C47.769 29.0107 48.2551 28.9462 48.7542 28.9789C49.5027 29.0279 49.6744 29.2029 49.7226 29.9386C49.8677 31.4034 49.9577 32.826 50.0055 34.3037C50.0951 36.4685 50.1912 38.6818 50.1836 40.8595C50.1992 42.0941 50.1661 43.3352 50.3275 44.5505C50.4115 45.1825 49.9705 45.5873 49.2835 45.6291C48.0067 45.6997 46.7234 45.7218 45.4402 45.7438C43.4699 45.8076 41.5417 45.8163 39.5779 45.9287C36.6225 46.0244 33.6799 46.2173 30.6987 46.1186C28.3623 46.0331 26.0323 45.9963 23.7024 45.9594C22.0173 45.9359 20.3452 46.0095 18.673 46.0832C17.542 46.1345 16.3689 46.2408 15.2121 46.0976C14.3534 45.9643 14.1753 45.7406 14.1077 44.8592C14.0405 43.2356 14.0705 41.5992 14.1005 39.9627C14.1662 38.2225 14.1347 36.4953 14.249 34.7487C14.3177 33.4039 14.2892 32.072 14.5653 30.7986C14.7051 29.9886 14.8316 29.8234 15.658 29.7136C16.533 29.5974 17.408 29.4812 18.283 29.365C18.8177 29.294 18.915 29.281 18.8018 28.8014C18.6176 27.787 18.8352 26.8182 18.8033 25.833C18.8007 24.6956 19.3099 23.6881 20.2533 22.9691C20.9244 22.4348 21.7121 22.0334 22.2665 21.3661C22.4352 21.1458 22.6911 21.2108 22.8628 21.3858C23.0344 21.5609 23.1089 21.7489 23.3227 21.8689C23.6079 21.7816 23.4784 21.5514 23.5077 21.3991C23.5502 20.602 23.4955 19.8177 23.538 19.0206C23.7405 16.075 25.0055 13.6809 27.3947 11.929C27.7999 11.6278 28.1501 11.2845 28.5553 10.9834C29.5473 10.258 30.2639 9.32184 30.8769 8.34999C31.2012 7.81222 31.4705 7.2323 31.1857 6.57756C31.1177 6.43818 31.1469 6.28588 31.2734 6.12067C31.575 5.78381 31.5719 5.38847 31.4717 5.00603C31.3843 4.72082 31.4006 4.47131 31.7474 4.47473C32.0455 4.4846 32.1686 4.66614 32.1587 4.96426C32.1131 5.36607 32.074 5.81649 32.4173 6.16664C32.5339 6.29957 32.524 6.59768 32.3911 6.71427C32.0474 7.1062 32.1898 7.43358 32.3451 7.85817C32.7109 8.74952 33.3003 9.46274 33.974 10.0658C34.6413 10.6203 35.3085 11.1748 36.0244 11.7228C37.6214 12.9453 38.9525 14.401 39.7033 16.3295C40.1629 17.5547 40.4765 18.7992 40.4078 20.144C40.3881 20.7403 40.3618 21.2879 40.3907 21.8777C40.2999 21.9393 40.3193 22.0851 40.4424 22.2666ZM39.9273 40.7375L39.8787 40.744C39.9117 39.5029 39.9999 38.3039 39.9357 37.0757C39.8491 35.3063 39.8176 33.5791 39.7796 31.8032C39.7675 30.2218 39.7067 28.6469 39.6946 27.0655C39.6885 26.2748 39.5069 26.3978 38.9593 26.3716C37.2742 26.3481 35.5956 26.3731 33.917 26.3982C31.2046 26.4616 28.4922 26.525 25.8091 26.4362C25.6633 26.4555 25.566 26.4684 25.4137 26.4392C25.1642 26.4229 25.0313 26.5395 25.0636 26.7825C25.083 26.9283 25.0473 27.032 25.0666 27.1779C25.0556 29.7023 25.1353 32.1651 25.2215 34.6766C25.2724 36.5497 25.2747 38.4292 25.277 40.3087C25.2633 41.6956 25.2496 43.0826 25.2359 44.4696C25.2325 44.8163 25.307 45.0043 25.7088 45.0499C26.1592 45.089 26.6096 45.1281 27.06 45.1672C27.6077 45.1934 27.6012 45.1448 27.5853 44.6522C27.5568 43.3204 27.4311 42.0014 27.4998 40.6566C27.5389 40.2062 27.5781 39.7558 27.52 39.3182C27.3585 38.103 27.5503 36.9397 27.6871 35.7343C27.8139 34.827 28.2647 34.124 28.9909 33.6318C29.3053 33.3922 29.5776 33.2076 29.8921 32.968C30.7154 32.4629 31.4773 31.867 31.9087 31.0182C31.9509 30.9631 31.9444 30.9145 31.993 30.9081C32.2946 30.5712 32.5862 30.5325 32.8388 30.9441C33.0784 31.2586 33.3667 31.5666 33.6485 31.826C34.1505 32.254 34.6526 32.682 35.1547 33.11C35.9385 33.7974 36.4436 34.6208 36.6764 35.6287C36.9544 36.9769 36.8921 38.3703 36.9757 39.7444C37.0399 40.9726 37.0554 42.2073 37.071 43.4419C37.0869 43.9345 37.145 44.372 37.2096 44.8581C37.2419 45.1012 37.3099 45.2405 37.5529 45.2083C38.0941 45.1859 38.5867 45.1699 39.1279 45.1475C39.7598 45.0636 39.7598 45.0636 39.7731 44.4187C39.8905 43.0675 39.9364 41.9236 39.9273 40.7375ZM24.2828 20.1584C24.2923 20.6024 24.2532 21.0528 24.2626 21.4968C24.2399 21.6977 24.3078 21.837 24.5509 21.8048C25.669 21.6563 26.8258 21.7994 27.9503 21.6996C29.9498 21.4835 31.933 21.5169 33.9519 21.4467C35.6306 21.4216 37.2541 21.3544 38.9327 21.3293C39.3281 21.3263 39.461 21.2097 39.458 20.8143C39.4359 19.5311 39.3653 18.2543 39.0516 17.0097C38.8253 16.0504 38.4109 15.1655 37.8151 14.4037C36.863 13.1944 35.7358 12.1569 34.5243 11.2295C34.249 11.0187 33.9379 10.9116 33.5426 10.9146C32.6482 10.885 31.7246 11.0077 30.8302 10.978C30.1367 10.9712 29.6149 11.1394 29.0832 11.6058C28.0749 12.5807 26.8949 13.3805 26.0032 14.4883C25.2379 15.4309 24.6865 16.4935 24.5562 17.7476C24.4229 18.6063 24.3253 19.3613 24.2828 20.1584ZM32.5889 31.6699C32.1738 32.2692 31.7879 32.7162 31.2919 33.0789C30.7959 33.4416 30.2935 33.7556 29.791 34.0697C29.1071 34.5068 28.6984 35.1547 28.51 35.9713C28.2924 36.9401 28.2206 37.8895 28.2039 38.8811C28.109 40.7736 28.2149 42.6888 28.3209 44.604C28.3497 45.1938 28.3497 45.1938 28.946 45.2136C30.9778 45.2405 33.0647 45.3097 35.0965 45.3366C35.2974 45.3594 35.4854 45.285 35.6863 45.3078C36.0817 45.3047 36.1531 45.0974 36.1565 44.7506C36.2811 41.9638 36.1561 39.1607 35.9761 36.3154C35.8827 35.2395 35.4683 34.3546 34.6359 33.6736C34.0043 33.0155 33.2398 32.4739 32.5889 31.6699ZM18.5937 30.2142C17.7187 30.3304 16.8987 30.4887 16.0237 30.605C15.732 30.6437 15.6056 30.8089 15.5471 31.1135C15.4753 32.0629 15.3971 32.9638 15.3739 33.9068C15.3048 35.9936 15.2907 38.1227 15.2216 40.2095C15.1657 41.6516 15.1164 43.1422 15.1578 44.5713C15.19 44.8144 15.1186 45.0217 15.4718 45.0737C16.2268 45.1714 17.024 45.2139 17.8147 45.2078C18.1128 45.2177 18.1907 45.0589 18.207 44.8094C18.1717 44.171 18.3373 43.5554 18.3506 42.9105C18.4174 38.9441 18.6852 35.0005 18.752 31.0341C18.6711 30.7975 18.7361 30.5415 18.5937 30.2142ZM18.9115 42.2919C18.9856 43.222 18.8458 44.032 18.9491 44.8098C18.9878 45.1015 19.0136 45.2959 19.3539 45.2507C19.7493 45.2477 19.7105 44.956 19.6783 44.713C19.7045 44.1653 19.7857 43.6599 19.7633 43.1187C19.7512 41.5373 20.442 40.4067 21.6512 39.4546C21.9657 39.2149 22.1601 39.1891 22.3998 39.5036C23.0572 40.3562 23.6238 41.2703 23.7237 42.3948C23.7719 43.1305 23.8752 43.9082 23.9234 44.6439C23.9493 44.8383 23.8908 45.1429 24.2797 45.0913C24.6199 45.0461 24.5326 44.7609 24.5068 44.5664C24.4809 44.372 24.4551 44.1775 24.4293 43.9831C24.408 41.2156 24.3932 38.4968 24.3234 35.7358C24.2497 34.0636 24.1339 32.4465 24.206 30.755C24.2322 30.2074 24.1772 30.1652 23.5809 30.1454C22.8874 30.1386 22.2004 30.1804 21.4583 30.18C20.9171 30.2024 20.3695 30.1762 19.8219 30.15C19.2256 30.1302 19.2256 30.1302 19.2059 30.7265C19.1797 31.2741 19.2507 31.8089 19.2245 32.3565C19.1774 35.7267 19.1303 39.0968 18.9115 42.2919ZM46.0596 44.8205C45.9855 43.8905 46.0638 42.9896 46.0383 42.0531C45.9935 40.9707 46.4736 40.1155 47.1059 39.2895C47.3102 38.9655 47.5597 38.9818 47.7508 39.3027C48.2429 40.0289 48.5893 40.7744 48.6569 41.6559C48.7051 42.3915 48.802 43.1207 48.7465 43.8206C48.7237 44.0215 48.756 44.2646 48.7883 44.5076C48.827 44.7993 49.0701 44.767 49.2645 44.7412C49.459 44.7154 49.4947 44.6117 49.4689 44.4172C49.3629 42.502 49.4514 40.561 49.3941 38.6393C49.282 35.9334 49.2608 33.1659 49.1001 30.4664C49.0261 29.5364 48.971 29.4942 48.0896 29.5618C47.9923 29.5747 47.9016 29.6363 47.7979 29.6006C47.1595 29.6359 46.4854 29.7749 45.834 29.713C45.335 29.6803 45.335 29.6803 45.3445 30.1243C45.3472 31.2617 45.3498 32.3991 45.4497 33.5237C45.5686 35.5361 45.6324 37.5064 45.6054 39.5382C45.6175 41.1196 45.7269 42.6881 45.8363 44.2566C45.7713 44.5125 45.7972 44.707 46.0596 44.8205ZM41.2189 43.3857C41.1999 42.4978 41.2782 41.597 41.5573 40.7189C41.7715 40.0968 42.1574 39.6498 42.702 39.2807C42.9743 39.0961 43.2238 39.1125 43.4084 39.3848C43.8033 40.1238 44.2469 40.8564 44.3145 41.7379C44.3692 42.5221 44.4303 43.355 44.5336 44.1328C44.5659 44.3758 44.4231 44.7905 44.7634 44.7453C45.1101 44.7488 45.0034 44.3177 44.9711 44.0747C44.8549 43.1997 44.8295 42.2631 44.8105 41.3752C44.8116 39.1489 44.8614 36.9162 44.7653 34.7029C44.711 33.1765 44.6567 31.6502 44.651 30.1174C44.648 29.7221 44.4828 29.5956 44.0874 29.5986C43.1023 29.6305 42.075 29.7175 41.0769 29.6522C40.7302 29.6488 40.6037 29.814 40.6003 30.1607C40.5935 30.8542 40.6352 31.5412 40.6349 32.2833C40.65 34.26 40.756 36.1753 40.8198 38.1455C40.8608 40.3167 40.944 42.4329 40.6869 44.5942C40.6576 44.7465 40.5798 44.9052 40.8293 44.9215C41.0788 44.9379 41.1631 44.8277 41.1373 44.6333C41.1828 44.2315 41.1798 43.8361 41.2189 43.3857ZM25.304 25.6128C26.0654 25.759 26.8368 25.6071 27.5789 25.6075C30.0546 25.625 32.5433 25.7397 34.9997 25.6113C36.2279 25.5471 37.4755 25.6288 38.6616 25.6197C39.4036 25.6201 39.4036 25.6201 39.404 24.878C39.3911 24.7807 39.3847 24.7321 39.4204 24.6285C39.4788 24.3239 39.3687 24.2396 39.0706 24.2297C37.3855 24.2061 35.7004 24.1826 34.0154 24.159C31.2415 24.1317 28.5032 24.0006 25.7552 24.1677C25.5607 24.1936 25.2983 24.08 25.0746 24.2581C25.1813 24.6892 25.2394 25.1267 25.304 25.6128ZM34.5672 22.3543C31.6345 22.2491 28.7277 22.3384 25.7787 22.4827C25.3834 22.4857 24.988 22.4887 24.5927 22.4918C24.2459 22.4884 24.1745 22.6957 24.3591 22.968C24.5501 23.2889 24.8904 23.2437 25.1399 23.2601C27.9203 23.336 30.652 23.4184 33.4195 23.3972C34.5083 23.401 35.555 23.4599 36.6309 23.3664C37.4151 23.3118 38.1637 23.3607 38.9608 23.4033C39.4112 23.4424 39.4599 23.436 39.4568 23.0406C39.4538 22.6453 39.2821 22.4702 38.8382 22.4797C37.4512 22.466 36.0092 22.4102 34.5672 22.3543ZM21.6744 25.8475C22.0212 25.8509 22.3193 25.8608 22.611 25.822C22.9026 25.7833 23.2008 25.7932 23.4989 25.8031C24.5877 25.8069 24.6785 25.7453 24.3906 24.6952C24.3648 24.5008 24.2482 24.3679 24.1802 24.2285C23.8339 23.483 23.2574 22.867 22.7716 22.1895C22.5935 21.9658 22.4541 22.0337 22.2726 22.1568C21.7409 22.6232 21.1542 23.0474 20.5739 23.5202C19.9936 23.993 19.6757 24.5794 19.5716 25.2858C19.5067 25.5418 19.5746 25.6811 19.8728 25.691C20.4755 25.7594 21.1268 25.8213 21.6744 25.8475ZM22.0139 39.9506C21.2942 40.4914 20.7884 41.1522 20.6 41.9687C20.3759 42.8889 20.4564 43.8676 20.3846 44.817C20.3683 45.0666 20.4849 45.1995 20.728 45.1672C21.4701 45.1676 22.2121 45.168 23.0028 45.1619C23.2524 45.1782 23.3853 45.0616 23.353 44.8186C23.3177 44.1802 23.2338 43.5482 23.2535 42.952C23.2995 41.8081 22.8236 40.8324 22.0139 39.9506ZM41.3318 25.6113C41.9409 25.7283 42.56 25.5471 43.2049 25.5604C44.5496 25.6292 44.6275 25.4704 44.0643 24.2096C44.0643 24.2096 44.0578 24.161 44.0092 24.1674C43.6857 23.221 42.8304 22.741 42.2474 22.0764C42.0693 21.8527 41.9429 22.0179 41.8099 22.1345C41.061 22.8276 40.4351 23.7022 40.224 24.7196C39.9934 25.5912 40.11 25.7241 41.0401 25.6501C41.1373 25.6372 41.1859 25.6307 41.3318 25.6113ZM43.8888 44.1195C43.8436 43.7792 43.779 43.2931 43.8117 42.794C43.8348 41.851 43.5663 40.9468 43.1163 40.1656C42.9253 39.8447 42.8216 39.809 42.5622 40.0908C42.3028 40.3726 42.1471 40.6901 42.0465 41.0497C41.7932 42.1222 41.8866 43.1981 41.8277 44.2448C41.8144 44.8897 41.8144 44.8897 42.4528 44.8543C42.7445 44.8156 43.0491 44.8741 43.3472 44.884C43.8884 44.8615 43.8884 44.8616 43.8888 44.1195ZM47.42 39.7919C46.8655 40.4592 46.6027 41.0877 46.5601 41.8849C46.5533 42.5783 46.54 43.2232 46.6304 43.9038C46.7531 44.8274 46.7044 44.8338 47.6961 44.8506C47.7447 44.8441 47.7933 44.8376 47.8419 44.8312C48.1951 44.8832 48.3702 44.7116 48.2763 44.3777C48.1374 43.7036 48.2414 42.9972 48.1932 42.2616C48.1742 41.3737 47.9672 40.5602 47.42 39.7919ZM21.8134 26.5216C21.0227 26.5277 20.4751 26.5015 19.8724 26.4331C19.7687 26.3974 19.61 26.3195 19.5386 26.5269C19.5093 26.6792 19.6195 26.7635 19.7231 26.7992C20.4683 27.1949 20.7109 27.9047 20.8142 28.6825C20.8401 28.877 20.8108 29.0293 20.8853 29.2173C20.9111 29.4117 20.9791 29.5511 21.2221 29.5188C21.4166 29.493 21.4458 29.3407 21.475 29.1884C21.5271 28.8352 21.4754 28.4463 21.5761 28.0867C21.7838 27.416 22.1697 26.969 22.565 26.9659C23.009 26.9564 23.3101 27.3617 23.4556 28.0844C23.5559 28.4668 23.6075 28.8557 23.6592 29.2446C23.685 29.4391 23.7951 29.5234 23.9896 29.4975C24.1354 29.4782 24.1711 29.3745 24.2003 29.2222C24.2429 28.4251 24.1882 27.6408 24.328 26.8307C24.38 26.4775 24.2148 26.3511 23.881 26.4449C23.1518 26.5417 22.3546 26.4992 21.8134 26.5216ZM43.1057 29.2838C43.1805 28.7297 43.2812 28.3701 43.3268 27.9682C43.3336 27.2748 43.6222 26.8407 44.3385 26.6466C44.4843 26.6272 44.6237 26.5593 44.5979 26.3648C44.5721 26.1704 44.3776 26.1962 44.2318 26.2156C43.13 26.1145 42.067 26.3052 41.0204 26.2463C40.7709 26.23 40.693 26.3887 40.6702 26.5896C40.6634 27.2831 40.6565 27.9766 40.6561 28.7187C40.6691 28.8159 40.6398 28.9682 40.7986 29.0461C41.0158 28.8193 40.9284 28.5341 40.9448 28.2846C40.971 27.737 41.0523 27.2315 41.4446 26.8331C41.879 26.3796 42.3845 26.4609 42.6078 27.0249C42.7567 27.4009 42.8084 27.7897 42.7628 28.1916C42.7594 28.5383 42.7559 28.885 43.1057 29.2838ZM33.2707 10.3571C32.6877 9.6925 32.2149 9.11219 31.7421 8.53189C31.3399 9.2284 30.9183 9.77908 30.4611 10.4334C31.3911 10.3594 32.2369 10.3955 33.2707 10.3571ZM21.9513 29.422C22.2202 29.5841 22.5054 29.4968 22.8035 29.5067C23.0044 29.5294 23.0887 29.4193 23.0629 29.2249C23.0405 28.6837 22.9695 28.1489 22.7526 27.6336C22.6167 27.3548 22.4222 27.3807 22.2601 27.6495C22.1465 27.912 22.033 28.1744 22.0295 28.5211C22.0197 28.8193 21.9612 29.1238 21.9513 29.422ZM19.5446 27.3176C19.5313 27.9625 19.5116 28.5587 19.4918 29.155C19.4691 29.3559 19.5792 29.4402 19.7866 29.5116C20.292 29.5929 20.3764 29.4827 20.3669 29.0388C20.3703 28.692 20.3251 28.3517 20.1827 28.0244C20.1375 27.6841 19.9594 27.4604 19.5446 27.3176ZM42.2345 28.3112C42.2995 28.0552 42.157 27.7278 42.1183 27.4362C42.0989 27.2903 42.0731 27.0959 41.8787 27.1217C41.7328 27.1411 41.5999 27.2577 41.5707 27.41C41.4279 27.8247 41.3887 28.2751 41.3496 28.7255C41.3398 29.0236 41.4499 29.108 41.6994 29.1243C41.9489 29.1406 42.1984 29.1569 42.1954 28.7616C42.2311 28.6579 42.2603 28.5056 42.2345 28.3112ZM44.5553 27.162C44.0077 27.1358 43.7969 27.4111 43.7513 27.8129C43.7415 28.111 43.7316 28.4092 43.7217 28.7073C43.7054 28.9568 43.8641 29.0347 44.1137 29.051C44.3632 29.0673 44.5576 29.0415 44.561 28.6948C44.5451 28.2022 44.5777 27.7032 44.5553 27.162Z" fill="black"/>
<path d="M56.6922 45.5356C55.7492 45.5125 55.639 45.4282 55.5843 44.6439C55.5555 44.0541 55.5202 43.4157 55.5399 42.8195C55.5957 41.3775 55.4507 39.9127 55.5065 38.4706C55.5228 38.2211 55.4419 37.9845 55.2638 37.7608C54.9627 37.3556 54.9596 36.9602 55.2547 36.5748C55.4655 36.2994 55.4689 35.9527 55.4788 35.6546C55.5931 33.908 55.4093 32.1515 55.4686 30.3627C55.4849 30.1132 55.4104 29.9252 55.2874 29.7437C54.9862 29.3385 54.9767 28.8945 55.4241 28.5383C55.6057 28.4152 55.6835 28.2565 55.6512 28.0134C55.6231 25.9395 55.595 23.8655 55.5183 21.798C55.499 21.6521 55.4245 21.4641 55.3565 21.3248C55.1462 20.858 55.1917 20.4562 55.5354 20.0643C55.7105 19.8926 55.7398 19.7403 55.7625 19.5394C55.7595 19.1441 55.8537 18.7358 55.802 18.3469C55.7637 17.3132 56.2437 16.4579 56.8274 15.6383C57.2004 15.0941 57.505 15.1526 57.8741 15.6972C58.5023 16.7021 59.0397 17.7685 58.8608 19.029C58.8152 19.4308 58.8604 19.7711 59.1 20.0856C59.2781 20.3093 59.3169 20.6009 59.1969 20.8147C58.8433 21.5048 58.898 22.289 58.9462 23.0247C59.0138 23.9061 58.9842 24.8005 58.9967 25.6398C59.0385 26.3268 59.0803 27.0139 59.067 27.6587C59.0571 27.9568 59.138 28.1935 59.3161 28.4171C59.7274 28.9067 59.847 29.435 59.4255 29.9856C59.299 30.1508 59.2762 30.3517 59.2534 30.5526C59.2914 32.3285 59.3294 34.1043 59.6104 35.8479C59.7881 36.8137 59.9043 37.6887 59.6446 38.7126C59.4433 39.4319 59.6081 40.3004 59.6628 41.0847C59.7076 42.167 59.801 43.2429 59.8944 44.3189C59.9203 44.5133 59.8975 44.7142 59.8747 44.9151C59.8162 45.2197 59.6962 45.4335 59.3495 45.4301C58.5101 45.4426 57.5185 45.4259 56.6922 45.5356ZM56.4559 44.8745C57.2337 44.7712 57.9401 44.8752 58.6142 44.7362C59.1425 44.6166 59.1489 44.6652 59.1751 44.1176C59.1501 42.439 59.125 40.7603 59.1 39.0817C59.1034 38.735 58.9868 38.602 58.6465 38.6472C57.9595 38.689 57.2725 38.7308 56.5368 38.779C56.2452 38.8178 56.2224 39.0187 56.2482 39.2131C56.2866 40.2469 56.1726 41.2514 56.2596 42.2787C56.3693 43.1051 56.3819 43.9444 56.4559 44.8745ZM57.7924 35.9409C57.9382 35.9216 58.285 35.925 58.5831 35.9349C58.8812 35.9447 59.0628 35.8217 59.024 35.53C59.0047 35.3842 59.0339 35.2319 59.0145 35.0861C58.931 33.712 58.8474 32.338 58.8125 30.9575C58.8224 30.6594 58.6636 30.5815 58.4141 30.5652C57.8179 30.5454 57.2896 30.6651 56.6933 30.6453C56.298 30.6483 56.2687 30.8006 56.2653 31.1474C56.2258 32.3399 56.3808 33.5065 56.3413 34.699C56.2596 35.9466 56.3082 35.9402 57.7924 35.9409ZM58.6074 26.4336C58.579 25.1017 58.5019 23.7763 58.5706 22.4315C58.5512 22.2856 58.5869 22.1819 58.5676 22.0361C58.5482 21.8903 58.4738 21.7023 58.2858 21.7767C57.7575 21.8963 57.252 21.8151 56.7108 21.8375C56.4192 21.8762 56.3284 21.9377 56.3671 22.2294C56.4636 23.7007 56.3105 25.1556 56.4492 26.5718C56.5813 27.9394 56.5878 27.988 57.9489 27.8072C57.9975 27.8008 57.9975 27.8008 58.0461 27.7943C58.5808 27.7233 58.6295 27.7168 58.6557 27.1692C58.6298 26.9748 58.5976 26.7317 58.6074 26.4336ZM57.724 36.5436C57.3287 36.5467 56.9333 36.5497 56.538 36.5528C56.1426 36.5558 55.7374 36.857 55.7762 37.1486C55.7727 37.4954 56.1453 37.6932 56.2326 37.9784C56.2585 38.1729 56.4529 38.1471 56.5987 38.1277C57.3894 38.1216 58.2223 38.0605 59.0065 38.0058C59.1524 37.9864 59.2982 37.9671 59.3761 37.8083C59.5318 37.4908 59.5417 37.1927 59.3992 36.8653C59.2568 36.538 58.9944 36.4244 58.6541 36.4696C58.3203 36.5634 58.0222 36.5535 57.724 36.5436ZM57.3717 16.0113C57.0245 16.75 56.5608 17.3557 56.5248 18.2015C56.4591 19.9416 56.2551 19.5235 57.898 19.6021C57.9466 19.5957 57.9467 19.5957 57.9953 19.5892C58.1962 19.612 58.2805 19.5018 58.3033 19.3009C58.3492 18.1571 58.2493 17.0325 57.3717 16.0113ZM57.4001 30.0073C57.7469 30.0107 58.1908 30.0012 58.6283 29.9431C58.8228 29.9173 58.9686 29.8979 59.0465 29.7392C59.3772 29.25 59.0924 28.5953 58.4411 28.5334C57.9421 28.5007 57.4559 28.5652 56.9505 28.484C56.3964 28.4092 56.137 28.691 55.8354 29.0278C55.7025 29.1444 55.7219 29.2902 55.7899 29.4296C55.9809 29.7505 56.1719 30.0714 56.658 30.0069C56.9011 29.9746 57.102 29.9974 57.4001 30.0073ZM56.8343 21.2769C57.3397 21.3582 57.813 21.1964 58.3055 21.1805C58.5972 21.1417 58.6686 20.9344 58.74 20.727C58.8179 20.5683 58.6948 20.3867 58.5425 20.3575C57.7325 20.2177 56.9288 20.1266 56.1347 20.4794C56.0861 20.4858 56.0439 20.5409 55.9953 20.5474C55.8138 20.6704 55.8332 20.8162 55.9076 21.0042C55.9756 21.1436 56.0436 21.283 56.238 21.2572C56.4325 21.2313 56.6334 21.2541 56.8343 21.2769Z" fill="black"/>
<path d="M5.30696 43.4063C5.34988 41.867 5.49002 40.3149 5.67878 38.7563C5.73081 38.4031 5.60776 38.2215 5.33242 38.0108C4.9534 37.7643 4.77225 37.1453 5.08025 36.857C5.52118 36.4522 5.54738 35.9045 5.58005 35.4055C5.63588 33.9635 5.74678 32.5636 5.60171 31.0988C5.56942 30.8557 5.53714 30.6127 5.35903 30.389C4.99634 29.893 5.02901 29.394 5.3598 28.9048C5.69059 28.4157 5.72325 27.9166 5.79161 27.3139C5.8539 25.9205 5.81251 24.4914 6.02708 23.1272C6.09545 22.5245 6.1152 21.9283 5.74606 21.3837C5.54858 21.0142 5.55199 20.6674 5.86645 20.4278C6.30738 20.0229 6.18775 19.4947 6.27548 19.0378C6.31118 18.9341 6.24966 18.8434 6.14598 18.8077C5.76696 18.5612 5.77038 18.2144 5.87102 17.8548C6.1437 16.9281 6.68527 16.1636 7.17823 15.4056C7.38255 15.0816 7.68067 15.0915 7.92031 15.406C8.45466 16.077 8.94684 16.8032 9.10521 17.6231C9.1504 17.9634 9.14698 18.3102 9.04634 18.6698C8.88076 19.2854 8.72162 19.9497 9.24306 20.5235C9.47624 20.7893 9.42421 21.1425 9.31712 21.4536C9.10292 22.0757 9.04101 22.727 9.02772 23.3718C9.01404 24.7588 9.00036 26.1457 8.93807 27.5392C8.94111 27.9345 8.94415 28.3298 9.2324 28.6378C9.46558 28.9037 9.56584 29.2861 9.41659 29.6522C8.93313 30.8542 9.09453 32.0695 9.11009 33.3042C9.12262 34.1435 9.1287 34.9342 9.14123 35.7735C9.13781 36.1202 9.183 36.4605 9.46479 36.7199C9.91179 37.1058 9.73329 37.6242 9.49327 38.0518C9.25325 38.4794 9.20768 38.8812 9.23009 39.4224C9.25515 41.101 9.42604 42.7603 9.49971 44.4325C9.52819 45.7643 9.5768 45.7579 8.25783 45.8836C7.43143 45.9933 6.63428 45.9508 5.7756 45.8175C5.37379 45.7719 5.24429 45.5418 5.24125 45.1464C5.26746 44.5988 5.28721 44.0025 5.30696 43.4063ZM5.94195 43.7177C5.92561 43.9672 5.88004 44.369 5.88954 44.813C5.86333 45.3606 5.86333 45.3606 6.41097 45.3868C7.05583 45.4001 7.70069 45.4134 8.38771 45.3716C8.9289 45.3492 8.97105 45.2942 8.99726 44.7465C9.0398 43.9494 8.94296 43.2202 8.88827 42.436C8.80131 41.4087 8.81157 40.3684 8.7246 39.3411C8.70865 38.8486 8.65358 38.8064 8.15455 38.7738C7.66198 38.7897 7.1565 38.7084 6.67683 38.8216C6.33655 38.8668 6.20363 38.9834 6.20021 39.3301C6.18653 40.7171 5.9298 42.1363 5.94195 43.7177ZM8.646 34.652C8.63689 33.466 8.57916 32.2864 8.57651 31.1489C8.57993 30.8022 8.42118 30.7243 8.12305 30.7145C7.63048 30.7304 7.13791 30.7464 6.63888 30.7137C6.34075 30.7038 6.20784 30.8204 6.24657 31.1121C6.26594 31.2579 6.23669 31.4102 6.25606 31.5561C6.38822 32.9236 6.37455 34.3106 6.15997 35.6747C6.14364 35.9243 6.16946 36.1187 6.51619 36.1221C7.11245 36.1419 7.7087 36.1616 8.2985 36.1328C8.54801 36.1491 8.68094 36.0325 8.64866 35.7895C8.59701 35.4006 8.60042 35.0538 8.646 34.652ZM8.38512 25.2381C8.44703 24.5867 8.41172 23.9483 8.47362 23.297C8.54882 22.0008 8.37716 21.8258 7.07756 22.0973C7.02895 22.1038 7.02894 22.1038 6.98033 22.1102C6.68221 22.1003 6.61081 22.3077 6.59448 22.5572C6.48661 24.3524 6.37875 26.1476 6.32595 27.985C6.31608 28.2831 6.41976 28.3188 6.62066 28.3416C7.06462 28.3321 7.44706 28.2319 7.89748 28.271C8.20206 28.3295 8.33499 28.2129 8.33841 27.8661C8.31296 26.9296 8.34904 26.0838 8.38512 25.2381ZM7.46305 16.0603C7.14518 16.6467 6.863 17.1294 6.58728 17.6607C6.50297 17.7709 6.43803 18.0268 6.54171 18.0625C7.03732 18.4419 6.85236 18.9117 6.86185 19.3557C6.84856 20.0005 6.84856 20.0005 7.53558 19.9588C7.68142 19.9394 7.82725 19.92 7.97308 19.9007C8.07031 19.8877 8.21614 19.8684 8.20323 19.7712C8.28147 18.8703 8.70644 17.9729 8.2921 17.088C8.05246 16.7736 7.91005 16.4462 7.46305 16.0603ZM7.2936 36.7609C6.89825 36.764 6.49644 36.7184 6.10109 36.7214C5.75436 36.718 5.37496 37.2136 5.54016 37.3401C5.82195 37.5995 6.08096 38.0598 6.53138 38.0989C7.23131 38.1543 7.91833 38.1126 8.6118 38.1194C8.86132 38.1357 8.99424 38.0191 9.1078 37.7567C9.2863 37.2383 9.03375 36.8266 8.47965 36.7518C8.02923 36.7127 7.68895 36.7579 7.2936 36.7609ZM7.27502 28.7989C6.98335 28.8376 6.73383 28.8213 6.43571 28.8114C6.04036 28.8144 5.69666 29.2064 5.70615 29.6503C5.70919 30.0457 5.93591 30.2629 6.37988 30.2534C6.97613 30.2732 7.57238 30.2929 8.15572 30.2154C8.59323 30.1573 8.76185 29.9371 8.7459 29.4445C8.74286 29.0491 8.51614 28.8319 8.06572 28.7928C7.81621 28.7765 7.56669 28.7601 7.27502 28.7989ZM7.59634 21.5337C7.64495 21.5273 7.88801 21.495 8.08891 21.5178C8.38704 21.5276 8.62364 21.4467 8.67567 21.0935C8.68555 20.7954 8.46527 20.6268 8.06347 20.5812C7.61305 20.5421 7.2177 20.5451 6.77374 20.5546C6.52422 20.5383 6.34269 20.6613 6.27775 20.9173C6.19989 21.0761 6.54967 21.4748 6.75057 21.4976C7.00654 21.5626 7.20099 21.5367 7.59634 21.5337Z" fill="black"/>
<path d="M51.1476 30.986C51.148 30.2439 51.1905 29.4467 51.178 28.6074C51.2175 27.4149 51.2506 26.1738 51.2414 24.9877C51.2255 24.4952 51.3683 24.0805 51.5662 23.7079C51.8062 23.2803 51.9976 22.8591 52.3477 22.5158C52.6493 22.1789 52.8988 22.1952 53.0477 22.5712C53.4263 23.5598 53.9865 24.4253 53.9891 25.5628C53.9591 27.1992 53.9842 28.8778 54.0514 30.5014C54.1604 32.812 54.2272 35.1776 54.239 37.5011C54.2378 39.7273 54.4311 41.9278 54.3749 44.1119C54.3419 45.353 54.2511 45.4145 53.0229 45.4787C52.7312 45.5175 52.4331 45.5076 52.135 45.4977C51.5873 45.4715 51.5323 45.4293 51.4613 44.8946C51.3838 44.3113 51.2577 43.7344 51.2353 43.1932C51.2068 41.8613 51.0747 40.4937 51.0948 39.1554C51.0895 36.8805 51.1392 34.6478 51.1339 32.3729C51.1244 31.929 51.2608 31.4656 51.1476 30.986ZM52.7427 23.2548C52.1104 24.0808 52.0033 24.3919 52.0158 25.2312C52.0215 26.764 52.1244 28.2838 52.0815 29.8231C52.0025 32.2081 51.9786 34.6353 52.0518 37.0495C52.0993 39.2693 52.0917 41.447 52.0906 43.6732C52.1061 44.9079 51.9409 44.7814 53.3214 44.7465C53.6195 44.7564 53.7946 44.5847 53.7559 44.293C53.6169 43.6189 53.7274 42.9612 53.6856 42.2741C53.5087 39.8242 53.4775 37.3549 53.5501 34.9212C53.5668 33.9296 53.6386 32.9802 53.5581 32.0015C53.3906 29.9955 53.5148 27.9508 53.4445 25.9319C53.364 24.9532 53.102 24.0976 52.7427 23.2548Z" fill="black"/>
<path d="M13.3783 26.7021C13.3509 29.476 13.3786 32.2921 13.3999 35.0595C13.3987 37.2858 13.3425 39.4699 13.39 41.6897C13.4348 42.772 13.3888 43.9159 13.4336 44.9983C13.4333 45.7404 13.4268 45.6918 12.7041 45.8372C12.1758 45.9569 11.6703 45.8756 11.1291 45.898C10.5458 45.9755 10.4228 45.7939 10.4004 45.2527C10.3555 44.1704 10.3593 43.0816 10.3145 41.9992C10.1839 37.6633 10.3579 33.3858 10.4281 29.0727C10.4547 27.7829 10.5364 26.5354 10.6116 25.2392C10.7191 24.1861 11.1991 23.3308 11.8379 22.5534C12.1394 22.2165 12.3339 22.1907 12.6286 22.5473C13.1014 23.1276 13.4413 23.8245 13.3988 24.6217C13.3919 25.3151 13.3851 26.0086 13.3783 26.7021ZM12.1649 23.1531C11.5261 23.9305 11.2405 24.7599 11.3696 25.7321C11.4083 26.0238 11.392 26.2733 11.3821 26.5714C11.3453 28.9014 11.1562 31.2021 11.1744 33.5742C11.1668 35.7518 11.1041 37.8873 11.1937 40.0521C11.2773 41.4261 11.215 42.8195 11.2013 44.2065C11.1941 45.642 11.0581 45.3633 12.4937 45.3705C12.5423 45.364 12.5423 45.364 12.5909 45.3576C12.7854 45.3318 12.8211 45.2281 12.8503 45.0758C12.8959 44.674 12.7956 44.2915 12.7926 43.8962C12.7516 41.725 12.8078 39.5409 12.7668 37.3697C12.7258 35.1985 12.8857 33.0501 12.796 30.8854C12.7258 28.8665 12.7106 26.8897 12.8348 24.845C12.8416 24.1515 12.6734 23.6297 12.1649 23.1531Z" fill="black"/>
<path d="M21.2469 38.2716C20.8516 38.2746 20.5048 38.2712 20.103 38.2256C19.7012 38.18 19.536 38.0536 19.6302 37.6453C19.8121 36.7802 19.7445 35.8987 19.8778 35.04C20.0825 33.974 20.6241 33.2095 21.4216 32.5099C21.7783 32.2152 21.9305 32.2445 22.3289 32.6368C23.3524 33.6386 23.6175 34.8896 23.7011 36.2637C23.7106 36.7076 23.72 37.1516 23.7781 37.5891C23.8233 37.9294 23.6969 38.0946 23.3501 38.0912C22.621 38.188 21.9339 38.2298 21.2469 38.2716ZM20.2496 36.7221C20.2333 36.9716 20.2462 37.0688 20.2591 37.166C20.2394 37.7623 20.2394 37.7623 20.8356 37.782C21.4805 37.7953 22.0574 37.6692 22.7087 37.7311C23.0068 37.741 23.1333 37.5758 23.1367 37.2291C23.0949 36.542 23.0532 35.855 22.9563 35.1259C22.8659 34.4453 22.4903 33.8521 22.0726 33.3139C21.888 33.0416 21.7486 33.1096 21.5249 33.2877C20.9997 33.8027 20.5781 34.3534 20.4741 35.0598C20.3571 35.6689 20.2888 36.2716 20.2496 36.7221Z" fill="black"/>
<path d="M47.21 37.8409C46.0726 37.8436 46.0175 37.8014 46.0635 36.6575C46.0996 35.8118 45.9834 34.9368 46.3726 34.143C46.5641 33.7218 46.817 33.3914 47.1671 33.0481C47.5659 32.6983 47.7668 32.7211 48.0744 33.175C48.6411 34.0891 48.916 35.042 48.9058 36.0822C48.8894 36.3317 48.9217 36.5748 48.9054 36.8243C48.8921 37.4691 48.5355 37.7638 47.8971 37.7991C47.654 37.8314 47.4045 37.8151 47.21 37.8409ZM47.452 33.7029C46.9203 34.1692 46.6996 34.7427 46.6799 35.3389C46.6537 35.8866 46.7247 36.4213 46.7471 36.9625C46.7665 37.1083 46.7794 37.2056 46.9803 37.2283C47.327 37.2318 47.6251 37.2416 47.9719 37.2451C48.1177 37.2257 48.202 37.1156 48.1827 36.9697C48.1865 35.8809 48.2324 34.737 47.452 33.7029Z" fill="black"/>
<path d="M41.0801 36.3796C40.9057 35.0671 41.3535 33.9688 42.2711 33.0554C42.8384 32.4854 43.088 32.5017 43.4765 33.1921C43.933 34.022 44.195 34.8776 44.2204 35.8141C44.2235 36.2095 44.2265 36.6048 44.2782 36.9937C44.3135 37.6321 43.9698 38.0241 43.3314 38.0594C42.7902 38.0818 42.2976 38.0977 41.75 38.0715C41.1051 38.0582 41.0987 38.0096 41.112 37.3648C41.0668 37.0245 41.0702 36.6777 41.0801 36.3796ZM42.8153 33.4284C42.7245 33.4899 42.6759 33.4963 42.6337 33.5514C41.7519 34.3611 41.5472 35.4271 41.6471 36.5517C41.7147 37.4331 41.666 37.4396 42.554 37.4206C42.8035 37.4369 42.9979 37.4111 43.2474 37.4274C43.5942 37.4308 43.672 37.2721 43.6819 36.974C43.6789 36.5786 43.6823 36.2319 43.6306 35.843C43.5209 35.0166 43.3561 34.148 42.8153 33.4284Z" fill="black"/>
</svg>
