<svg width="335" height="37" viewBox="0 0 335 37" fill="none" xmlns="http://www.w3.org/2000/svg">
<path d="M30.0898 14.3928H41.6949V16.6245H37.2314V28.6759H34.5533V16.6245H30.0898V14.3928ZM41.0254 18.1867H43.2571V20.1953C43.2571 19.9721 43.4803 19.7489 43.7035 19.3026C43.9266 18.8562 44.1498 18.8562 44.373 18.6331C44.5962 18.4099 45.0425 18.1867 45.2657 18.1867C45.4889 17.9635 45.9352 17.9635 46.3816 17.9635C46.6047 17.9635 46.8279 17.9635 46.8279 17.9635H47.0511V20.1953C46.8279 20.1953 46.8279 20.1953 46.6047 20.1953C46.3816 20.1953 46.3816 20.1953 46.1584 20.1953C45.712 20.1953 45.4889 20.1953 45.0425 20.4185C44.5962 20.6416 44.373 20.8648 44.1498 21.088C43.9266 21.3112 43.7035 21.7575 43.4803 22.2039C43.2571 22.6502 43.2571 23.0965 43.2571 23.7661V28.6759H41.0254V18.1867ZM57.5403 28.6759H55.3085V27.3369C55.0853 27.7832 54.639 28.2296 53.9695 28.6759C53.5231 28.8991 52.8536 29.1223 52.1841 29.1223C50.845 29.1223 49.9523 28.8991 49.2828 28.0064C48.6133 27.1137 48.3901 26.221 48.3901 24.8819V18.4099H50.6219V24.6588C50.6219 25.5515 50.845 26.221 51.0682 26.6673C51.5146 27.1137 51.9609 27.3369 52.6304 27.3369C53.0768 27.3369 53.5231 27.3369 53.7463 27.1137C53.9695 26.8905 54.4158 26.6673 54.4158 26.4442C54.639 26.221 54.8622 25.9978 54.8622 25.5515C54.8622 25.1051 55.0854 24.8819 55.0854 24.4356V18.4099H57.3171V28.6759H57.5403ZM61.3342 25.3283C61.3342 25.9978 61.5574 26.4442 62.0037 26.6673C62.4501 26.8905 62.8964 27.1137 63.566 27.1137C63.7891 27.1137 64.0123 27.1137 64.2355 27.1137C64.4587 27.1137 64.6818 27.1137 64.905 26.8905C65.1282 26.8905 65.3514 26.6673 65.5745 26.4442C65.7977 26.221 65.7977 25.9978 65.7977 25.7746C65.7977 25.5515 65.5745 25.3283 65.5745 25.1051C65.3514 24.8819 65.1282 24.8819 64.905 24.6588C64.6818 24.6588 64.2355 24.4356 63.7891 24.4356C63.3428 24.4356 62.8964 24.2124 62.6733 24.2124C62.2269 24.2124 61.7806 23.9892 61.5574 23.7661C61.3342 23.5429 60.8879 23.5429 60.4415 23.3197C60.2184 23.0966 59.772 22.8734 59.772 22.427C59.5488 21.9807 59.5488 21.5343 59.5488 21.088C59.5488 20.4185 59.772 19.9721 59.9952 19.7489C60.2184 19.5258 60.6647 19.0794 61.1111 18.8562C61.5574 18.6331 62.0037 18.4099 62.4501 18.4099C62.8964 18.4099 63.566 18.1867 64.0123 18.1867C64.4587 18.1867 65.1282 18.1867 65.5745 18.4099C66.0209 18.4099 66.4672 18.6331 66.9136 18.8562C67.3599 19.0794 67.5831 19.5258 67.8063 19.7489C68.0295 20.1953 68.2526 20.6416 68.2526 21.3112H65.7977C65.7977 20.8648 65.3514 20.4185 65.1282 20.1953C64.4587 19.9721 64.0123 19.7489 63.566 19.7489C63.3428 19.7489 63.1196 19.7489 62.8964 19.7489C62.6733 19.7489 62.4501 19.7489 62.2269 19.9721C62.0038 19.9721 61.7806 20.1953 61.7806 20.1953C61.5574 20.4185 61.5574 20.4185 61.5574 20.6416C61.5574 20.8648 61.5574 21.088 61.7806 21.3112C62.0038 21.5343 62.2269 21.5343 62.4501 21.7575C62.6733 21.7575 63.1196 21.9807 63.566 21.9807C64.0123 21.9807 64.4587 22.2039 64.905 22.2039C65.3514 22.2039 65.7977 22.427 66.0209 22.6502C66.4672 22.8734 66.6904 22.8734 67.1368 23.0966C67.5831 23.3197 67.8063 23.5429 67.8063 23.9892C68.0295 24.4356 68.0295 24.6588 68.0295 25.3283C68.0295 25.9978 67.8063 26.4442 67.5831 26.8905C67.3599 27.3369 66.9136 27.56 66.4672 28.0064C66.2441 28.4527 65.7977 28.6759 65.3514 28.6759C64.905 28.6759 64.2355 28.8991 63.7891 28.8991C63.1196 28.8991 62.4501 28.8991 62.0037 28.6759C61.5574 28.4527 60.8879 28.2296 60.6647 28.0064C60.2184 27.7832 59.9952 27.3369 59.772 26.8905C59.3257 26.4442 59.1025 25.9978 59.1025 25.3283H61.3342ZM68.9222 18.1867H70.7075V15.2855H72.9393V18.4099H74.9478V20.1953H72.9393V25.7746C72.9393 25.9978 72.9393 26.221 72.9393 26.4442C72.9393 26.6673 72.9393 26.6673 73.1625 26.8905C73.3856 27.1137 73.3856 27.1137 73.3856 27.1137C73.6088 27.1137 73.832 27.1137 74.0552 27.1137C74.2783 27.1137 74.2783 27.1137 74.5015 27.1137C74.7247 27.1137 74.7247 27.1137 74.9478 27.1137V28.6759C74.7247 28.6759 74.5015 28.6759 74.2783 28.6759C74.0552 28.6759 73.832 28.6759 73.6088 28.6759C72.9393 28.6759 72.4929 28.6759 72.2698 28.4527C71.8234 28.4527 71.6002 28.2296 71.3771 28.0064C71.1539 27.7832 70.9307 27.56 70.9307 27.1137C70.9307 26.8905 70.7075 26.4442 70.7075 25.9978V19.9721H68.9222V18.1867ZM76.5101 18.1867H78.7418V19.7489C78.965 19.0794 79.4113 18.6331 80.0809 18.4099C80.7504 18.1867 81.1967 17.9635 81.8663 17.9635C82.7589 17.9635 83.4285 18.1867 84.098 18.4099C84.7675 18.6331 85.2139 19.0794 85.6602 19.5258C86.1066 19.9721 86.3297 20.6416 86.5529 21.3112C86.7761 21.9807 86.7761 22.6502 86.7761 23.5429C86.7761 24.2124 86.7761 24.8819 86.5529 25.5515C86.3297 26.221 86.1066 26.6673 85.6602 27.3369C85.2139 27.7832 84.7675 28.2296 84.3212 28.4527C83.6516 28.6759 83.2053 28.8991 82.3126 28.8991C82.0894 28.8991 81.6431 28.8991 81.4199 28.8991C81.1967 28.8991 80.7504 28.6759 80.5272 28.6759C80.304 28.4527 79.8577 28.4527 79.6345 28.2296C79.4113 28.0064 79.1882 27.7832 78.965 27.56V32.693H76.7332V18.1867H76.5101ZM84.5443 23.5429C84.5443 23.0966 84.5443 22.6502 84.3212 22.2039C84.098 21.7575 84.098 21.3112 83.8748 21.088C83.6516 20.8648 83.4285 20.4185 82.9821 20.1953C82.5358 19.9721 82.3126 19.9721 81.6431 19.9721C80.7504 19.9721 79.8577 20.1953 79.4113 20.8648C78.965 21.5343 78.7418 22.427 78.7418 23.5429C78.7418 23.9893 78.7418 24.6588 78.965 24.8819C79.1882 25.3283 79.1882 25.7746 79.6345 25.9978C79.8577 26.221 80.0809 26.6673 80.5272 26.6673C80.9735 26.8905 81.1967 26.8905 81.6431 26.8905C82.0894 26.8905 82.5358 26.8905 82.9821 26.6673C83.4285 26.4442 83.6516 26.221 83.8748 25.7746C84.098 25.3283 84.3212 25.1051 84.3212 24.6588C84.3212 24.4356 84.5443 23.9893 84.5443 23.5429ZM88.5615 14.3928H90.7932V16.6245H88.5615V14.3928ZM88.5615 18.1867H90.7932V28.6759H88.5615V18.1867ZM92.8018 14.3928H95.0335V28.6759H92.8018V14.3928ZM101.952 28.8991C101.059 28.8991 100.39 28.6759 99.7202 28.4527C99.0507 28.2296 98.6043 27.7832 98.158 27.3369C97.7116 26.8905 97.2653 26.221 97.0421 25.5515C96.8189 24.8819 96.5957 24.2124 96.5957 23.3197C96.5957 22.427 96.8189 21.7575 97.0421 21.088C97.2653 20.4185 97.7116 19.7489 98.158 19.3026C98.6043 18.8562 99.0507 18.4099 99.7202 18.1867C100.39 17.9635 101.059 17.7404 101.952 17.7404C102.845 17.7404 103.514 17.9635 104.184 18.1867C104.853 18.4099 105.3 18.8562 105.746 19.3026C106.192 19.7489 106.639 20.4185 106.862 21.088C107.085 21.7575 107.308 22.427 107.308 23.3197C107.308 24.2124 107.085 24.8819 106.862 25.5515C106.639 26.221 106.192 26.8905 105.746 27.3369C105.3 27.7832 104.853 28.2296 104.184 28.4527C103.514 28.6759 102.845 28.8991 101.952 28.8991ZM101.952 27.1137C102.398 27.1137 102.845 27.1137 103.291 26.8905C103.737 26.6673 103.96 26.4442 104.184 25.9978C104.407 25.5515 104.63 25.3283 104.63 24.8819C104.63 24.4356 104.853 23.9893 104.853 23.5429C104.853 23.0966 104.853 22.6502 104.63 22.2039C104.63 21.7575 104.407 21.3112 104.184 21.088C103.96 20.8648 103.737 20.4185 103.291 20.1953C102.845 19.9721 102.398 19.9721 101.952 19.9721C101.506 19.9721 101.059 19.9721 100.613 20.1953C100.167 20.4185 99.9434 20.6416 99.7202 21.088C99.497 21.5343 99.2738 21.7575 99.2738 22.2039C99.2738 22.6502 99.0507 23.0966 99.0507 23.5429C99.0507 23.9893 99.0507 24.4356 99.2738 24.8819C99.2738 25.3283 99.497 25.7746 99.7202 25.9978C99.9434 26.4442 100.167 26.6673 100.613 26.8905C101.059 26.8905 101.506 27.1137 101.952 27.1137ZM107.978 18.1867H109.763V15.2855H111.995V18.4099H114.003V20.1953H111.995V25.7746C111.995 25.9978 111.995 26.221 111.995 26.4442C111.995 26.6673 111.995 26.6673 112.218 26.8905C112.441 27.1137 112.441 27.1137 112.441 27.1137C112.664 27.1137 112.887 27.1137 113.111 27.1137C113.334 27.1137 113.334 27.1137 113.557 27.1137C113.78 27.1137 113.78 27.1137 114.003 27.1137V28.6759C113.78 28.6759 113.557 28.6759 113.334 28.6759C113.111 28.6759 112.887 28.6759 112.664 28.6759C111.995 28.6759 111.548 28.6759 111.325 28.4527C110.879 28.4527 110.656 28.2296 110.433 28.0064C110.209 27.7832 109.986 27.56 109.986 27.1137C109.986 26.8905 109.763 26.4442 109.763 25.9978V19.9721H107.978V18.1867Z" fill="#191919"/>
<path d="M27.4147 14.3928H16.9256L13.8011 4.34991L10.4535 14.3928H0.1875L8.44494 20.4184L5.32051 30.4613L13.8011 24.2124L22.0586 30.4613L18.9341 20.4184L27.4147 14.3928Z" fill="#00B67A"/>
<path d="M19.6072 22.6503L18.9377 20.4185L13.8047 24.2125L19.6072 22.6503Z" fill="#005128"/>
<path d="M182.315 0.908997H147.09V36.1339H182.315V0.908997Z" fill="#00B67A"/>
<path d="M220.112 0.908997H184.887V36.1339H220.112V0.908997Z" fill="#00B67A"/>
<path d="M258.264 0.908997H223.039V36.1339H258.264V0.908997Z" fill="#00B67A"/>
<path d="M296.061 0.908997H260.836V36.1339H296.061V0.908997Z" fill="#00B67A"/>
<path d="M334.221 0.908997H298.996V36.1339H334.221V0.908997Z" fill="#DCDCE6"/>
<path d="M298.996 0.908997H316.609V35.767H298.996V0.908997Z" fill="#00B67A"/>
<path d="M164.331 24.3921L169.835 22.9244L172.037 29.896L164.331 24.3921ZM176.807 15.5859H167.267L164.331 6.77966L161.396 15.5859H152.223L159.928 21.0898L156.993 29.896L164.698 24.3921L169.468 21.0898L176.807 15.5859Z" fill="white"/>
<path d="M202.503 24.3921L208.006 22.9244L210.208 29.896L202.503 24.3921ZM214.611 15.5859H205.071L202.136 6.77966L199.2 15.5859H189.66L197.366 21.0898L194.43 29.896L202.136 24.3921L206.906 21.0898L214.611 15.5859Z" fill="white"/>
<path d="M240.655 24.3921L246.159 22.9244L248.36 29.896L240.655 24.3921ZM252.764 15.5859H243.223L240.288 6.77966L237.353 15.5859H227.812L235.518 21.0898L232.949 29.896L240.655 24.3921L245.425 21.0898L252.764 15.5859Z" fill="white"/>
<path d="M278.44 24.3921L283.944 22.9244L286.146 29.896L278.44 24.3921ZM290.916 15.5859H281.376L278.44 6.77966L275.505 15.5859H265.965L273.67 21.0898L270.735 29.896L278.44 24.3921L283.21 21.0898L290.916 15.5859Z" fill="white"/>
<path d="M316.612 24.3921L322.116 22.9244L324.318 29.896L316.612 24.3921ZM328.721 15.5859H319.181L316.245 6.77966L313.677 15.5859H304.137L311.842 21.0898L308.907 29.896L316.612 24.3921L321.382 21.0898L328.721 15.5859Z" fill="white"/>
</svg>
