<svg width="92" height="80" viewBox="0 0 92 80" fill="none" xmlns="http://www.w3.org/2000/svg">
<path d="M31.9401 0.956421L34.1612 21.1712C34.673 25.8294 38.351 29.5075 43.0092 30.0193L63.224 32.2403L43.0092 34.4613C38.351 34.9731 34.673 38.6512 34.1612 43.3094L31.9401 63.5242L29.7191 43.3094C29.2073 38.6511 25.5293 34.9731 20.8711 34.4613L0.65625 32.2403L20.8711 30.0193C25.5293 29.5075 29.2073 25.8294 29.7191 21.1712L31.9401 0.956421Z" fill="white" fill-opacity="0.8"/>
<path d="M77.282 50.9546L78.2355 59.6326C78.4914 61.9617 80.3304 63.8007 82.6595 64.0566L91.3375 65.0101L82.6595 65.9635C80.3304 66.2194 78.4914 68.0584 78.2355 70.3876L77.282 79.0656L76.3286 70.3876C76.0727 68.0584 74.2337 66.2194 71.9046 65.9635L63.2266 65.0101L71.9046 64.0566C74.2337 63.8007 76.0727 61.9617 76.3286 59.6326L77.282 50.9546Z" fill="white" fill-opacity="0.9"/>
</svg>
