<svg width="45" height="43" viewBox="0 0 45 43" fill="none" xmlns="http://www.w3.org/2000/svg">
<path d="M42.4107 8.87862C41.5996 9.81054 40.7108 10.5785 39.7444 11.1824C39.3993 11.3896 38.6918 11.7175 37.6218 12.1661C37.0696 12.356 36.457 12.3991 35.7839 12.2955L36.5087 11.9072L37.2594 11.4931L38.476 10.6388L41.2976 8.25737C40.8662 7.92952 40.4606 7.54123 40.081 7.09251C39.9602 6.73015 39.8307 6.34186 39.6927 5.92765C39.6927 4.82324 40.0982 3.72741 40.9093 2.64017C41.3752 2.03621 41.9792 1.68244 42.7213 1.57886C43.8948 1.5789 44.4815 2.33821 44.4815 3.8568V4.50394C44.4815 4.91815 44.214 5.71198 43.6791 6.88542C43.3857 7.52397 42.9629 8.18837 42.4107 8.87862ZM42.8766 5.38405C42.8766 4.46947 42.4193 3.94312 41.5047 3.80503L41.3494 3.8568L41.194 3.96034L41.0128 4.32274C41.0128 4.61615 41.1466 4.91384 41.4141 5.2158C41.6816 5.51783 42.1173 5.85866 42.7213 6.23828C42.8248 5.92769 42.8766 5.64295 42.8766 5.38405Z" fill="#66D764"/>
<path d="M42.5581 15.7903C42.4373 16.4288 42.3078 17.3693 42.1698 18.6118C42.0317 20.1995 41.9454 22.3912 41.9109 25.1868C41.9109 28.3966 41.8764 30.6401 41.8074 31.9171C41.6693 34.6437 40.9273 37.4911 39.5812 40.4594C39.3223 41.0116 39.0894 41.2877 38.8823 41.2877C38.7787 41.2877 38.6752 41.2532 38.5717 41.1842C38.3301 41.0461 38.2438 40.7268 38.3128 40.2264C38.5889 39.2772 38.8133 36.8958 38.9858 33.0819C38.7442 30.0102 38.6579 26.5674 38.727 22.7535C39.2965 20.838 40.2887 18.4652 41.7038 15.635C42.049 15.4279 42.3337 15.4797 42.5581 15.7903Z" fill="#66D764"/>
<path d="M25.1182 41.4853C24.4797 41.6233 23.4356 41.8218 21.9861 42.0806C21.6754 42.0806 21.4856 41.9685 21.4166 41.7441C21.382 41.4335 21.6236 41.1401 22.1414 40.864C23.4874 40.0011 24.8335 39.1469 26.1795 38.3013C27.7672 37.2832 29.0528 36.334 30.0365 35.4539C31.0719 34.2804 32.0469 32.5633 32.9616 30.3026C33.6346 28.3871 34.3076 26.4802 34.9807 24.5819C35.0842 24.2885 35.3172 24.1419 35.6796 24.1418C35.9902 24.1419 36.1455 24.2885 36.1455 24.5819C36.2145 25.2549 35.9298 26.7908 35.2913 29.1896C34.2041 33.3658 32.9012 36.7396 31.3826 39.3109C30.8131 40.26 29.8725 40.8467 28.561 41.0711C27.4048 41.2091 26.2572 41.3472 25.1182 41.4853Z" fill="#66D764"/>
<path d="M23.7708 27.0037C23.9434 27.7113 24.0297 28.4361 24.0297 29.1781C24.0297 30.6277 23.6587 32.2499 22.9166 34.0446C22.8476 34.1827 22.1055 35.7186 20.6904 38.6523C20.5179 39.0492 20.1123 39.5497 19.4738 40.1536C17.8171 40.6714 15.2717 41.3358 11.8375 42.1468C11.5959 42.3022 11.4234 42.1814 11.3198 41.7844C11.3888 41.6809 12.0015 41.2236 13.1577 40.4125C13.8998 39.8775 15.194 39.1182 17.0406 38.1346C18.6972 37.289 19.9484 36.5124 20.794 35.8049C21.3635 35.1663 21.4929 34.2086 21.1823 32.9315C20.7853 31.4129 19.5601 30.1618 17.5065 29.1781C17.3684 28.9883 17.3684 28.7726 17.5065 28.531C17.61 28.3239 17.7222 28.1082 17.843 27.8838C18.2227 26.555 18.7318 24.9501 19.3703 23.0691C20.3194 23.1381 21.2168 23.5782 22.0624 24.3893C22.8044 25.1313 23.3739 26.0028 23.7708 27.0037Z" fill="#66D764"/>
<path d="M21.378 15.3518C20.5669 16.2837 19.6781 17.0516 18.7117 17.6556C18.3666 17.8627 17.659 18.1906 16.5891 18.6393C16.0369 18.8291 15.4242 18.8723 14.7512 18.7687L15.476 18.3804L16.2267 17.9662L17.4433 17.112L20.2649 14.7305C19.8334 14.4027 19.4279 14.0144 19.0482 13.5657C18.9274 13.2033 18.798 12.815 18.66 12.4008C18.66 11.2964 19.0655 10.2006 19.8766 9.11332C20.3425 8.50936 20.9465 8.15559 21.6886 8.052C22.8621 8.05204 23.4488 8.81136 23.4488 10.3299V10.9771C23.4488 11.3913 23.1813 12.1851 22.6464 13.3586C22.353 13.9971 21.9302 14.6615 21.378 15.3518ZM21.8439 11.8572C21.8439 10.9426 21.3866 10.4163 20.472 10.2782L20.3166 10.3299L20.1613 10.4335L19.9801 10.7959C19.9801 11.0893 20.1139 11.387 20.3814 11.6889C20.6488 11.991 21.0846 12.3318 21.6886 12.7114C21.7921 12.4008 21.8439 12.1161 21.8439 11.8572Z" fill="#66D764"/>
<path d="M12.7969 32.1184C12.5553 33.8441 11.6407 36.1393 10.053 39.004C9.6216 39.7806 8.87954 40.3069 7.82686 40.583C6.94675 40.8074 6.04075 41.0403 5.10887 41.2819C4.43584 41.489 3.41767 41.791 2.05436 42.1879C1.72647 42.1879 1.52801 42.0844 1.45898 41.8773C1.45898 41.6184 1.69196 41.351 2.1579 41.0748C3.57298 40.2292 4.98806 39.4009 6.40315 38.5898C7.95629 37.5889 9.27645 36.5794 10.3637 35.5612C10.6915 35.1298 10.7951 34.543 10.6743 33.801C10.4672 33.2833 10.2256 32.9295 9.94949 32.7396C9.58708 32.8087 9.25057 32.8432 8.93995 32.8432C7.66292 32.8432 6.70515 32.4031 6.06664 31.523C5.82503 31.1089 5.70423 30.6688 5.70424 30.2028C5.70423 29.7024 5.85955 29.0811 6.17018 28.3391C6.46355 27.7869 6.73103 27.2001 6.97264 26.5788C7.21423 25.9576 7.4472 25.2932 7.67155 24.5857C8.0512 23.8091 8.56029 23.3 9.19881 23.0584C10.3723 22.8341 11.3128 23.3086 12.0203 24.4821C12.7969 25.7937 13.1852 27.3468 13.1852 29.1415C13.1852 30.0907 13.0558 31.083 12.7969 32.1184Z" fill="#66D764"/>
<path d="M36.5925 10.8239C36.3279 10.9141 36.0463 10.9685 35.7469 10.9859L36.4398 10.6036L36.4516 10.597L36.4626 10.5893L37.6793 9.73505L37.6884 9.72867L37.6969 9.7215L40.5184 7.34001L40.7569 7.13873L40.5084 6.94992C40.1043 6.64283 39.7222 6.27953 39.3624 5.85904L39.0024 4.77925C39.0121 3.75376 39.3926 2.72293 40.168 1.6829C40.591 1.13536 41.1308 0.817778 41.7982 0.72052C42.3172 0.72417 42.6704 0.891508 42.9032 1.19284C43.1481 1.50973 43.2911 2.01435 43.2911 2.7484V3.39554C43.2911 3.55996 43.2356 3.82983 43.1036 4.22174C42.9736 4.60735 42.7769 5.09047 42.5114 5.67286C42.2289 6.28759 41.8192 6.93332 41.2783 7.61C40.4835 8.52245 39.6151 9.27204 38.6735 9.86084C38.3461 10.0569 37.6582 10.3769 36.5925 10.8239ZM40.6016 2.44943L40.5422 2.44046L40.4852 2.45946L40.3299 2.51123L40.2981 2.52182L40.2703 2.54039L40.1149 2.64393L40.0597 2.68076L40.03 2.74014L39.8488 3.10254L39.8224 3.15532L39.8224 3.21434C39.8224 3.58845 39.9937 3.94267 40.2865 4.27314C40.5774 4.60162 41.0366 4.95739 41.6478 5.34155L41.9174 5.51095L42.018 5.20894C42.1279 4.87929 42.1862 4.56745 42.1862 4.27566C42.1862 3.77722 42.061 3.35225 41.7819 3.03099C41.5031 2.7101 41.0982 2.52442 40.6016 2.44943Z" stroke="black" stroke-width="0.5"/>
<path d="M40.9809 17.4758L40.9808 17.4758L40.9803 17.4818C40.8414 19.0786 40.755 21.2773 40.7205 24.0753H40.7205V24.0784C40.7205 27.2884 40.6859 29.5257 40.6173 30.7952L40.6173 30.796C40.4811 33.4855 39.7489 36.3017 38.4137 39.2463C38.2884 39.5134 38.1766 39.6975 38.0808 39.811C37.9872 39.922 37.9405 39.9289 37.9406 39.9293C37.9406 39.9293 37.941 39.9293 37.9419 39.9293C37.8969 39.9293 37.8408 39.915 37.7699 39.8677L37.7627 39.863L37.7553 39.8587C37.6609 39.8048 37.5554 39.643 37.6177 39.1695C37.7609 38.6673 37.8858 37.8197 37.9966 36.6435C38.1093 35.447 38.2088 33.8937 38.2951 31.9848L38.2958 31.9694L38.2946 31.9539C38.0545 28.901 37.9681 25.4778 38.0359 21.6838C38.5965 19.809 39.5671 17.4846 40.9524 14.7076C41.0607 14.6534 41.1376 14.6464 41.1911 14.6561C41.2361 14.6643 41.2901 14.689 41.3506 14.7509C41.2343 15.3942 41.1111 16.3036 40.9809 17.4758Z" stroke="black" stroke-width="0.5"/>
<path d="M24.1362 40.1301L24.1477 40.1287C25.2847 39.9909 26.4304 39.853 27.5846 39.7152C28.8365 39.4997 29.7037 38.9467 30.2273 38.0746C31.7299 35.5302 33.0253 32.1806 34.1089 28.0182L34.1093 28.0168C34.4277 26.8205 34.6568 25.8437 34.7975 25.0846C34.9397 24.3176 34.9869 23.7966 34.9564 23.499L34.9551 23.4863L34.9551 23.4735C34.9551 23.3691 34.9282 23.3358 34.9169 23.3252C34.903 23.3121 34.8594 23.2835 34.7392 23.2834L24.1362 40.1301ZM24.1362 40.1301L24.125 40.1325M24.1362 40.1301L24.125 40.1325M24.125 40.1325C23.4946 40.2688 22.462 40.4652 21.0247 40.722C20.9092 40.7196 20.8388 40.6973 20.7975 40.6729C20.7652 40.6538 20.7405 40.6279 20.7231 40.585C20.7208 40.4444 20.8356 40.2338 21.3186 39.9762L21.3274 39.9715M24.125 40.1325L21.3274 39.9715M21.3274 39.9715L21.3359 39.9661M21.3274 39.9715L21.3359 39.9661M21.3359 39.9661C22.6813 39.1036 24.0267 38.2498 25.3721 37.4046L25.3721 37.4046M21.3359 39.9661L25.3721 37.4046M25.3721 37.4046L25.3741 37.4034M25.3721 37.4046L25.3741 37.4034M25.3741 37.4034C26.9686 36.3808 28.266 35.4237 29.2628 34.5318L29.2738 34.522M25.3741 37.4034L29.2738 34.522M29.2738 34.522L29.2835 34.5109M29.2738 34.522L29.2835 34.5109M29.2835 34.5109C30.3451 33.3078 31.3329 31.562 32.2529 29.288L32.2532 29.2881M29.2835 34.5109L32.2532 29.2881M32.2532 29.2881L32.257 29.2771M32.2532 29.2881L32.257 29.2771M32.257 29.2771C32.93 27.3618 33.6029 25.4551 34.2759 23.557L34.276 23.5567M32.257 29.2771L34.276 23.5567M34.276 23.5567C34.3116 23.4559 34.3631 23.3945 34.4258 23.355M34.276 23.5567L34.4258 23.355M34.4258 23.355C34.4916 23.3136 34.5905 23.2835 34.7391 23.2834L34.4258 23.355Z" stroke="black" stroke-width="0.5"/>
<path d="M19.5248 37.4353L19.5247 37.4352L19.5207 37.4442C19.3728 37.7845 19.0121 38.243 18.4034 38.8239C16.7543 39.3364 14.2344 39.9934 10.8396 40.7951L10.798 40.805L10.7619 40.8282C10.7431 40.8403 10.7294 40.8468 10.7205 40.8502C10.7136 40.8421 10.7032 40.8279 10.6906 40.8043C10.6821 40.7884 10.6734 40.7697 10.6646 40.7478C10.6731 40.7407 10.6822 40.7331 10.6919 40.7251C10.7727 40.6587 10.8883 40.5692 11.0402 40.4557C11.3435 40.2293 11.7834 39.9139 12.3608 39.5088L12.3609 39.5088L12.3635 39.5069C13.0904 38.9829 14.3709 38.2307 16.2158 37.2478C17.8785 36.3991 19.1479 35.6129 20.014 34.8882L20.028 34.8765L20.0401 34.8629C20.689 34.1353 20.804 33.0763 20.4848 31.7641L20.4848 31.764L20.4837 31.7599C20.0654 30.1596 18.7903 28.8721 16.7393 27.8757C16.7201 27.8376 16.7125 27.8015 16.7125 27.7656C16.7125 27.7121 16.7296 27.6403 16.7831 27.5466L16.7835 27.5468L16.7897 27.5344C16.892 27.3298 17.003 27.1163 17.1227 26.894L17.1355 26.8701L17.143 26.8441C17.5084 25.565 17.9949 24.027 18.6028 22.2294C19.4123 22.335 20.1931 22.737 20.947 23.4595C21.6595 24.1725 22.2076 25.009 22.5916 25.9714C22.7566 26.6539 22.8393 27.3532 22.8393 28.0697C22.8393 29.4754 22.4798 31.0618 21.7485 32.8327C21.6572 33.017 20.9152 34.5529 19.5248 37.4353Z" stroke="black" stroke-width="0.5"/>
<path d="M15.5597 17.2971C15.2952 17.3872 15.0136 17.4416 14.7141 17.459L15.407 17.0767L15.4189 17.0702L15.4299 17.0624L16.6466 16.2082L16.6557 16.2018L16.6642 16.1946L19.4857 13.8132L19.7242 13.6119L19.4757 13.4231C19.0716 13.116 18.6895 12.7527 18.3296 12.3322L17.9697 11.2524C17.9794 10.2269 18.3599 9.19607 19.1353 8.15604C19.5583 7.6085 20.0981 7.29092 20.7655 7.19366C21.2845 7.19731 21.6377 7.36465 21.8705 7.66598C22.1154 7.98288 22.2584 8.48749 22.2584 9.22155V9.86869C22.2584 10.0331 22.2029 10.303 22.0709 10.6949C21.9409 11.0805 21.7441 11.5637 21.4786 12.1461C21.1962 12.7608 20.7865 13.4065 20.2455 14.0831C19.4508 14.9956 18.5824 15.7452 17.6407 16.334C17.3134 16.53 16.6255 16.85 15.5597 17.2971ZM21.1535 10.7488V10.7488C21.1535 10.2504 21.0283 9.8254 20.7492 9.50413C20.4704 9.18324 20.0655 8.99756 19.5689 8.92257L19.5095 8.91361L19.4525 8.9326L19.2972 8.98437L19.2654 8.99496L19.2375 9.01353L19.0822 9.11707L19.027 9.1539L18.9973 9.21328L18.8161 9.57568L18.7897 9.62847L18.7897 9.68748C18.7897 10.0616 18.961 10.4158 19.2538 10.7463C19.5447 11.0748 20.0039 11.4305 20.6151 11.8147L20.8847 11.9841L20.9853 11.6821C21.0952 11.3524 21.1535 11.0406 21.1535 10.7488Z" stroke="black" stroke-width="0.5"/>
<path d="M11.614 30.9494L11.6107 30.9622L11.6089 30.9753C11.3738 32.6546 10.4774 34.9172 8.89394 37.7744C8.50291 38.4781 7.82584 38.9696 6.82374 39.2326C5.94357 39.457 5.03756 39.6899 4.1057 39.9315L4.10563 39.9313L4.09492 39.9346C3.42967 40.1393 2.42492 40.4374 1.07987 40.8291C0.958653 40.8257 0.881385 40.8045 0.83481 40.7802C0.806351 40.7654 0.786989 40.7485 0.77324 40.7272C0.78351 40.6799 0.812831 40.6175 0.881803 40.5383C0.97411 40.4324 1.12413 40.3124 1.34492 40.1815L1.34571 40.181C2.7595 39.3362 4.17328 38.5086 5.58704 37.6983L5.58721 37.6986L5.59815 37.6916C7.16104 36.6844 8.49371 35.6658 9.59412 34.6353L9.60951 34.6208L9.62227 34.6041C10.0056 34.0996 10.108 33.4352 9.98061 32.6524L9.97619 32.6252L9.96598 32.5997C9.7515 32.0635 9.48638 31.656 9.1507 31.4252L9.06475 31.3661L8.96228 31.3857C8.61251 31.4523 8.29185 31.4848 7.99953 31.4848C6.79175 31.4848 5.91877 31.0747 5.33592 30.2779C5.12013 29.904 5.0138 29.5108 5.01381 29.0945C5.0138 28.6434 5.15431 28.0607 5.45597 27.3377C5.75208 26.7793 6.02178 26.187 6.26521 25.5611C6.50689 24.9396 6.73971 24.2761 6.96375 23.5707C7.31784 22.8537 7.7756 22.4066 8.3268 22.1915C8.85799 22.0939 9.32227 22.1545 9.73125 22.3609C10.1484 22.5714 10.5288 22.9441 10.8653 23.5019C11.6149 24.7684 11.9948 26.2756 11.9948 28.0331C11.9948 28.9595 11.8684 29.9314 11.614 30.9494Z" stroke="black" stroke-width="0.5"/>
</svg>
