<?xml version="1.0" encoding="utf-8"?>
<!-- Generator: Adobe Illustrator 27.3.1, SVG Export Plug-In . SVG Version: 6.00 Build 0)  -->
<svg version="1.1" id="Layer_1" xmlns="http://www.w3.org/2000/svg" xmlns:xlink="http://www.w3.org/1999/xlink" x="0px" y="0px"
	 viewBox="0 0 1000 1000" style="enable-background:new 0 0 1000 1000;" xml:space="preserve">
<style type="text/css">
	.st0{fill:#0B017F;}
	.st1{fill:#F79838;}
	.st2{fill:#FFFFFF;}
</style>
<g>
	<g>
		<g>
			<g>
				<g>
					<path class="st0" d="M232.7,431c-38.1,0-69,30.9-69,69c0,16.6,5.8,31.8,15.6,43.7l107.8-86.3C274.5,441.3,254.8,431,232.7,431z
						"/>
					<path class="st1" d="M179.3,543.7c12.7,15.5,31.9,25.3,53.5,25.3c38.1,0,69-30.9,69-69c0-16.1-5.5-30.9-14.7-42.6L179.3,543.7z
						"/>
				</g>
				<g>
					<path class="st2" d="M271,485.1H211c-6.2,0-11.3-5.1-11.3-11.3v-17.1h60.1c6.2,0,11.3,5.1,11.3,11.3V485.1z"/>
					<path class="st2" d="M242.3,492.4h-2.9c-22.2,0-40.2,18-40.2,40.2v3.8v15.1c0,2,1.6,3.6,3.6,3.6H224c2,0,3.6-1.6,3.6-3.6V532
						c0-6.2,5-11.3,11.3-11.3H257c7.8,0,14-6.3,14-14v-14.3H242.3z"/>
				</g>
			</g>
			<path class="st2" d="M332.7,437.9c0-3.5,2.6-3.7,6.2-3.7c11.3,0,22.3,0.7,33.5,0.7c1.6,0,3.1,1.3,3.1,2.9v12.6
				c0,2-1.3,3.5-3.5,3.5h-17c-1.3,0-4.2,0.7-4.2,2.6v44.8c0,0.9,1.3,1.8,2,2h3.8c7.3,0,10.4,0.2,10.4,6.4c0,2,0.2,4,0.2,6
				c0,3.8-0.5,6.9-3.5,6.9c-3.1,0-6.2-1.1-9.1-1.1c-2.7,0-2.9,1.3-2.9,3.7c0,9.3-0.2,18.5-0.2,27.6c0,3.7-3.3,4.2-6.4,4.2h-6.2
				c-3.3,0-7.3-0.5-7.3-3.8L332.7,437.9z"/>
			<g>
				<path class="st2" d="M392.8,451.8v-3c0.4-1.9,3.1-2,5.1-2h2.7c3.3,0,4.9,0.5,9.1,0.5c2.6,0,2.6,6.9,2.6,11.6l1.1,78.9l1.5,1.3
					h17.4c1.6,0,3.3,1.5,3.3,2.9v10.8c0,2.7-2.4,3.2-4.8,3.4c-1.8,0.2-6.4,0.3-11.5,0.3c-6.8,0-14.8-0.2-17.4-0.2h-5.1
					c-1.1-0.5-1.6-1.9-1.6-2.9C394.7,516.7,392.8,488.7,392.8,451.8z"/>
				<path class="st2" d="M447.1,458.4c0.2-3.7,0.4-8.9,5.1-8.9h0.2l10.8,0.5c1.1,0,2.9,0.8,3.1,1.9v9.3c0,3.2-0.2,6.4-0.2,13.3v15.8
					c0,22.6,0.7,49.9,9.9,49.9c3.8,0,7.3-3.4,8-7.1c2.6-8.4,2-15.3,3.5-78.4c0-2.2,2-3,4-3.4h8.6c3.3,0,6.6,0.5,6.6,4.4
					c-0.4,3.4-0.4,8.3-0.4,13.8v12.1c-0.4,43.3-1.6,77-28.5,77c-29.1,0-30.7-27.5-30.7-52.1v-47.5V458.4z"/>
				<path class="st2" d="M531.7,445.6h14.8c3.1,0,17.9,0.2,20.8,0.3c1.3,0.3,1.8,0.8,2.2,1.9c0.2,3.9,0.2,7.6,0.2,12
					c-0.2,1.7-0.4,3.2-3.5,3.2h-19.7l-1.6,1.5l1.1,27.8l15.4,0.5c2.2,0.2,2.7,3.5,2.7,7.1v1.4l-0.5,4c0,1.4-0.4,3.5-2.6,3.5h-13.9
					c-0.2,0-0.5,0.3-0.9,0.5l-0.5,0.5l0.9,26c0.4,1.9,1.3,3.2,3.7,3.2h19.6c3.1,0,3.7,2.2,3.7,4.6l-0.9,9.6
					c-0.2,1.2-1.5,2.4-2.7,2.7l-38.6,1.3c-2,0-4.2-2.4-4.2-42.5c0-10.8-0.2-21.6-0.2-32.7c0-11.1,0.2-22.4,0.5-34.2
					C528.1,446.1,529.9,445.6,531.7,445.6z"/>
				<path class="st2" d="M609.8,476.9c-0.4,0-0.5,3.4-0.5,8.9c0,14.3,0.9,43.5,0.9,70.1c0,3.7-3.1,4.2-6.2,4.2
					c-1.1,0-2.2-0.2-3.3-0.2c-0.7,0-2.2,0.2-3.5,0.2c-2.6,0-5.3-0.5-5.8-2.4l-0.2-48.4c0-14-0.5-28.2-0.5-42.1
					c0-2.5,0.2-14,0.2-16.5c0.2-1.3,1.1-2.5,2.9-2.5h21.4c1.5,0,3.3,0.5,3.3,1.9l25.2,77.5l-4.2-77.4c0.5-1.2,1.8-2.2,3.3-2.2h12.8
					c0.9,0,2.4,0.5,2.7,1.4v1c0,5.9,1.1,23.3,1.1,34.9c0,5.4,0.9,34.6,0.9,54.4c0,10.8-0.4,19-1.1,19h-18.6c-1.6,0-2.9-1.2-3.7-2.5
					L609.8,476.9z"/>
				<path class="st2" d="M697.7,472.5V468c0-0.3-0.9-2.9-2-2.9l-12.1,0.2c-3.3,0-3.3-1.9-3.3-4.7v-1.5c0-6.7,0.2-10.8,6.6-10.8h2.7
					c6.6,0,29.1,0.2,35.5,0.3c0.9,0,4.4,0.3,5.1,0.5c2,0.2,2.6,2.9,2.6,5.4c0,1.2-0.2,2.4-0.2,3.2v2.5c0,3-1.6,5.7-4,5.7l-13,0.7
					l0.2,87.3c0,1.9-0.5,4.7-2.7,4.7h-12.2c-1.6,0-3.3-1-3.3-3.2C697.6,527.8,697.7,500.2,697.7,472.5z"/>
				<path class="st2" d="M794.6,445.6h14.8c3.1,0,17.9,0.2,20.8,0.3c1.3,0.3,1.8,0.8,2.2,1.9c0.2,3.9,0.2,7.6,0.2,12
					c-0.2,1.7-0.4,3.2-3.5,3.2h-19.7l-1.6,1.5l1.1,27.8l15.4,0.5c2.2,0.2,2.7,3.5,2.7,7.1v1.4l-0.5,4c0,1.4-0.4,3.5-2.6,3.5H810
					c-0.2,0-0.5,0.3-0.9,0.5l-0.5,0.5l0.9,26c0.4,1.9,1.3,3.2,3.7,3.2h19.6c3.1,0,3.7,2.2,3.7,4.6l-0.9,9.6
					c-0.2,1.2-1.5,2.4-2.7,2.7l-38.6,1.3c-2,0-4.2-2.4-4.2-42.5c0-10.8-0.2-21.6-0.2-32.7c0-11.1,0.2-22.4,0.5-34.2
					C791,446.1,792.8,445.6,794.6,445.6z"/>
			</g>
		</g>
		<g>
			<path class="st0" d="M748.6,531c0,9.1,0.4,16.7,0.9,24.6c0,1.3,1.1,2.9,2.7,2.9l11.3-1.5c2.9-0.3,3.5-2.2,3.5-4.2l1.4-53.1
				c-5.7,0.9-12.7,3.4-19.2,6.2C748.8,515.6,748.6,523.8,748.6,531z"/>
			<path class="st1" d="M766.7,448.6h-11.9c-1.5,0-2.7,1.2-2.7,2.4c-0.9,13.5-1.5,24.9-2,35.1c-0.3,7.3-0.6,13.9-0.9,19.9
				c6.5-2.8,13.5-5.3,19.2-6.2l1.2-47.4C769.6,450.5,769,448.6,766.7,448.6z"/>
		</g>
	</g>
</g>
</svg>
