<svg width="62" height="61" viewBox="0 0 62 61" fill="none" xmlns="http://www.w3.org/2000/svg">
<path d="M22.7051 16.61L23.9995 28.3913C24.5113 33.0496 28.1893 36.7276 32.8476 37.2394L44.6289 38.5338L32.8475 39.8283C28.1893 40.3401 24.5113 44.0181 23.9995 48.6763L22.7051 60.4576L21.4106 48.6763C20.8988 44.0181 17.2208 40.3401 12.5626 39.8283L0.78125 38.5338L12.5626 37.2394C17.2208 36.7276 20.8988 33.0496 21.4106 28.3913L22.7051 16.61Z" fill="#66D764"/>
<path d="M49.022 0.898193L49.8013 7.9904C50.0572 10.3195 51.8962 12.1585 54.2253 12.4144L61.3175 13.1937L54.2253 13.9729C51.8962 14.2288 50.0572 16.0678 49.8013 18.3969L49.022 25.4891L48.2428 18.3969C47.9869 16.0678 46.1479 14.2288 43.8188 13.9729L36.7266 13.1937L43.8188 12.4144C46.1479 12.1585 47.9869 10.3195 48.2428 7.9904L49.022 0.898193Z" fill="#FFCC01"/>
</svg>
