<svg width="34" height="34" viewBox="0 0 34 34" fill="none" xmlns="http://www.w3.org/2000/svg">
<rect x="1.14062" y="0.726562" width="32.3062" height="32.3062" rx="16.1531" stroke="#FF0000"/>
<path d="M15.7075 19.1352L19.8234 16.8801L15.7075 14.625V19.1352ZM24.875 13.2494C24.9781 13.6027 25.0494 14.0762 25.097 14.6776C25.1525 15.279 25.1763 15.7977 25.1763 16.2487L25.2239 16.8801C25.2239 18.5264 25.097 19.7366 24.875 20.5109C24.6767 21.1874 24.2168 21.6234 23.503 21.8113C23.1303 21.909 22.4483 21.9767 21.4015 22.0218C20.3706 22.0744 19.4268 22.097 18.5545 22.097L17.2936 22.1421C13.9708 22.1421 11.901 22.0218 11.0842 21.8113C10.3704 21.6234 9.91047 21.1874 9.71222 20.5109C9.60912 20.1576 9.53775 19.684 9.49017 19.0826C9.43465 18.4813 9.41086 17.9626 9.41086 17.5116L9.36328 16.8801C9.36328 15.2339 9.49017 14.0236 9.71222 13.2494C9.91047 12.5728 10.3704 12.1368 11.0842 11.9489C11.4569 11.8512 12.1389 11.7835 13.1857 11.7384C14.2166 11.6858 15.1603 11.6633 16.0327 11.6633L17.2936 11.6182C20.6164 11.6182 22.6862 11.7384 23.503 11.9489C24.2168 12.1368 24.6767 12.5728 24.875 13.2494Z" fill="#FF0000"/>
</svg>
