<svg width="63" height="62" viewBox="0 0 63 62" fill="none" xmlns="http://www.w3.org/2000/svg">
<path d="M22.8608 16.1442L24.207 28.3967C24.7188 33.055 28.3968 36.733 33.0551 37.2448L45.3076 38.591L33.0551 39.9372C28.3968 40.449 24.7188 44.127 24.207 48.7852L22.8608 61.0377L21.5146 48.7852C21.0028 44.127 17.3248 40.449 12.6666 39.9372L0.414062 38.591L12.6666 37.2448C17.3248 36.733 21.0028 33.055 21.5146 28.3967L22.8608 16.1442Z" fill="#FFB54A"/>
<path d="M49.8036 0.0576782L50.6118 7.41412C50.8677 9.74323 52.7067 11.5822 55.0359 11.8381L62.3923 12.6464L55.0359 13.4547C52.7067 13.7106 50.8677 15.5496 50.6118 17.8787L49.8036 25.2351L48.9953 17.8787C48.7394 15.5496 46.9004 13.7106 44.5713 13.4547L37.2148 12.6464L44.5713 11.8381C46.9004 11.5822 48.7394 9.74323 48.9953 7.41412L49.8036 0.0576782Z" fill="#F66A61"/>
</svg>
